<?xml version="1.0" encoding="utf-8"?>
<!-- Generator: Adobe Illustrator 19.0.0, SVG Export Plug-In . SVG Version: 6.00 Build 0)  -->
<svg version="1.1" id="Слой_1" xmlns="http://www.w3.org/2000/svg" xmlns:xlink="http://www.w3.org/1999/xlink" x="0px" y="0px"
	 viewBox="0 0 9 16" fill="#4b67b2" style="enable-background:new 0 0 9 16;" xml:space="preserve">
<path d="M9,0.3C9,0.1,8.9,0,8.7,0L7,0C4.7,0,3,1.5,3,3.9v1.7C3,5.9,2.9,6,2.7,6H0.3C0.1,6,0,6.1,0,6.3v2.4C0,8.9,0.1,9,0.3,9h2.4
	C2.9,9,3,9.1,3,9.3v6.4C3,15.9,3.1,16,3.3,16h2.4C5.9,16,6,15.9,6,15.7V9.3C6,9.1,6.1,9,6.3,9h2.4C8.9,9,9,8.9,9,8.7V6.3
	C9,6.1,8.9,6,8.7,6H6.3C6.1,6,6,5.9,6,5.7V4c0-0.7,0.2-1,1-1h1.7C8.9,3,9,2.9,9,2.7V0.3z"/>
</svg>
