<?xml version="1.0" encoding="utf-8"?>
<!-- Generator: Adobe Illustrator 19.0.0, SVG Export Plug-In . SVG Version: 6.00 Build 0)  -->
<svg version="1.1" id="Capa_1" xmlns="http://www.w3.org/2000/svg" xmlns:xlink="http://www.w3.org/1999/xlink" x="0px" y="0px" fill="#fff"
	 viewBox="-285.4 367.6 15.6 16" style="enable-background:new -285.4 367.6 15.6 16;" xml:space="preserve">
<g>
	<g>
		<path d="M-275.2,367.6h-3.8c-1.7,0-2.9,0.4-3.9,1.2c-0.8,0.7-1.3,1.8-1.3,2.8c0,1.6,1.2,3.3,3.5,3.3c0.2,0,0.5,0,0.7,0l0,0.1
			c-0.1,0.2-0.2,0.4-0.2,0.7c0,0.6,0.3,1,0.6,1.4l0,0l-0.1,0c-0.9,0.1-2.7,0.2-3.9,1c-1.5,0.9-1.6,2.2-1.6,2.5c0,1.5,1.4,3,4.5,3
			c3.6,0,5.5-2,5.5-3.9c0-1.4-0.8-2.2-1.8-2.9l-0.8-0.6c-0.2-0.2-0.5-0.4-0.5-0.9c0-0.4,0.3-0.7,0.6-1l0,0c0.8-0.6,1.8-1.4,1.8-3
			c0-1.6-1-2.4-1.5-2.8h1.3c0,0,0,0,0,0l1.1-0.7C-275.2,367.7-275.2,367.7-275.2,367.6C-275.2,367.6-275.2,367.6-275.2,367.6z
			 M-279.9,382.7c-2.2,0-3.7-1-3.7-2.5c0-1,0.6-1.7,1.8-2.1c0.9-0.3,2.2-0.3,2.2-0.3c0.2,0,0.3,0,0.5,0c1.5,1.1,2.3,1.7,2.3,2.8
			C-276.8,381.8-278,382.7-279.9,382.7z M-279.9,374.3c-1.8,0-2.6-2.4-2.6-3.7c0-0.7,0.1-1.2,0.5-1.5c0.3-0.4,0.9-0.7,1.5-0.7
			c1.7,0,2.6,2.3,2.6,3.8c0,0.2,0,1-0.5,1.5C-278.8,374.1-279.4,374.3-279.9,374.3z"/>
		<path d="M-269.9,375.1h-2v-2c0,0,0-0.1-0.1-0.1h-0.9c0,0-0.1,0-0.1,0.1v2h-2c0,0-0.1,0-0.1,0.1v0.9c0,0,0,0.1,0.1,0.1h2v2
			c0,0,0,0.1,0.1,0.1h0.9c0,0,0.1,0,0.1-0.1v-2h2c0,0,0.1,0,0.1-0.1L-269.9,375.1C-269.8,375.1-269.8,375.1-269.9,375.1z"/>
	</g>
</g>
</svg>
