<?xml version="1.0" encoding="utf-8"?>
<!-- Generator: Adobe Illustrator 19.0.0, SVG Export Plug-In . SVG Version: 6.00 Build 0)  -->
<svg version="1.1" id="Слой_1" xmlns="http://www.w3.org/2000/svg" fill="#e93f36"  xmlns:xlink="http://www.w3.org/1999/xlink" x="0px" y="0px"
	 viewBox="0 0 70 26" style="enable-background:new 0 0 70 26;" xml:space="preserve">
<style type="text/css">
	.st0{fill-rule:evenodd;clip-rule:evenodd;}
</style>
<path class="st0" d="M9,1.2C4.4,6.7,0,13.5,0,18.6c0,1.9,0.6,3.6,2,4.9C4.1,25.3,6.3,26,8.6,26c3.3,0,6.6-1.4,9.1-2.4
	c4.3-1.8,52-23.1,52-23.1c0.5-0.2,0.4-0.5-0.2-0.4c-0.2,0.1-51.9,14.5-51.9,14.5c-1,0.3-2,0.4-3,0.4c-4,0-7.5-2.3-7.5-7
	C7.1,6.1,7.7,3.8,9,1.2L9,1.2z"/>
</svg>
