<?xml version="1.0" encoding="utf-8"?>
<!-- Generator: Adobe Illustrator 19.0.0, SVG Export Plug-In . SVG Version: 6.00 Build 0)  -->
<svg version="1.1" id="Слой_1" xmlns="http://www.w3.org/2000/svg" fill="white" xmlns:xlink="http://www.w3.org/1999/xlink" x="0px" y="0px"
	 viewBox="0 0 54 26" style="enable-background:new 0 0 54 26;" xml:space="preserve">
<g>
	<path d="M6.5,13.4H4.1H0.5c-0.4,0-0.4,0-0.4,0.3v12c0,0,0,0,0,0v0C0,25.8,0.1,26,0.3,26c0.3,0,2.7,0,2.9,0c0.3,0,0.3,0,0.3-0.3
		v-2.4c0-0.3,0-0.4,0.3-0.4h0.2h2.4c1.4-0.1,1.7-0.4,1.7-1.9v-6C8.2,13.7,7.9,13.4,6.5,13.4z M4.7,20.8c0,0.4-0.3,0.6-0.6,0.6
		c-0.3,0-0.6-0.2-0.6-0.6v-5.5c0-0.4,0.3-0.6,0.6-0.6c0.3,0,0.6,0.2,0.6,0.6V20.8z"/>
	<path d="M17.7,13.7c0-0.3-0.1-0.2-0.3-0.3h-2.9c-0.3,0-0.3,0-0.3,0.3l0,9.9c0,1-1.1,0.9-1.1,0v-9.9c0-0.3,0-0.3-0.3-0.3h-3
		c-0.4,0-0.4,0-0.4,0.3v10.5c0,1.6,0.4,1.8,1.3,1.8h5.6c1.1,0,1.4-0.3,1.4-1.7V13.7z"/>
	<path d="M30.3,13.4h-9.9c-1.2,0-1.5,0.3-1.5,1.4v10.9c0,0.3,0,0.3,0.4,0.3h2.8c0.4,0,0.4,0,0.4-0.3V15.5c0-0.9,1.1-1,1.1,0v10.3
		c0,0.3,0,0.3,0.4,0.3h2.8c0.3,0,0.3,0,0.3-0.3V15.5c0-0.8,1.1-0.9,1.1,0v10.3c0,0.3,0,0.3,0.4,0.3h2.9c0.3,0,0.3,0,0.3-0.3v-11
		C31.6,13.7,31.3,13.4,30.3,13.4z"/>
	<path d="M39.9,13.4H37h-2.8c-0.9,0-1.3,0.3-1.3,1.4v11c0,0.3,0,0.3,0.4,0.3h2.8c0.4,0,0.4,0,0.4-0.3v-2.4c0-0.4,0.3-0.6,0.6-0.6
		c0.3,0,0.6,0.2,0.6,0.6v2.4c0,0.3,0,0.3,0.4,0.3h2.9c0.3,0,0.3,0,0.3-0.3v-11C41.1,13.7,40.8,13.4,39.9,13.4z M37.6,20.8
		c0,0.3-0.3,0.5-0.6,0.5c-0.3,0-0.6-0.2-0.6-0.5v-5.4c0-0.4,0.3-0.6,0.6-0.6c0.3,0,0.6,0.2,0.6,0.6V20.8z"/>
	<path d="M53.8,0.6c-0.3-0.4-0.8-0.3-1.5,0c-0.9,0.4-2.5,2.2-2.9,3.2c-0.4,1.4-1.2,2.7-2.5,4.2c-1.3,1.1-3.7,0.7-5.1-0.2
		c-0.1,0-5.8-4.4-5.8-4.4c-2-1.6-3.4-2.3-5.2-2.5c-0.1-0.1-0.2-0.1-0.2-0.2c-0.3-0.6-0.3-0.5-0.5-0.7c-0.2,0.2-0.4,0.3-0.6,0.3
		c-0.1,0-0.1,0-0.2,0c-0.1-0.1-0.3-0.2-0.4-0.2c-0.2,0-0.3,0.4-0.5,0.7c0,0-0.4,0.3-0.8,0.6c-0.1,0.1-0.2,0.3-0.2,0.4
		c-0.2,0.2-0.4,0.5-0.4,0.5c-0.1,0.2-0.1,0.4,0,0.6c0,0.3,0.1,0.3,0.2,0.4c0,0.1,0.1,0.1,0.1,0.2c0.1,0,0.2,0.1,0.3,0.1
		c0.5,0.5,0.8,0.5,1.4,0.4c1.1,0.1,1,0.4,1,1c-0.1,0.1-0.1,0.1-0.2,0.1c-0.5,0-1-0.1-1.5-0.1c-1.1,0.1-2,0.3-1.9,1.6
		c0.1,0.5,1,1.2,1.5,0.3c0.1-0.4,0.4-0.2,0.8-0.1C30.5,7.5,32,8,33,7.1c0.3-0.4,0.5-0.1,0.8,0.1c1.5,1.8,3.8,3,7.2,3
		c1.1,0.3,2,0.7,2.4,1.8c1.1,2.7,2.4,4.8,4.4,6c-0.2,1.7-0.1,3.1,1.6,3.5c0.5-0.4-0.2-0.9,0.3-2.2c0-0.6-0.5-1-0.7-2.1
		c-2-1.6-1.2-2.3-1.5-3.4c0-1.6-0.4-2.8-1.1-4c-0.1-0.2,0.1-0.3,0.2-0.4c1.1-0.8,1.7-1.7,2-2.5C49.2,5.6,50,4.5,51,3.7
		c0.9-0.7,1.7-0.9,2.6-1.5C54.1,1.3,54.1,1,53.8,0.6z"/>
</g>
</svg>
