<?xml version="1.0" encoding="utf-8"?>
<!-- Generator: Adobe Illustrator 19.0.0, SVG Export Plug-In . SVG Version: 6.00 Build 0)  -->
<svg version="1.1" id="Слой_1" xmlns="http://www.w3.org/2000/svg" fill="white" xmlns:xlink="http://www.w3.org/1999/xlink" x="0px" y="0px"
	 viewBox="0 0 34 36" style="enable-background:new 0 0 34 36;" xml:space="preserve">
<style type="text/css">
	.st0{fill-rule:evenodd;clip-rule:evenodd;}
</style>
<path class="st0" d="M28.3,24.9c-0.3-1.4-0.9-2.5-1.8-3.3c-0.3-0.3-0.7-0.6-1.1-0.8c-0.2-0.1-0.4-0.2-0.7-0.3
	c-0.5-0.2-1.1-0.4-1.8-0.3c0.4-0.2,1-0.2,1.5-0.2c0.5,0.1,0.9,0.2,1.3,0.3c0.3,0.2,0.7,0.4,1,0.6c0.8-2.5,0.5-6-0.4-8.3
	c-0.9-2.4-2.2-4.3-4-5.8c-1.7-1.6-3.7-2.8-6.4-3.3c-1.3-0.3-3-0.2-4.2,0c-1.3,0.3-2.3,0.9-3.3,1.6C7.6,5.8,6.8,6.6,6.2,7.7
	C6,7.9,5.9,8.2,5.7,8.5C5.6,8.8,5.5,9.1,5.3,9.3c-0.2,0.6-0.4,1.2-0.5,1.9c-0.3,1.3-0.4,3-0.2,4.4c0.2,1.5,0.6,2.7,1,3.8
	C6,20,6.2,20.6,6.5,21.1c0.3,0.5,0.7,1,1,1.4c0.8,0.8,1.6,1.6,2.6,2.3c2,1.3,4.2,2.3,7.3,2.4c0.1-0.1-0.1-0.4-0.1-0.5
	c0-0.2-0.1-0.4-0.1-0.6c0-0.4-0.1-0.9,0-1.3c0.1,0,0.1,0.2,0.2,0.3c0.1,0.1,0.1,0.2,0.2,0.2c0.1,0.2,0.2,0.3,0.3,0.5
	c0.3,0.3,0.5,0.7,0.9,0.9c0.3,0.3,0.7,0.5,1,0.7c0.4,0.2,0.7,0.5,1.2,0.6c0.8,0.4,1.8,0.5,2.8,0.7c1,0.1,2,0.3,3,0.5
	c0.9,0.3,1.7,0.6,2.5,1c0.4,0.2,0.7,0.4,1.1,0.7c0.2,0.1,0.4,0.2,0.5,0.4c0.2,0.1,0.3,0.3,0.5,0.3c0.6,0.6,1.2,1.2,1.7,1.8
	c0.2,0.4,0.5,0.7,0.7,1.1c0.1,0.2,0.2,0.4,0.3,0.6c0,0.2,0.2,0.5,0,0.7c-0.3,0-0.2-0.3-0.3-0.4c-0.1-0.2-0.2-0.3-0.3-0.5
	c-0.4-0.5-0.9-1-1.3-1.4c-0.5-0.4-1-0.9-1.5-1.2c-1.1-0.8-2.3-1.4-3.8-1.7c-1.4-0.4-3-0.6-4.9-0.5c-0.8,0.1-1.6,0.3-2.3,0.5
	c-0.7,0.2-1.5,0.3-2.3,0.4c-3.1,0.2-6.6-0.6-9-1.7c-1.2-0.6-2.4-1.3-3.4-2.1c-0.5-0.4-1-0.9-1.4-1.4c-0.4-0.5-0.8-1-1.2-1.6
	c-0.4-0.5-0.7-1.2-1-1.8c-0.2-0.7-0.5-1.3-0.7-2.1c-0.2-0.7-0.4-1.5-0.5-2.3c0-0.2-0.1-0.7-0.1-1c0,0,0-0.1,0-0.1
	c0-0.3-0.1-0.8,0-1.1c0-0.8,0.1-1.7,0.3-2.4c0.1-0.8,0.3-1.5,0.6-2.2c0.2-0.7,0.5-1.3,0.8-2C1.9,9.1,2,8.7,2.2,8.4
	c0.1-0.3,0.4-0.5,0.5-0.9C2.8,7.5,2.9,7.3,3,7.2C3.1,7,3.2,7,3.3,6.8c0.1-0.1,0.2-0.2,0.3-0.4C3.7,6.3,3.8,6.2,3.9,6
	c0.5-0.5,0.9-1,1.3-1.4c0.5-0.5,1-0.8,1.5-1.3C7,3.2,7.3,2.9,7.6,2.8c0.2-0.2,0.6-0.3,0.8-0.5C9,2,9.6,1.6,10.3,1.3
	c0.6-0.3,1.3-0.5,2-0.7C13.7,0.2,15.2,0,17,0c0.1,0,0.1-0.1,0.1,0c3.5,0.1,6,1.2,8.2,2.6c2.1,1.4,3.8,3.4,5,5.8
	c1.2,2.4,1.8,5.6,1.3,9c-0.3,1.5-0.7,2.9-1.3,4.2c-0.3,0.6-0.6,1.2-1,1.7c-0.2,0.3-0.3,0.6-0.5,0.8c-0.1,0.1-0.2,0.3-0.3,0.4
	c0,0.1-0.1,0.1-0.2,0.2C28.4,24.8,28.4,24.8,28.3,24.9C28.3,24.9,28.3,24.9,28.3,24.9z"/>
<path class="st0" d="M27.4,25.9c-0.5-0.2-0.5-0.7-0.7-1.2c0-0.2-0.1-0.4,0-0.5c0,0,0,0,0.1,0c0.1-0.1,0.2,0,0.4,0.1
	c0.2,0.3,0.4,0.6,0.5,1C27.6,25.5,27.6,25.8,27.4,25.9z"/>
<path class="st0" d="M24,25.2C24,25.2,24,25.2,24,25.2c0.7,0.1,1,0.5,1.1,1.3c-0.1,0.4-0.3,0.6-0.7,0.7c-0.9,0-1.4-0.8-1.1-1.7
	C23.5,25.4,23.6,25.2,24,25.2z"/>
</svg>
