<?xml version="1.0" encoding="utf-8"?>
<!-- Generator: Adobe Illustrator 19.0.0, SVG Export Plug-In . SVG Version: 6.00 Build 0)  -->
<svg version="1.1" id="Слой_1" xmlns="http://www.w3.org/2000/svg" xmlns:xlink="http://www.w3.org/1999/xlink" x="0px" y="0px" fill="white"
	 viewBox="0 0 141.7 166.2" style="enable-background:new 0 0 141.7 166.2;" xml:space="preserve">
<g>
	<path d="M40.9,131.5l0,0.3l0.1,0.4l0.1,0.3l0.1,0.4l0.1,0.4l0.1,0.4c0.9,3.4,2.3,6.6,4.2,9.4c1.3,0.2,3.2-0.1,3.8-0.1
		c-1.8-3.2-2-5.5-1-9c-2.2-3.2-4.6-7.2-5.2-11.2l-2.6,0c-0.1,1.1-0.2,2.2-0.2,3.3l0,0.8l0,0.7l0,0.2l0,0.6l0,0.4l0.1,0.6l0,0.3
		l0,0.4l0.1,0.4l0,0.2l0,0.3l0,0.2L40.9,131.5z"/>
	<path d="M71,142.2c1.5,0,3-0.1,4.6-0.4c2.3-2,4.1-4.6,5.5-7.3c0.2-0.4,0.4-0.7,0.6-1.1l0.2-0.3c-1.5-3-3.9-7.5-5.9-10.2
		c-1.9,0-3.4,0-4.9,0c-1.5,0-3,0-4.9,0c-2,2.7-4.4,7.2-5.9,10.2l0.2,0.3c0.2,0.4,0.4,0.8,0.6,1.1c1.4,2.7,3.2,5.3,5.5,7.3
		C68,142,69.5,142.2,71,142.2z"/>
	<path d="M81.3,111.9c-0.7,2.8-2.7,7.1-4,9.9l0.3,0.4c1.8,2.5,4.2,6.8,5.8,10.1l9.4,0.1c2-2.7,4.5-6.7,5-10.1
		c-1.2-3.7-4.1-8.5-6.7-10.3C89.3,111.6,84.9,111.6,81.3,111.9z"/>
	<path d="M96.9,142.6c0.8-1.2,1.5-2.5,2.1-3.8l0.1-0.2l0.1-0.2l0.1-0.3l0.1-0.3l0.1-0.2l0.1-0.3l0.1-0.4l0.1-0.4l0.1-0.2l0.1-0.2
		c1-3.1,1.6-6.3,1.6-9.7c0-1.1-0.1-2.2-0.2-3.3l-2.6,0c-0.6,3.9-3,7.9-5.2,11.2c1,3.5,0.8,5.8-1,9c0.6,0.1,2.5,0.3,3.8,0.1
		L96.9,142.6z"/>
	<path d="M58.7,132.4c1.6-3.3,4-7.6,5.8-10.1l0.3-0.4c-1.3-2.8-3.3-7.1-4-9.9c-3.5-0.3-8-0.3-9.7,0.2c-2.6,1.8-5.5,6.6-6.7,10.3
		c0.5,3.4,3,7.4,5,10.1L58.7,132.4z"/>
	<path d="M99,113.5l2.4,8.2C101,118.9,100.1,116.1,99,113.5z"/>
	<path d="M98.7,121.9l0.3-8.4c-1.4-3.2-3.4-6.1-5.8-8.6c0.1,1.4-0.4,4.6-0.8,6.2C95.5,113.5,97.5,118.4,98.7,121.9z"/>
	<path d="M50.8,110.5c2.8-0.6,7.9-0.4,10.2-0.3c2.6-2.2,7.2-5.3,9.3-6l-20.1-0.5C50,104.9,50.4,108.7,50.8,110.5z"/>
	<path d="M70.2,96.2c-1.7-0.1-6.9,0-11.9,2.2c-3.1,1.4-5.8,3.1-8.3,5.4L70.2,96.2z"/>
	<path d="M71,105.4l4.8,15.8c1.4-3,3.3-7,3.9-10C77.5,109.4,73,106,71,105.4z"/>
	<path d="M66.2,121.2l4.8-15.8c-1.9,0.7-6.4,4-8.7,5.8C62.9,114.1,64.8,118.2,66.2,121.2z"/>
	<path d="M48.9,104.9c-4.3,4.5-7.2,10.3-8.2,16.8L48.9,104.9z"/>
	<path d="M71.8,96.2l20.1,7.5c-2.4-2.3-5.2-4-8.3-5.4C78.7,96.2,73.5,96.1,71.8,96.2z"/>
	<path d="M67.2,121.2h7.7c-1.4,0-2.6,0-3.8,0C69.8,121.1,68.6,121.1,67.2,121.2z"/>
	<path d="M71.8,104.2c2.1,0.7,6.7,3.9,9.3,6c2.3-0.1,7.4-0.3,10.2,0.3c0.4-1.9,0.8-5.6,0.7-6.8L71.8,104.2z"/>
	<path d="M49.7,111.1c-0.4-1.6-0.8-4.7-0.8-6.1l-5.5,17C44.5,118.4,46.6,113.5,49.7,111.1z"/>
	<path d="M94.9,145.3l0.2-0.2l0.2-0.2l0.2-0.2l0.2-0.3l0.2-0.3c-1.2-0.1-3.3-0.4-3.3-0.4c-2.2,3.1-6.8,5.3-10.1,6.4
		c-0.9,1.4-2.8,3.7-4.8,5.9C84.5,154.5,90.6,150.6,94.9,145.3z"/>
	<path d="M81.7,148.6l0.4,0.2c3.1-1,7.1-2.7,9.2-5.7c1.9-3,2.4-5.4,1.2-9.1c-2.1,0-6.1,0-9.3-0.2c-1.8,3.8-4.1,7-6.2,8.9
		C78.6,145.5,80.6,147.6,81.7,148.6z"/>
	<path d="M46.6,144.6l0.2,0.2l0.2,0.2l0.2,0.2c4.3,5.4,10.4,9.2,17.4,10.8c-2-2.1-3.9-4.5-4.8-5.9c-3.4-1.1-7.9-3.3-10.1-6.4
		c0,0-2.1,0.3-3.3,0.4l0.2,0.3L46.6,144.6z"/>
	<path d="M71,156.7c1.7,0,3.3-0.1,5-0.4c1.3-1.5,4.2-4.9,4.9-6.5c-2-1.9-3.9-3.9-5.4-6.4c-1.5,0.3-2.2,0.3-4.5,0.4
		c-2.3-0.1-3-0.1-4.5-0.4c-1.7,2.8-3.4,4.6-5.4,6.4c0.8,1.5,3.6,4.9,4.9,6.5C67.7,156.6,69.3,156.7,71,156.7z"/>
	<path d="M59.9,148.8l0.4-0.2c1.1-1,3.1-3.1,4.7-5.9c-2.1-1.9-4.4-5-6.2-8.9c-3.2,0.2-7.2,0.2-9.3,0.2c-1.2,3.7-0.7,6.1,1.2,9.1
		C52.8,146.1,56.8,147.9,59.9,148.8z"/>
	<path d="M107.2,141.6c0,0.1-0.1,0.2-0.1,0.2c0,0-0.1,0-0.1,0c0,0-0.1,0-0.3-0.1l-2.6-1.2c-0.1-0.1-0.2-0.1-0.2-0.1
		c0,0-0.1-0.1-0.1-0.1c0-0.1,0-0.1,0.1-0.3l0.1-0.2l-0.6-0.3l-1.1,2.3l0.6,0.3l0.1-0.2c0.1-0.1,0.1-0.2,0.1-0.2c0,0,0.1,0,0.2,0
		c0.1,0,0.2,0,0.3,0.1l2.6,1.2c0.1,0.1,0.2,0.1,0.2,0.1c0,0,0,0.1,0.1,0.1c0,0,0,0.1-0.1,0.3l-0.1,0.2l0.6,0.3l1.1-2.3l-0.6-0.3
		L107.2,141.6z"/>
	<path d="M109.5,125.6l-0.4,0.6c0.3,0.2,0.6,0.5,0.8,0.9c0.2,0.3,0.2,0.5,0.2,0.8c0,0.5-0.2,0.8-0.6,1.1c-0.4,0.3-0.8,0.4-1.4,0.4
		c-0.3,0-0.6-0.1-0.9-0.2c-0.3-0.1-0.5-0.3-0.6-0.5c-0.1-0.2-0.2-0.4-0.2-0.7c0-0.3,0.1-0.6,0.4-0.9c0.2-0.2,0.5-0.4,0.9-0.6
		l-0.2-0.7l-1.8,0.5v0.5l0.2,0.1c-0.2,0.4-0.3,0.8-0.3,1.3c0,0.5,0.1,0.9,0.3,1.3c0.2,0.4,0.5,0.7,0.9,0.9c0.4,0.2,0.8,0.3,1.3,0.3
		c0.5,0,0.9-0.1,1.4-0.3c0.4-0.2,0.7-0.5,1-0.9c0.2-0.4,0.3-0.8,0.3-1.3c0-0.6-0.2-1.1-0.5-1.6C110.4,126.3,110.1,126,109.5,125.6z"
		/>
	<path d="M107.9,119.7c-0.8,0.1-1.4,0.4-1.8,1c-0.4,0.6-0.6,1.2-0.5,2.1c0.1,0.8,0.4,1.5,1,1.9c0.6,0.4,1.2,0.6,2,0.5
		c0.8-0.1,1.5-0.5,1.9-1.1c0.4-0.5,0.5-1.2,0.4-1.9c-0.1-0.6-0.2-1-0.5-1.4c-0.3-0.4-0.6-0.7-1-0.8
		C108.9,119.7,108.4,119.6,107.9,119.7z M110.1,122.2c0,0.4-0.1,0.7-0.3,1c-0.3,0.3-0.7,0.5-1.3,0.6c-0.6,0.1-1.1,0-1.5-0.3
		c-0.3-0.2-0.5-0.5-0.6-0.9c0-0.2,0-0.5,0.1-0.7c0.1-0.2,0.3-0.4,0.6-0.5c0.3-0.1,0.6-0.3,1-0.3c0.6-0.1,1.1,0,1.4,0.2
		C109.8,121.5,110,121.8,110.1,122.2z"/>
	<path d="M108.9,115.3c0.3-0.6,0.3-1.2,0.2-2c-0.1-0.6-0.4-1-0.7-1.3c-0.3-0.3-0.7-0.6-1.1-0.7c-0.4-0.1-0.9-0.1-1.4,0
		c-0.8,0.2-1.3,0.6-1.7,1.2c-0.4,0.6-0.4,1.3-0.2,2.1c0.2,0.8,0.6,1.4,1.2,1.8c0.5,0.3,1,0.4,1.5,0.4l0.2,0.7l-0.9,0.2
		c-0.2,0-0.3,0.1-0.3,0c-0.1,0-0.1,0-0.1-0.1c0,0-0.1-0.1-0.1-0.2l-0.1-0.2l-0.7,0.2l0.6,2.4l0.7-0.2l-0.1-0.2c0-0.1,0-0.2,0-0.3
		c0,0,0-0.1,0.1-0.1c0,0,0.2-0.1,0.3-0.1l2.7-0.7c0.1,0,0.2,0,0.3,0c0,0,0.1,0,0.1,0.1c0,0,0.1,0.1,0.1,0.3l0,0.2l0.7-0.2l-0.6-2.4
		l-0.7,0.2l0,0.2c0,0.2,0.1,0.3,0,0.3c0,0.1,0,0.1-0.1,0.1c0,0-0.1,0.1-0.3,0.1l-1.1,0.3l-0.2-0.7
		C108.1,116.3,108.6,115.9,108.9,115.3z M108.1,114.5c-0.3,0.3-0.7,0.6-1.2,0.7c-0.6,0.1-1.1,0.1-1.5-0.1c-0.3-0.2-0.6-0.4-0.6-0.8
		c-0.1-0.2,0-0.5,0-0.7c0.1-0.2,0.2-0.4,0.5-0.6c0.2-0.2,0.6-0.3,1-0.4c0.6-0.1,1-0.1,1.4,0.1c0.3,0.2,0.6,0.4,0.6,0.8
		C108.4,113.8,108.3,114.2,108.1,114.5z"/>
	<path d="M38.8,111.8c0.2-0.2,0.3-0.4,0.5-0.7l1.2-2.4l-0.6-0.3l-0.1,0.2c-0.1,0.1-0.1,0.2-0.1,0.2c0,0-0.1,0-0.1,0
		c-0.1,0-0.2,0-0.3-0.1l-2.5-1.2c-0.1-0.1-0.2-0.1-0.3-0.2c0,0,0-0.1,0-0.1c0-0.1,0-0.1,0.1-0.3l0.1-0.2l-0.6-0.3l-1.1,2.3l0.6,0.3
		l0.1-0.2c0-0.1,0.1-0.2,0.1-0.2c0,0,0.1,0,0.1,0c0,0,0.1,0,0.2,0.1l0.9,0.4l-0.4,0.8c-0.3,0.5-0.3,1-0.2,1.5
		c0.1,0.4,0.4,0.7,0.8,0.9c0.2,0.1,0.4,0.1,0.6,0.1c0.2,0,0.4,0,0.6-0.1C38.5,112.1,38.6,112,38.8,111.8z M37.6,110.9
		c-0.1-0.1-0.2-0.2-0.3-0.3c-0.1-0.1-0.1-0.2-0.1-0.4c0-0.1,0.1-0.3,0.2-0.6l0.2-0.4l1.3,0.6l-0.2,0.5c-0.1,0.2-0.2,0.4-0.4,0.5
		C38,111,37.8,111,37.6,110.9z"/>
	<path d="M37.5,115.7c0.3-0.8,0.2-1.5-0.1-2.1c-0.3-0.6-0.8-1.1-1.6-1.3c-0.8-0.3-1.5-0.2-2.2,0.2c-0.5,0.3-0.9,0.9-1.2,1.6
		c-0.2,0.5-0.2,1-0.1,1.5c0.1,0.5,0.3,0.9,0.6,1.2c0.3,0.3,0.7,0.6,1.2,0.8c0.7,0.2,1.4,0.2,2-0.1C36.9,117,37.3,116.5,37.5,115.7z
		 M35.6,116.2c-0.3,0-0.6,0-1-0.2c-0.6-0.2-0.9-0.5-1.2-0.8c-0.2-0.3-0.2-0.6-0.1-1c0.1-0.4,0.4-0.6,0.7-0.7c0.4-0.2,0.9-0.1,1.4,0
		c0.6,0.2,1,0.5,1.2,0.9c0.2,0.3,0.2,0.7,0.1,1c-0.1,0.2-0.2,0.4-0.4,0.6C36.2,116.1,35.9,116.2,35.6,116.2z"/>
	<path d="M52.7,156.7l0.2,0.1c0.1,0.1,0.2,0.1,0.2,0.2c0,0,0,0.1,0,0.2c0,0,0,0.1-0.1,0.2l0,0.1l-2.6,0.7l1-1.7
		c0.1-0.1,0.1-0.2,0.2-0.3c0,0,0.1,0,0.1,0c0.1,0,0.1,0,0.2,0.1l0.2,0.1l0.4-0.6l-2.1-1.3l-0.4,0.6l0.2,0.1c0.1,0.1,0.2,0.1,0.2,0.2
		c0,0,0,0.1,0,0.2c0,0.1-0.1,0.2-0.1,0.3l-1.4,2.4c-0.1,0.1-0.1,0.2-0.2,0.2c0,0-0.1,0-0.2,0c-0.1,0-0.2,0-0.3-0.1l-0.1-0.1
		l-0.4,0.6l2.1,1.3l0.4-0.6l-0.1-0.1c-0.1-0.1-0.2-0.1-0.3-0.2c0,0,0-0.1,0-0.2c0,0,0.1-0.1,0.1-0.3l0,0l2.6-0.7l-1,1.7
		c-0.1,0.1-0.2,0.2-0.2,0.3c0,0-0.1,0-0.2,0c-0.1,0-0.2,0-0.3-0.1l-0.1-0.1l-0.4,0.6l2.2,1.3l0.4-0.6l-0.1-0.1
		c-0.1-0.1-0.2-0.2-0.3-0.2c0,0,0-0.1,0-0.1c0-0.1,0.1-0.2,0.1-0.3l1.4-2.4c0.1-0.1,0.2-0.2,0.2-0.3c0,0,0.1,0,0.1,0
		c0.1,0,0.1,0,0.3,0.1l0.2,0.1l0.4-0.6l-2.2-1.3L52.7,156.7z"/>
	<path d="M55.1,154.7c-0.2-0.1-0.3-0.1-0.5,0c-0.1,0-0.3,0.1-0.3,0.3c-0.1,0.1-0.1,0.2,0,0.4c0,0,0,0.1,0.1,0.1c0,0,0.1,0.1,0.1,0.1
		c-0.2,0-0.3,0-0.4-0.1c-0.1,0-0.4-0.1-0.7-0.3c-0.3-0.2-0.5-0.4-0.6-0.5c-0.1-0.1-0.2-0.2-0.3-0.3c0,0,0.1,0,0.1,0c0,0,0.1,0,0.1,0
		c0.1,0,0.2-0.1,0.3-0.2c0.1-0.1,0.1-0.3,0.1-0.4c0-0.2-0.1-0.3-0.3-0.4c-0.1-0.1-0.3-0.1-0.5-0.1c-0.1,0-0.3,0.1-0.4,0.2
		c-0.1,0.1-0.2,0.2-0.2,0.4c0,0.1-0.1,0.3,0,0.5c0.1,0.3,0.2,0.5,0.4,0.8c0.2,0.2,0.5,0.5,0.8,0.7c0.3,0.2,0.7,0.3,1,0.4
		c0.3,0.1,0.6,0.1,0.9,0c0.2-0.1,0.3-0.1,0.4-0.2c0.1-0.1,0.2-0.2,0.2-0.4c0-0.1,0-0.3,0-0.4C55.4,154.9,55.3,154.8,55.1,154.7z"/>
	<path d="M46.7,157.1c0,0,0-0.1,0-0.2c0-0.1,0.1-0.1,0.2-0.3l1.8-2.1c0.1-0.1,0.2-0.2,0.2-0.2c0,0,0.1,0,0.1,0
		c0.1,0,0.1,0.1,0.2,0.2l0.2,0.1l0.5-0.5l-1.9-1.6l-0.5,0.5l0.1,0.1c0.1,0.1,0.2,0.2,0.2,0.2c0,0,0,0.1,0,0.2c0,0-0.1,0.1-0.1,0.2
		l0,0.1L45,154l1.3-1.5c0.1-0.1,0.2-0.2,0.2-0.2c0,0,0.1,0,0.1,0c0.1,0,0.1,0.1,0.2,0.1l0.2,0.2l0.5-0.5l-1.9-1.6l-0.5,0.5l0.2,0.1
		c0.1,0.1,0.2,0.1,0.2,0.2c0,0,0,0.1,0,0.2c0,0.1-0.1,0.1-0.2,0.3l-1.8,2.1c-0.1,0.1-0.2,0.2-0.2,0.2c0,0-0.1,0-0.2,0
		c-0.1,0-0.1-0.1-0.3-0.2l-0.1-0.1l-0.5,0.5l1.9,1.6l0.5-0.5l-0.1-0.1c-0.1-0.1-0.2-0.2-0.2-0.2c0,0,0-0.1,0-0.2
		c0,0,0.1-0.1,0.2-0.3l0,0l2.7-0.3l-1.3,1.5c-0.1,0.1-0.2,0.2-0.2,0.2c0,0-0.1,0-0.2,0c-0.1,0-0.1-0.1-0.3-0.2l-0.1-0.1l-0.5,0.5
		l1.9,1.6l0.5-0.5l-0.1-0.1C46.8,157.2,46.7,157.2,46.7,157.1z"/>
	<path d="M41.8,152.7c0-0.1,0-0.2,0.1-0.4l0.6-2.4l1.6,0.3c0.1,0,0.2,0,0.3,0.1c0.1,0,0.1,0.1,0.2,0.1c0,0,0.1,0.1,0.2,0.2l0,0.1
		l0.6-0.4l-1.4-1.8l-0.6,0.4l0.1,0.2c0.1,0.1,0.1,0.2,0.1,0.2c0,0,0,0.1,0,0.1c0,0,0,0-0.1,0c0,0-0.1,0-0.2,0l-2.2-0.3l1.1-0.9
		c0.1-0.1,0.2-0.1,0.2-0.1c0.1,0,0.1,0,0.2,0c0,0,0.1,0.1,0.2,0.2l0.1,0.1l0.6-0.4l-1.6-2l-0.6,0.4l0.1,0.2c0.1,0.1,0.1,0.2,0.1,0.2
		c0,0.1,0,0.1,0,0.2c0,0-0.1,0.1-0.2,0.2l-2.2,1.7c-0.1,0.1-0.2,0.2-0.3,0.2c-0.1,0-0.1,0-0.2,0c0,0-0.1-0.1-0.2-0.2l-0.1-0.1
		l-0.6,0.4l1.6,2l0.6-0.4l-0.1-0.2c-0.1-0.1-0.1-0.2-0.1-0.2c0,0,0-0.1,0-0.1c0,0,0.1-0.1,0.2-0.2l0.4-0.3l1,0.2l-0.4,1.5
		c0,0.1-0.1,0.2-0.1,0.2c0,0-0.1,0-0.1,0c0,0-0.1-0.1-0.2-0.3l-0.1-0.1l-0.6,0.4l1.6,2l0.6-0.4L42,153
		C41.9,152.8,41.9,152.7,41.8,152.7z"/>
	<path d="M38.8,146.8c-0.4-0.1-0.8-0.2-1.1-0.4c-0.3-0.2-0.5-0.4-0.6-0.6c-0.2-0.4-0.2-0.8,0-1.2c0.2-0.4,0.5-0.8,1-1
		c0.3-0.2,0.6-0.3,0.9-0.3c0.3,0,0.5,0,0.7,0.2c0.2,0.1,0.4,0.3,0.5,0.5c0.2,0.3,0.2,0.6,0.1,1c-0.1,0.3-0.2,0.6-0.5,1l0.5,0.5
		l1.4-1.3l-0.2-0.5l-0.3,0c0-0.4-0.1-0.8-0.3-1.3c-0.2-0.4-0.5-0.8-0.9-1c-0.4-0.2-0.8-0.4-1.3-0.4c-0.5,0-0.9,0.1-1.3,0.3
		c-0.4,0.2-0.8,0.5-1,0.9c-0.3,0.4-0.4,0.8-0.4,1.3c0,0.5,0.1,0.9,0.3,1.3c0.3,0.5,0.7,0.9,1.2,1.2c0.3,0.2,0.8,0.3,1.4,0.4
		L38.8,146.8z"/>
	<path d="M35.3,141.8l2.6-1c0.2-0.1,0.3-0.1,0.3-0.1c0.1,0,0.1,0,0.1,0.1c0,0,0.1,0.1,0.1,0.3l0.1,0.2l0.7-0.3l-0.9-2.3l-0.7,0.3
		l0.1,0.2c0.1,0.2,0.1,0.3,0.1,0.3c0,0.1,0,0.1-0.1,0.1c0,0-0.1,0.1-0.2,0.1l-0.1,0l-2.5-1.1l1.8-0.7c0.1-0.1,0.2-0.1,0.3-0.1
		c0.1,0,0.1,0,0.1,0.1c0,0,0.1,0.1,0.1,0.2l0.1,0.2L38,138l-0.9-2.3l-0.7,0.3l0.1,0.2c0,0.1,0.1,0.2,0.1,0.3c0,0,0,0.1-0.1,0.1
		c0,0-0.1,0.1-0.3,0.2l-2.6,1c-0.1,0.1-0.2,0.1-0.3,0.1c0,0-0.1,0-0.1-0.1c0,0-0.1-0.1-0.1-0.3l-0.1-0.2l-0.7,0.3l0.9,2.3l0.7-0.3
		l-0.1-0.2c-0.1-0.1-0.1-0.2-0.1-0.3c0-0.1,0-0.1,0.1-0.2c0,0,0.1-0.1,0.3-0.1l0,0l2.5,1.1l-1.8,0.7c-0.2,0.1-0.3,0.1-0.3,0.1
		c0,0-0.1,0-0.1-0.1c0,0-0.1-0.1-0.1-0.3l-0.1-0.2l-0.7,0.3l0.9,2.3l0.7-0.3l-0.1-0.1c-0.1-0.2-0.1-0.3-0.1-0.3c0-0.1,0-0.1,0.1-0.1
		C35,141.9,35.1,141.9,35.3,141.8z"/>
	<path d="M39,139.1c0.2,0.3,0.4,0.5,0.7,0.6c0.2,0.1,0.3,0.1,0.5,0.1c0.1,0,0.3-0.1,0.4-0.2c0.1-0.1,0.2-0.2,0.2-0.3
		c0.1-0.2,0.1-0.3,0-0.5c-0.1-0.2-0.2-0.3-0.4-0.3c-0.1-0.1-0.3-0.1-0.4,0c-0.1,0.1-0.2,0.1-0.3,0.3c0,0,0,0.1,0,0.1
		c0,0,0,0.1,0,0.1c-0.1-0.1-0.2-0.2-0.3-0.3c-0.1-0.1-0.2-0.3-0.4-0.7c-0.1-0.4-0.2-0.7-0.2-0.8c0-0.1,0-0.3,0-0.4
		c0,0,0,0.1,0.1,0.1c0,0,0.1,0.1,0.1,0.1c0.1,0.1,0.2,0.1,0.4,0c0.1,0,0.2-0.1,0.3-0.3c0.1-0.2,0.1-0.3,0-0.5
		c-0.1-0.2-0.2-0.3-0.3-0.4c-0.1-0.1-0.2-0.1-0.4-0.1c-0.1,0-0.3,0.1-0.4,0.1c-0.1,0.1-0.2,0.2-0.3,0.4c-0.1,0.3-0.2,0.5-0.1,0.9
		c0,0.3,0.1,0.7,0.3,1C38.6,138.5,38.8,138.9,39,139.1z"/>
	<path d="M32.6,135.6c0-0.2,0-0.3,0-0.3c0,0,0-0.1,0.1-0.1c0,0,0.2-0.1,0.3-0.1l2.7-0.5c0.2,0,0.3,0,0.3,0c0,0,0.1,0,0.1,0.1
		c0,0,0.1,0.1,0.1,0.3l0,0.2L37,135l-0.4-2.5l-0.7,0.1l0,0.2c0,0.2,0,0.3,0,0.3c0,0,0,0.1-0.1,0.1c0,0-0.1,0-0.2,0.1l-0.1,0
		l-2.2-1.5l1.9-0.3c0.2,0,0.3,0,0.3,0c0.1,0,0.1,0,0.1,0.1c0,0,0.1,0.1,0.1,0.2l0,0.2l0.7-0.1l-0.4-2.5l-0.7,0.1l0,0.2
		c0,0.1,0,0.2,0,0.3c0,0-0.1,0.1-0.1,0.1c0,0-0.2,0.1-0.3,0.1l-2.7,0.5c-0.1,0-0.2,0-0.3,0c0,0-0.1,0-0.1-0.1c0-0.1-0.1-0.1-0.1-0.3
		l0-0.2l-0.7,0.1l0.4,2.5l0.7-0.1l0-0.2c0-0.2,0-0.3,0-0.3c0-0.1,0-0.1,0.1-0.1c0,0,0.1,0,0.3-0.1l0.1,0l2.2,1.5l-2,0.3
		c-0.2,0-0.3,0-0.3,0c0,0-0.1,0-0.1-0.1c0-0.1-0.1-0.2-0.1-0.3l0-0.2l-0.7,0.1l0.4,2.5l0.7-0.1L32.6,135.6z"/>
	<path d="M32.2,129.2l0.4-0.6c-0.3-0.2-0.6-0.5-0.8-0.9c-0.2-0.3-0.2-0.5-0.2-0.8c0-0.5,0.2-0.8,0.6-1.1c0.4-0.3,0.8-0.4,1.4-0.4
		c0.3,0,0.6,0.1,0.9,0.2c0.3,0.1,0.5,0.3,0.6,0.5c0.1,0.2,0.2,0.4,0.2,0.7c0,0.3-0.1,0.6-0.4,0.9c-0.2,0.2-0.5,0.4-0.9,0.6L34,129
		l1.8-0.5V128l-0.2-0.1c0.2-0.4,0.3-0.8,0.3-1.3c0-0.5-0.1-0.9-0.3-1.3c-0.2-0.4-0.5-0.7-0.9-0.9c-0.4-0.2-0.8-0.3-1.3-0.3
		c-0.5,0-0.9,0.1-1.4,0.3c-0.4,0.2-0.7,0.5-1,0.9c-0.2,0.4-0.3,0.8-0.3,1.3c0,0.6,0.2,1.1,0.5,1.6C31.3,128.5,31.7,128.8,32.2,129.2
		z"/>
	<path d="M36.1,119.8c-0.2-0.4-0.4-0.8-0.8-1.1c-0.4-0.3-0.8-0.5-1.3-0.6c-0.5-0.1-1,0-1.4,0.1c-0.5,0.2-0.8,0.4-1.1,0.8
		c-0.3,0.3-0.5,0.8-0.6,1.2c-0.1,0.6,0,1.1,0.2,1.6c0.1,0.3,0.4,0.7,0.9,1.2l0.5-0.5c-0.3-0.3-0.5-0.6-0.7-1
		c-0.1-0.3-0.2-0.6-0.1-0.9c0.1-0.4,0.3-0.8,0.7-1c0.4-0.2,0.9-0.3,1.4-0.2c0.3,0.1,0.6,0.2,0.9,0.3c0.2,0.2,0.4,0.4,0.5,0.6
		c0.1,0.2,0.1,0.5,0.1,0.7c-0.1,0.3-0.2,0.6-0.5,0.8c-0.2,0.2-0.6,0.3-1,0.5l0.1,0.7l1.9-0.2l0.1-0.5l-0.2-0.2
		c0.3-0.3,0.4-0.7,0.5-1.2C36.3,120.7,36.3,120.3,36.1,119.8z"/>
	<path d="M97.7,153.8c-0.3-0.3-0.7-0.5-1.1-0.5c-0.4,0-0.9,0.2-1.4,0.6l-0.7,0.6l-0.6-0.7c-0.1-0.1-0.1-0.2-0.1-0.2c0,0,0-0.1,0-0.1
		c0,0,0.1-0.1,0.2-0.2l0.2-0.2l-0.5-0.5l-1.9,1.6l0.5,0.5l0.1-0.1c0.1-0.1,0.2-0.2,0.3-0.2c0.1,0,0.1,0,0.1,0c0,0,0.1,0.1,0.2,0.2
		l1.8,2.2c0.1,0.1,0.2,0.2,0.2,0.3c0,0.1,0,0.1,0,0.1c0,0-0.1,0.1-0.2,0.2l-0.2,0.2l0.5,0.5l2.1-1.7c0.3-0.2,0.5-0.4,0.6-0.6
		c0.1-0.2,0.2-0.4,0.2-0.6c0-0.2,0-0.4,0-0.6C98,154.1,97.9,154,97.7,153.8z M96.8,155.3c0,0.2-0.2,0.3-0.4,0.5l-0.4,0.4l-0.9-1.1
		l0.3-0.3c0.2-0.2,0.4-0.3,0.5-0.3c0.1,0,0.3,0,0.4,0c0.1,0,0.2,0.1,0.3,0.2C96.8,154.8,96.9,155,96.8,155.3z"/>
	<path d="M105.6,144.6c-0.1-0.2-0.3-0.3-0.4-0.5c-0.4-0.2-0.8-0.3-1.2-0.2c-0.4,0.1-0.8,0.4-1.2,0.9l-0.5,0.7l-0.8-0.5
		c-0.1-0.1-0.2-0.1-0.2-0.1c0,0,0-0.1,0-0.1c0-0.1,0-0.1,0.1-0.2l0.1-0.2l-0.6-0.4l-1.4,2.1l0.6,0.4l0.1-0.1
		c0.1-0.1,0.2-0.2,0.2-0.2c0,0,0.1,0,0.1,0c0.1,0,0.1,0.1,0.3,0.1l2.3,1.6c0.1,0.1,0.2,0.2,0.2,0.2c0,0,0,0.1,0,0.1
		c0,0,0,0.1-0.1,0.2l-0.1,0.2l0.6,0.4l1.5-2.2c0.2-0.3,0.3-0.5,0.4-0.8c0.1-0.2,0.1-0.4,0.1-0.7C105.7,145,105.7,144.8,105.6,144.6z
		 M104.5,146.4l-0.3,0.5l-1.2-0.8l0.2-0.4c0.2-0.2,0.3-0.4,0.4-0.4c0.1-0.1,0.2-0.1,0.4-0.1c0.1,0,0.3,0,0.4,0.1
		c0.2,0.1,0.3,0.3,0.3,0.5C104.7,146,104.6,146.2,104.5,146.4z"/>
	<path d="M61.9,161.1l-0.7-0.2l0,0c0-0.1,0.1-0.2,0.1-0.3c0,0,0.1-0.1,0.1-0.1c0,0,0.1,0,0.3,0l0.2,0.1l0.2-0.7l-2.4-0.8l-0.2,0.7
		l0.2,0.1c0.1,0,0.2,0.1,0.2,0.1c0,0,0.1,0.1,0.1,0.1c0,0.1,0,0.2-0.1,0.3l-0.7-0.2c-0.6-0.2-1-0.2-1.5,0c-0.4,0.2-0.7,0.4-0.8,0.8
		c-0.1,0.2-0.1,0.4,0,0.6c0,0.2,0.1,0.4,0.2,0.6c0.1,0.2,0.3,0.3,0.5,0.4c0.2,0.1,0.5,0.2,0.8,0.3l0.7,0.2l0,0
		c0,0.1-0.1,0.2-0.1,0.2c0,0-0.1,0.1-0.1,0.1c0,0-0.1,0-0.3-0.1l-0.2-0.1l-0.2,0.7l2.4,0.8l0.2-0.7l-0.3-0.1c-0.1,0-0.2-0.1-0.2-0.1
		c0,0-0.1-0.1-0.1-0.1c0,0,0-0.1,0.1-0.3l0.7,0.2c0.3,0.1,0.6,0.2,0.8,0.2c0.2,0,0.5,0,0.6-0.1c0.2-0.1,0.4-0.2,0.5-0.3
		c0.1-0.1,0.2-0.3,0.3-0.5c0.1-0.4,0.1-0.7-0.2-1.1C62.9,161.6,62.5,161.3,61.9,161.1z M59.4,162.5l-0.4-0.1
		c-0.3-0.1-0.4-0.2-0.5-0.3c-0.1-0.2-0.2-0.4-0.1-0.6c0-0.1,0.1-0.2,0.2-0.3c0.1-0.1,0.2-0.1,0.4-0.1c0.1,0,0.3,0,0.6,0.1l0.3,0.1
		L59.4,162.5z M62.1,162.6c-0.1,0.2-0.2,0.3-0.4,0.4c-0.2,0-0.4,0-0.6,0l-0.4-0.1l0.4-1.3l0.3,0.1c0.3,0.1,0.4,0.2,0.5,0.2
		c0.1,0.1,0.2,0.2,0.2,0.3C62.1,162.4,62.1,162.5,62.1,162.6z"/>
	<path d="M109.4,134.8c-0.1,0.2-0.1,0.3-0.1,0.3c0,0-0.1,0.1-0.1,0.1c-0.1,0-0.2,0-0.3-0.1l-2.6-0.9c-0.2-0.1-0.3-0.1-0.3-0.1
		c0,0-0.1-0.1-0.1-0.1c0-0.1,0-0.1,0.1-0.3l0.1-0.2l-0.7-0.2l-0.8,2.4l0.7,0.2l0.1-0.2c0-0.2,0.1-0.2,0.1-0.3c0,0,0.1-0.1,0.1-0.1
		c0,0,0.1,0,0.2,0.1l0.1,0l1.3,2.4l-1.8-0.6c-0.2,0-0.2-0.1-0.3-0.1c0,0-0.1-0.1-0.1-0.1c0-0.1,0-0.1,0-0.3l0.1-0.2l-0.7-0.2
		l-0.8,2.4l0.7,0.2l0.1-0.2c0-0.1,0.1-0.2,0.1-0.2c0,0,0.1-0.1,0.1-0.1c0.1,0,0.2,0,0.3,0.1l2.7,0.9c0.1,0,0.2,0.1,0.3,0.1
		c0,0,0.1,0.1,0.1,0.1c0,0.1,0,0.2-0.1,0.3l-0.1,0.2l0.7,0.2l0.8-2.4l-0.7-0.2l-0.1,0.2c0,0.1-0.1,0.2-0.1,0.3c0,0-0.1,0.1-0.2,0.1
		c0,0-0.1,0-0.3-0.1l0,0l-1.3-2.4l1.9,0.6c0.2,0.1,0.3,0.1,0.3,0.1c0,0,0.1,0.1,0.1,0.1c0,0.1,0,0.2-0.1,0.3l-0.1,0.2l0.7,0.2
		l0.8-2.4l-0.7-0.2L109.4,134.8z"/>
	<path d="M102.9,136.5c-0.1-0.1-0.1-0.2-0.3-0.2c-0.1,0-0.3,0-0.4,0c-0.2,0.1-0.3,0.2-0.3,0.4c-0.1,0.2-0.1,0.3,0,0.5
		c0.1,0.1,0.1,0.2,0.3,0.3c0.1,0.1,0.2,0.1,0.4,0.1c0.1,0,0.3,0,0.5-0.1c0.3-0.1,0.5-0.3,0.7-0.6c0.2-0.3,0.3-0.6,0.5-1
		c0.1-0.4,0.2-0.8,0.2-1.1c0-0.3,0-0.6-0.2-0.9c-0.1-0.1-0.2-0.3-0.3-0.3c-0.1-0.1-0.3-0.1-0.4-0.1c-0.1,0-0.3,0-0.4,0.1
		c-0.2,0.1-0.3,0.2-0.3,0.4c0,0.2,0,0.3,0.1,0.5c0.1,0.1,0.2,0.2,0.3,0.3c0.1,0,0.3,0,0.4,0c0,0,0.1-0.1,0.1-0.1
		c0,0,0.1-0.1,0.1-0.1c0,0.2,0,0.3,0,0.4c0,0.1,0,0.4-0.2,0.8c-0.1,0.4-0.3,0.6-0.3,0.7c-0.1,0.1-0.2,0.2-0.3,0.3c0-0.1,0-0.1,0-0.1
		C102.9,136.6,102.9,136.5,102.9,136.5z"/>
	<path d="M102.6,149.7c-0.1,0.1-0.2,0.2-0.2,0.2c0,0-0.1,0-0.2,0c-0.1,0-0.1-0.1-0.3-0.2l-2.1-1.9c-0.1-0.1-0.2-0.2-0.2-0.2
		c0,0,0-0.1,0-0.1c0-0.1,0.1-0.1,0.2-0.2l0.1-0.2l-0.5-0.5l-1.7,1.9l0.5,0.5l0.1-0.1c0.1-0.1,0.2-0.2,0.2-0.2c0,0,0.1,0,0.2,0
		c0,0,0.1,0.1,0.2,0.1l0.7,0.6l-1.3,1.4l-0.7-0.6c-0.1-0.1-0.2-0.2-0.2-0.2c0,0,0-0.1,0-0.1c0-0.1,0.1-0.1,0.1-0.2l0.2-0.2l-0.5-0.5
		l-1.7,1.9l0.5,0.5l0.2-0.2c0.1-0.1,0.2-0.2,0.2-0.2c0,0,0.1,0,0.2,0c0.1,0,0.1,0.1,0.3,0.2L99,153c0.1,0.1,0.2,0.2,0.2,0.2
		c0,0,0,0.1,0,0.2c0,0.1-0.1,0.1-0.2,0.2l-0.1,0.1l0.5,0.5l1.7-1.9l-0.5-0.5l-0.1,0.1c-0.1,0.1-0.2,0.2-0.2,0.2c0,0-0.1,0-0.2,0
		c0,0-0.1-0.1-0.3-0.2l-0.8-0.7l1.3-1.4l0.8,0.7c0.1,0.1,0.2,0.2,0.2,0.2c0,0,0,0.1,0,0.2c0,0.1-0.1,0.1-0.2,0.3l-0.1,0.1l0.5,0.5
		l1.7-1.9l-0.5-0.5L102.6,149.7z"/>
	<path d="M93.1,158.7c-0.1,0.1-0.2,0.1-0.2,0.1c0,0-0.1,0-0.1,0c0,0-0.1-0.1-0.2-0.2l-1.5-2.4c-0.1-0.1-0.1-0.2-0.1-0.3
		c0-0.1,0-0.1,0-0.1c0,0,0.1-0.1,0.2-0.2l0.2-0.1l-0.4-0.6l-4,2.4l0.4,0.6l0.2-0.1c0.1-0.1,0.2-0.1,0.2-0.1c0.1,0,0.1,0,0.2,0.1
		c0,0,0.1,0.1,0.1,0.2l1.1,1.8c0.2,0.3,0.3,0.4,0.3,0.5c0.1,0.2,0.1,0.3,0,0.5c-0.1,0.2-0.2,0.3-0.3,0.4c-0.1,0.1-0.5,0.3-0.6,0.3
		c-0.1,0-0.2,0-0.3-0.1c-0.1-0.1-0.2-0.2-0.3-0.3l-0.1-0.2c-0.1-0.1-0.1-0.2-0.2-0.2c-0.1-0.1-0.3-0.1-0.5-0.1
		c-0.2,0.1-0.2,0.2-0.3,0.4c0,0.1,0.1,0.4,0.2,0.6c0.1,0.2,0.4,0.4,0.6,0.5c0.3,0.1,0.5,0.2,0.8,0.2c0.3,0,0.5-0.1,0.9-0.3
		c0.3-0.2,0.5-0.4,0.7-0.6c0.2-0.2,0.3-0.5,0.3-0.8c0-0.3,0-0.5,0-0.7c0-0.1-0.2-0.4-0.3-0.6l-1.1-1.8c-0.1-0.1-0.1-0.3-0.1-0.3
		c0-0.1,0-0.1,0-0.1c0,0,0.1-0.1,0.2-0.2l0.3-0.2c0.1-0.1,0.2-0.1,0.2-0.1c0.1,0,0.1,0,0.1,0c0,0,0.1,0.1,0.2,0.3l1.5,2.4
		c0.1,0.1,0.1,0.2,0.1,0.3c0,0,0,0.1,0,0.1c0,0-0.1,0.1-0.2,0.2l-0.2,0.1l0.4,0.6l2.1-1.3l-0.4-0.6L93.1,158.7z"/>
	<path d="M84.5,158.8c-0.7-0.3-1.4-0.3-2.1,0c-0.8,0.3-1.3,0.8-1.6,1.4c-0.3,0.7-0.3,1.3,0,2.1c0.3,0.8,0.8,1.3,1.6,1.6
		c0.6,0.2,1.3,0.2,2-0.1c0.5-0.2,1-0.5,1.2-0.8c0.3-0.4,0.5-0.8,0.5-1.2c0.1-0.5,0-0.9-0.2-1.4C85.6,159.6,85.2,159.1,84.5,158.8z
		 M84.7,162.3c-0.1,0.4-0.3,0.6-0.7,0.7c-0.4,0.1-0.7,0.1-1-0.1c-0.4-0.2-0.7-0.6-0.9-1.1c-0.2-0.5-0.3-1-0.1-1.5
		c0.1-0.4,0.3-0.6,0.7-0.7c0.2-0.1,0.4-0.1,0.7,0c0.2,0.1,0.5,0.2,0.7,0.4c0.2,0.2,0.4,0.5,0.5,0.9
		C84.8,161.4,84.9,161.9,84.7,162.3z"/>
	<path d="M79.2,162.6c-0.4-0.2-0.9-0.3-1.5-0.2l-0.9,0.1l-0.2-0.9c0-0.1,0-0.2,0-0.2c0,0,0-0.1,0.1-0.1c0,0,0.5-0.1,0.6-0.1l0.1,0
		c0.1,0,0.3,0,0.4,0.1c0.2,0.1,0.4,0.2,0.5,0.3c0.1,0.1,0.2,0.3,0.4,0.5l0.6-0.3l-0.9-1.7l-0.5,0.1l0,0.2l-3.4,0.6l0.1,0.7l0.2,0
		c0.1,0,0.3,0,0.3,0c0.1,0,0.1,0,0.1,0.1c0,0,0.1,0.1,0.1,0.3l0.5,2.8c0,0.2,0,0.3,0,0.3c0,0.1,0,0.1-0.1,0.1c0,0-0.1,0.1-0.2,0.1
		l-0.2,0l0.1,0.7l2.7-0.5c0.3-0.1,0.6-0.1,0.8-0.2c0.2-0.1,0.4-0.2,0.5-0.4c0.1-0.2,0.2-0.4,0.3-0.6c0.1-0.2,0.1-0.4,0-0.6
		C79.8,163.1,79.6,162.8,79.2,162.6z M78.4,164.4c-0.1,0.1-0.3,0.2-0.6,0.3l-0.6,0.1l-0.2-1.4l0.4-0.1c0.3,0,0.5-0.1,0.6,0
		c0.1,0,0.2,0.1,0.3,0.2c0.1,0.1,0.2,0.2,0.2,0.4C78.6,164,78.6,164.2,78.4,164.4z"/>
	<path d="M73,160.9L73,161l-2.9,0.1l-0.1-0.2l-0.5,0l-0.6,1.8l0.7,0.2c0.2-0.3,0.3-0.5,0.3-0.6c0.1-0.2,0.3-0.3,0.4-0.4
		c0.2-0.1,0.3-0.2,0.4-0.2c0.1,0,0.1,0,0.1,0c0,0,0,0.1,0,0.2l0.1,3c0,0.2,0,0.3,0,0.3c0,0.1-0.1,0.1-0.1,0.1c0,0-0.2,0-0.3,0
		l-0.2,0l0,0.7l2.5-0.1l0-0.7c-0.2,0-0.4,0-0.4,0c-0.1,0-0.1,0-0.1,0c0,0-0.1-0.1-0.1-0.1c0,0,0-0.2,0-0.3l-0.1-3c0-0.1,0-0.2,0-0.2
		c0,0,0.1,0,0.1,0c0.1,0,0.3,0,0.4,0.1c0.2,0.1,0.3,0.2,0.5,0.4c0.1,0.1,0.2,0.3,0.3,0.6l0.7-0.3l-0.7-1.8L73,160.9z"/>
	<path d="M66.6,161.5l0.2,0c0.1,0,0.2,0,0.2,0.1c0,0,0,0.1,0,0.1c0,0,0,0.1-0.1,0.2l-0.7,1.2l-0.4-1.4c0-0.1-0.1-0.2,0-0.2
		c0,0,0-0.1,0.1-0.1c0,0,0.1,0,0.3,0l0.1,0l0.1-0.7l-2.3-0.3l-0.1,0.7c0.2,0,0.3,0,0.3,0.1c0,0,0.1,0,0.1,0.1c0,0,0.1,0.1,0.1,0.3
		l0.9,2.8l-0.2,0.3c-0.1,0.2-0.2,0.3-0.3,0.4c-0.1,0-0.1,0.1-0.2,0.1c0,0,0,0-0.1,0c0,0,0,0-0.1-0.1c-0.1-0.1-0.1-0.1-0.2-0.2
		c-0.1-0.1-0.2-0.1-0.3-0.1c-0.1,0-0.3,0-0.4,0.1c-0.1,0.1-0.2,0.2-0.2,0.4c0,0.2,0,0.4,0.2,0.5c0.2,0.2,0.4,0.3,0.6,0.3
		c0.3,0,0.5,0,0.8-0.1c0.2-0.1,0.4-0.3,0.7-0.7L68,162c0.1-0.1,0.1-0.2,0.2-0.2c0,0,0.1,0,0.1,0c0,0,0.1,0,0.3,0l0.1-0.7l-2-0.2
		L66.6,161.5z"/>
	<path d="M106.1,106.9c-0.3-0.2-0.6-0.4-0.9-0.4c-0.3,0-0.6,0-0.8,0.1c-0.1,0.1-0.3,0.2-0.4,0.3c-0.1,0.1-0.2,0.2-0.2,0.4
		c-0.1,0.1-0.1,0.3-0.1,0.5c0,0.2,0,0.3,0.1,0.5c-0.2-0.1-0.3-0.3-0.4-0.3c-0.2-0.1-0.4-0.1-0.5-0.1c-0.2,0-0.4,0-0.5,0.1
		c-0.2,0.1-0.4,0.3-0.5,0.5c-0.1,0.2-0.2,0.5-0.2,0.8c0,0.3,0.1,0.7,0.3,1c0.2,0.4,0.4,0.6,0.8,0.9l-0.1,0.2l0.2,0.5l1.9-0.4
		l-0.1-0.7c-0.5,0-0.7,0-1-0.1c-0.3-0.1-0.6-0.4-0.7-0.7c-0.1-0.3-0.1-0.5-0.1-0.7c0-0.2,0.2-0.3,0.3-0.4c0.1-0.1,0.2-0.1,0.4-0.1
		c0.1,0,0.2,0.1,0.3,0.2c0.1,0.1,0.2,0.3,0.3,0.5l0.1,0.2l0.6-0.3l-0.1-0.2c-0.2-0.3-0.2-0.6-0.2-0.8c0-0.3,0.2-0.5,0.4-0.6
		c0.1-0.1,0.3-0.1,0.4-0.1c0.1,0,0.3,0.1,0.4,0.2c0.1,0.1,0.2,0.2,0.3,0.4c0.1,0.1,0.1,0.3,0.1,0.4c0,0.1,0,0.3,0,0.3
		c0,0.1-0.1,0.2-0.3,0.4c-0.1,0.1-0.2,0.2-0.2,0.3c0,0.2,0,0.3,0,0.5c0.1,0.2,0.2,0.3,0.3,0.3c0.2,0.1,0.3,0,0.5,0
		c0.2-0.1,0.4-0.3,0.5-0.5c0.1-0.2,0.2-0.5,0.2-0.9c0-0.4-0.1-0.7-0.3-1.1C106.6,107.4,106.3,107.1,106.1,106.9z"/>
	<path d="M78.3,66.4L78.3,66.4l-0.2,0.3L78,66.8L77.9,67l-0.1,0.2l-0.1,0.2l-0.1,0.3L77.4,68l-0.1,0.3l-0.1,0.3l-0.1,0.3L77.1,69
		l0,0.3l0,0.3l0,0.2l0.1,0.2c0.3,1.1,1.5,2.7,1.9,3.4c0,0,1-2,1.2-2.9C80.4,69.7,80.3,68.2,78.3,66.4z"/>
	<path d="M81,56.4l-0.2-0.2l-0.1-0.2l-0.2-0.2l-0.2-0.3l-0.2-0.3L80,55.1l-0.2-0.3l-0.3-0.4l-0.2-0.3l-0.2-0.3L79,53.6l-0.1-0.2
		l-0.1-0.2L78.7,53c-0.6,1.1-2,2.4-2.4,3.3c-0.2,0.4-0.2,1.4,0.2,2.5c0.4,0.9,1.5,2.9,1.5,2.9c0.5-0.5,1.5-1.4,2.2-2.8
		C80.9,57.5,81.1,56.5,81,56.4z"/>
	<path d="M79.3,76.6c0.4-0.9,0.2-1.6-0.2-2c-0.4-0.5-1.4-1.6-1.8-2.3l-0.1,0.2l-0.1,0.2l-0.1,0.2L77,73l-0.1,0.2l-0.1,0.2l-0.1,0.2
		l-0.1,0.2l-0.2,0.3l-0.1,0.2l-0.1,0.2l-0.1,0.2l-0.1,0.2l-0.1,0.2c-0.2,0.9,0.1,2,1.7,3.2C77.9,78.4,78.9,77.6,79.3,76.6z"/>
	<path d="M73.9,76.3l0,0.3l0.1,0.3l0.1,0.3l0.1,0.3l0.1,0.3l0.1,0.3l0.1,0.4l0.1,0.3l0.1,0.3l0.1,0.3l0.1,0.3l0.1,0.3
		c1,1.8,2.5,3.2,3.9,3.2c1.2,0,1.5-0.7,2.1-1c0,0-0.3-1.6-1.7-2c-1.7-0.5-4.3-2.5-5.3-4.4v0.2l0,0.2L73.9,76.3z"/>
	<path d="M70.9,82.7l0.1-0.2l0.1-0.3l0.1-0.3l0.2-0.3l0.1-0.2l0.1-0.2l0.1-0.2l0.1-0.2l0.1-0.2l0.1-0.2l0.1-0.2L72,80l0.1-0.2
		l0.1-0.3l0.1-0.2l0.1-0.3l0.1-0.3l0.1-0.3l0.1-0.3l0.1-0.3l0-0.3l0.1-0.3l0.1-0.3l0-0.3l0-0.3l0-0.3v-0.3c0.1-1.5-1.3-3.8-2.1-4.7
		c-0.7,0.9-2,3.2-2,4.7c0.1,2.9,2,5.7,2,6.6L70.9,82.7z"/>
	<path d="M74.6,75.6c0.2-1.2,1.5-2.5,1.6-4.5v-0.2l-0.1-0.3l0-0.2l0-0.2L75.9,70l-0.1-0.2l-0.1-0.2l-0.1-0.2l-0.1-0.2l-0.1-0.2
		l-0.1-0.2l-0.1-0.2l-0.1-0.2L75,68.3l-0.1-0.2l-0.2-0.3l-0.2-0.3l-0.2-0.3L74.1,67L74,66.9l-0.2-0.2c-1.3,1.2-1.6,2-1.8,3.3
		c-0.2,1.2,0.3,2.2,0.8,3.3C73.4,74.2,74.6,75.6,74.6,75.6z"/>
	<path d="M85.1,24.5l-0.2,0.1l-0.2,0.1l-0.2,0.1l-0.2,0.1l-0.2,0.1L83.8,25l-0.3,0.1l-0.3,0.1l-0.2,0.1l-0.3,0.1l-0.2,0.1l-0.2,0.1
		l-0.2,0.1L82,25.9c-1.2,0.9-2,1.8-1.9,3.5c0,0,1-1.3,2-2c0.8-0.5,2.4-1.8,3.1-2.9L85.1,24.5z"/>
	<path d="M85,27.4l-0.2-0.1l-0.2-0.1l-0.2,0l-0.2-0.1l-0.2-0.1h-0.2c-1.7,1-2.3,1.9-2.6,2.3c-0.5,0.7-1.5,1.3-1.5,1.3
		c0.2,0.3,0.9,2.7,0.8,3.8c0.3-0.5,1.3-2.3,1.6-4c0.2-1.2,0.7-1.9,1.2-2.3c0.7-0.5,2-0.9,1.9-0.9L85,27.4z"/>
	<path d="M79.4,36.4l-0.1,0.2l-0.1,0.2l0,0.2l0,0.2l0,0.2v0.2v0.2V38v0.2v0.2l0,0.2l0,0.2l0,0.2l0.1,0.2l0.1,0.2
		c0.2,0.8,0.7,1.9,1.6,2.5c0.8,0.5,2.8,0.6,3.5-1.2C84.6,40.7,81,41,79.4,36.4z"/>
	<path d="M76.5,46.5c-3.6,2-2.5,5.3-2.4,5.4l0.2,0.2l0.2,0.2l0.2,0.2l0.2,0.2L75,53l0.1,0.2l0.1,0.3l0.1,0.2l0.2,0.3l0.1,0.2
		l0.1,0.2l0.1,0.2l0.1,0.2l0.1,0.2c0.9-1.7,2.9-2.8,2.5-4.6C78,48.5,76.5,46.5,76.5,46.5z"/>
	<path d="M66.2,60.5l-0.1-0.2L66,60.1l-0.1-0.2c-0.4,0.8-1.3,1.7-1.7,2.5c-0.4,0.8-0.5,2.1-0.3,2.9c0.4,1.2,2.1,2.8,2.1,2.8
		c0.5-0.9,1.3-2.1,1.5-2.6c0.2-0.6,0.4-1.3,0.2-2.2l0-0.2l-0.1-0.2l-0.1-0.2l-0.1-0.2l-0.1-0.2L67.2,62l-0.2-0.2l-0.2-0.2l-0.2-0.2
		l-0.1-0.2l-0.2-0.2l-0.2-0.2L66.2,60.5z"/>
	<path d="M79.2,24.8c0,0-1.2,2.7-2.2,3.8c0,0,0,0.6,0.5,1.5c0,0,0.7-1.6,1.9-2.9c0.7-0.7,1.1-1.1,2.5-2.1l-0.2,0l-0.2,0l-0.2,0.1
		l-0.2,0.1L81,25.4l-0.2,0.1l-0.2,0l-0.2,0.1c0,0,0-0.7,0-1C80.1,24.6,79.6,24.7,79.2,24.8z"/>
	<path d="M69.7,69.9c-0.2-1.2-0.5-2-1.8-3.3l-0.1,0.1l-0.2,0.2l-0.2,0.2l-0.2,0.3l-0.2,0.3L66.9,68l-0.1,0.2l-0.1,0.2l-0.1,0.2
		l-0.1,0.2l-0.1,0.2l-0.1,0.2l-0.1,0.2l-0.1,0.2L66,69.6l-0.1,0.2L65.8,70l-0.1,0.2l-0.1,0.2l-0.1,0.3L65.5,71v0.2
		c0.1,2,1.4,3.2,1.5,4.4c0,0,1.3-1.4,1.8-2.4C69.4,72.1,69.8,71.2,69.7,69.9z"/>
	<path d="M68.2,40.2L68,40.4l-0.2,0.2l-0.2,0.2L67.5,41l-0.2,0.2l-0.2,0.3l-0.3,0.4l-0.2,0.3l-0.2,0.2l-0.2,0.2l-0.2,0.2l-0.1,0.2
		L66,43.1c-0.2,0.6-0.6,1.8-0.1,2.6c0.6,0.8,1.8,2.1,2.9,2.7c0,0-1.2-1.9-1.1-3.4c0.1-1,0.8-1.9,1-2.4c0.1-0.6,0-1.6-0.4-2.5
		L68.2,40.2z"/>
	<path d="M68.3,53.7l-0.1-0.3l-0.1-0.2c-1.6,1.4-1.8,4.3-1.6,5.3c0.4,1.9,2.4,3.5,2.4,3.5c0.3-0.9,1.4-2.4,1.4-5l0-0.2l-0.1-0.2
		l-0.1-0.2l-0.1-0.2l-0.2-0.2l-0.2-0.3l-0.2-0.2l-0.2-0.3l-0.2-0.3L69,54.7l-0.2-0.3l-0.2-0.3l-0.2-0.3L68.3,53.7z"/>
	<path d="M70.9,42l0.1-0.1l0.3-0.3l0.2-0.3l0.2-0.3l0.2-0.3l0.2-0.3l0.1-0.2l0.1-0.2l0.1-0.2c0.2-0.5,0.2-1.3-0.2-1.9
		c-0.5-0.7-1.2-1.5-1.3-2.1c0,0.6-0.7,1.4-1.3,2.1c-0.5,0.6-0.4,1.3-0.2,1.9C69.6,40.5,70.2,41.4,70.9,42z"/>
	<path d="M76.8,86.2c0.9,1.1,2.8,4.3,5.8,4.3c0,0-0.4-1.5-1.8-2.3c-1.3-0.9-3-2-3.7-3.3c-0.8-1.3-1.6-1.9-2.1-2.2l0,0.2l0,0.2
		l-0.1,0.2l-0.1,0.2l0,0.2L74.6,84l-0.1,0.2l-0.1,0.2l-0.1,0.2l-0.2,0.3L74.1,85l-0.1,0.2l-0.2,0.4c0,0,1.7,7.8,7.9,8.4
		c0,0-0.1-1.6-2-2.8c-1.8-1.2-4.5-3.2-4.3-6.1C75.4,85,75.9,85.1,76.8,86.2z"/>
	<path d="M75,90.7c0,0-2.6-0.9-2.4-3.2l0-0.2l0-0.2l0-0.2l0-0.2l0-0.2l0-0.2l0.1-0.2l0.1-0.2l0.1-0.2l0.1-0.3l0.1-0.2l0.1-0.3
		l0.2-0.3l0.1-0.3l0.2-0.3l0.1-0.3l0.1-0.3l0.1-0.3l0.1-0.3l0.1-0.2l0-0.2c0.3-1.3,0.2-2.6-0.9-4.1c-0.8,2.8-1.7,4.9-2.5,6.3
		c-0.7-1.4-1.6-3.5-2.4-6.3c-1,1.5-1.1,2.8-0.9,4.1c0.2,1.2,1.5,2.6,1.7,4.8c0.2,2.3-2.4,3.2-2.4,3.2c0.9,0.3,1.9,0.5,3.4-1
		c0.3-0.3,0.5-0.6,0.7-0.9c0.2,0.3,0.4,0.6,0.7,0.9C73.1,91.1,74.1,91,75,90.7z"/>
	<path d="M75.5,42.8l-0.1-0.2l-0.1-0.2l-0.2-0.2L75,42l-0.2-0.3l-0.2-0.2l-0.3-0.4l-0.2-0.2l-0.2-0.2l-0.2-0.2l-0.2-0.3L73.4,40
		C73,41,72.9,42,73,42.6c0.2,0.6,0.9,1.4,1,2.4c0.1,1.5-1.1,3.4-1.1,3.4c1.1-0.6,2.4-1.9,2.9-2.7c0.5-0.8,0.2-2-0.1-2.7L75.5,42.8z"
		/>
	<path d="M69.4,47.4c0.6,0.9,1,1.1,1.5,1.3l0.2-0.1l0.2-0.1l0.2-0.1l0.2-0.1l0.2-0.2l0.2-0.2l0.2-0.2l0.2-0.2l0.1-0.2
		c0.4-0.7,0.9-2,0.6-2.9c-0.3-1.1-0.9-1.6-1.3-2.3c-0.3,0.3-0.5,0.5-0.9,0.7c-0.4-0.2-0.6-0.4-0.9-0.7c-0.4,0.7-1,1.2-1.3,2.3
		C68.5,45.5,68.9,46.8,69.4,47.4z"/>
	<path d="M62,91.1C60.2,92.3,60,94,60,94c6.2-0.6,7.8-8.4,7.8-8.4l-0.1-0.2l-0.1-0.2L67.6,85l-0.2-0.3l-0.1-0.2l-0.1-0.2l-0.1-0.2
		l-0.1-0.3L67,83.6l0-0.2l-0.1-0.2l-0.1-0.2l0-0.2l0-0.2c-0.5,0.3-1.3,0.9-2.1,2.2c-0.8,1.3-2.4,2.4-3.7,3.3
		c-1.3,0.8-1.7,2.3-1.7,2.3c2.9,0,4.9-3.2,5.7-4.3c0.9-1.1,1.4-1.2,1.4-1.2C66.5,87.9,63.8,89.9,62,91.1z"/>
	<path d="M70.9,60.7c-0.2,0.5-1.4,2.2-1.7,2.9c-0.3,0.6-0.3,1.5,0,2.2c0.5,1.3,1.5,2.1,1.8,2.9l0.1-0.2l0.1-0.2l0.2-0.2l0.1-0.2
		l0.2-0.2l0.1-0.2l0.1-0.2l0.2-0.2l0.1-0.2l0.1-0.2l0.1-0.2l0.1-0.2l0.1-0.2l0.1-0.2c0.3-0.7,0.3-1.6-0.1-2.2
		C72.2,62.9,71,61.2,70.9,60.7z"/>
	<path d="M70.9,49.3c-0.9,0.7-2,0.4-2.3,2.1c-0.2,1.1,2.1,3.2,2.3,4.3l0.1-0.2l0.1-0.3l0.2-0.3l0.2-0.3l0.2-0.3l0.2-0.3l0.2-0.3
		l0.2-0.3l0.2-0.3l0.2-0.3l0.2-0.3l0.1-0.3l0.1-0.3l0.1-0.3l0-0.3v-0.2C72.9,49.7,71.7,50,70.9,49.3z"/>
	<path d="M82,25.1C82,25.1,82,25.1,82,25.1L82,25.1L82,25.1z"/>
	<path d="M75.1,61.1L75,61.3l-0.2,0.2l-0.2,0.2L74.5,62l-0.1,0.2l-0.1,0.2l-0.1,0.2l-0.1,0.2L74,63.1l0,0.2c-0.2,0.9,0,1.6,0.2,2.2
		c0.3,0.6,1,1.7,1.5,2.6c0,0,1.7-1.6,2.1-2.8c0.3-0.9,0.2-2.1-0.2-2.9c-0.4-0.8-1.3-1.6-1.8-2.5l-0.1,0.2l-0.1,0.2l-0.1,0.2
		l-0.1,0.2l-0.2,0.2L75.1,61.1z"/>
	<path d="M73.5,53.4l-0.1,0.3l-0.2,0.3l-0.2,0.3l-0.2,0.3l-0.2,0.3l-0.2,0.3l-0.2,0.3l-0.2,0.3l-0.2,0.2l-0.2,0.3l-0.1,0.2l-0.1,0.2
		l-0.1,0.2l-0.1,0.2l0,0.2c0.1,2.6,1.2,4.2,1.4,5c0,0,2.1-1.6,2.4-3.5c0.2-1,0-3.9-1.6-5.3L73.5,53.4z"/>
	<path d="M62.5,80.1c-1.4,0.4-1.7,2-1.7,2c0.6,0.3,0.9,1,2.1,1c1.3,0,2.9-1.4,4-3.3l0.1-0.3l0.1-0.3l0.1-0.3l0.1-0.2l0.1-0.3
		l0.1-0.4l0.1-0.3l0.1-0.5l0.1-0.3l0-0.3l0-0.3l0-0.2l0-0.2l0-0.2v-0.2C66.8,77.6,64.2,79.6,62.5,80.1z"/>
	<path d="M108.6,58.1c-0.6,0.3-1.4,0.5-2.4,0.3c-0.1,0-0.2,0-0.2,0c0.3,0.4,0.5,0.8,0.6,1.2c1.8,1,6.9,3.6,9,7.8c0,0-3.2-1-8.9-7
		v0.2v0.2l0,0.2l-0.1,0.2l0,0.2l-0.1,0.2c0,0.1-0.1,0.2-0.1,0.3c2,1.9,3.4,3.8,6.4,7.8c2.9,4.1,7.6,4.2,7.6,4.2
		c-0.5-3.3-1.4-5.9-3.9-8.7C114.1,62.4,110.9,59.8,108.6,58.1z"/>
	<path d="M36,61.5c3.6,0.5,5.2-2.4,5.6-3.1l-0.1-0.2L41.4,58l-0.1-0.2l-0.1-0.2l-0.1-0.2L41,57.2l0-0.2l-0.1-0.2l-0.1-0.2l0-0.3
		c-1.1,0.4-1.9,0.6-3.5,1.7C35,59.5,36,61.5,36,61.5z"/>
	<path d="M46.7,67.7l-0.1-0.2l-0.2-0.2l-0.1-0.2l-0.2-0.3L46,66.6l-0.2-0.3l-0.2-0.2l-0.1-0.2c-0.2,2.8-1,10.1,1.5,12.5
		c0,0,1.7-1.2,2.3-12c-0.4,0.6-1,1.2-1.3,1.6c0,0,0.4,3.4-0.8,5.8C47.2,73.8,46,72.8,46.7,67.7L46.7,67.7z"/>
	<path d="M44,62.2c0.9-0.7,1.5-1.8,1.8-2.7c0.2-0.9-0.1-1.5-0.4-1.9L45,57.8L44.7,58l-0.2,0.1l-0.2,0.1l-0.2,0.1l-0.2,0.1l-0.2,0.1
		l-0.2,0.1l-0.2,0.1l-0.2,0.1l-0.2,0.1l-0.2,0l-0.3,0c-4,3.7-3.6,5.2-3.6,5.2C40.8,64.3,42.6,63.3,44,62.2z"/>
	<path d="M35.5,57.7c2.4-0.3,4.1-1.4,5.4-3c0-0.2,0.1-0.7,0.3-1L41,53.8l-0.2,0.1l-0.2,0l-0.2,0l-0.2,0l-0.2,0h-0.2l-0.2,0h-0.2
		l-0.3,0h-0.2l-0.3,0l-0.3,0L38,53.8l-0.3-0.1l-0.3-0.1l-0.4-0.1l-0.1-0.4c-1.8,1.5-4,1.7-4.7,3.1C32.2,56.3,33.1,58,35.5,57.7z"/>
	<path d="M38.9,78.1c0,0,2.5-1.2,3.9-3.4c1.4-2.3,1.7-6.9,2.1-11.4c0-0.3,0-0.6,0-0.8c-0.1,0.1-0.2,0.2-0.4,0.3
		c-0.3,0.2-0.6,0.5-0.9,0.8l0,0.2l0,0.2l0,0.2l0,0.2l0,0.3l0,0.3l-0.1,0.3l-0.1,0.3l-0.1,0.4l0,0.4l-0.1,0.4L43.1,67L43,67.4
		l-0.1,0.4l-0.1,0.4l-0.2,0.8l-0.1,0.4l-0.1,0.4l-0.1,0.4l-0.1,0.4L42,71.1l-0.1,0.4l-0.2,0.4l-0.2,0.3l-0.2,0.3l-0.2,0.3l-0.2,0.3
		l-0.2,0.2c-0.7-2.8,0.9-6.3,1.8-9.4c-0.3,0.2-0.6,0.3-0.9,0.4C39.4,68.3,36.5,73.9,38.9,78.1z"/>
	<path d="M49.4,61c-0.1-0.7-0.2-1.1-0.5-1.9l-0.7,0.3L48,59.5l-0.4-0.2l-0.2-0.2L47.2,59L47,58.8l-0.2-0.2c-0.4,0.4-0.8,1.2-1.1,2
		c-0.5,1.5-0.4,3,0,4.2c0.4,1.2,1.7,2.7,1.7,2.7c0.5-0.6,1.3-1.4,1.8-2.9C49.7,63.4,49.5,62,49.4,61z"/>
	<path d="M36.5,90.6c0.7-1.3,1.5-0.9,1.5-0.9c0.3,1.4,2,1.1,2.7,0.2c0.2-0.7,2.6,0.7,2.6,0.7c-2.7-0.3-2.8,0.8-2.7,1.4
		c-1.4-0.6-3.2-0.1-2.3,2.1c-0.9,0.5-0.6,1.7-0.1,2.5c0.2-1.2,0.9-1.5,0.9-1.5c2.2,0.9,2.5-1.2,2.6-1.5c0.4-1.3,3.5-1.1,3.5-1.1
		c-2,0.6-1.5,2.1-1.5,2.1c-3,0-1.9,3.4-1.1,3.2c-0.4,1.5,0.8,2.1,0.8,2.1c-0.4-1.2,0.2-1.8,0.2-1.8c2.5,0.9,2.1-2.3,1.7-2.7
		c0.1-3.5,2.5-3.6,2.5-3.6c0.4-0.2,0.3,2,2.5,0.9c-0.5,0.7,0.6,1.2,0.6,1.2c0.1,0.7-0.7,0.9-0.7,0.9c0.9,0.8,2-0.7,2-0.7
		c2.8-0.3,1.1-4.7-0.8-3.5c-0.4-0.6-0.8-0.6-0.8-0.6c1-1.2,1.7-2.3,2.4-3.1c0.3-0.1,0.8-0.4,1.2-0.3c0.7,0.2,1.2,0.5,1.7,1.6
		l0.2-0.2l0.1-0.2l0-0.2v-0.2l0-0.2L56,86.9c-0.2-0.5-1.2-1-1.8-1.3c-0.5-0.2-1.4-0.5-2.3-0.8c-0.9-0.3-1.8-0.5-2.3-0.7
		c0,0-0.5,0.5-0.7,1.1c-0.1,0.2,0,0.4,0.4,0.5c0.4,0.1,1,0,1.6,0c-0.9,0.9-1.5,1.9-2.3,2.2c-1.4,0.6-2.6-2.1-4.2,0.3
		c-1.4-1.1-1.2,0.2-2.4,0c-2.7-2.5-4.3-0.3-4.3,0.4C36.1,88.5,36.5,90.6,36.5,90.6z"/>
	<path d="M54.5,59.8L54,59.7c-0.1,0-0.7-0.1-1.4-0.5c0.7,0.9,1.4,1.6,1.9,4.2c0.8,3.9,1.5,4,1.5,4c0.5-1.4,1.6-4,2.9-6.5
		c1.3-2.5,0.2-4.6,0.1-4.6l-0.2-0.1l-0.2-0.1L58.4,56l-0.2-0.1L58,55.7l-0.2-0.2l-0.2-0.2l-0.2-0.1c-0.3,0.3-0.9,0.9-2.1,0.9
		c0,0.2,0,0.4,0,0.7c0,0.7-0.1,1.6-0.6,2.5L54.5,59.8z"/>
	<path d="M28,53.9c0,0,1.4,1.2,4,0.7c2.1-0.4,4-1.4,5.1-2.9l0.1-0.2l0.1-0.2l0.1-0.2l0.1-0.3l0.2-0.3l0.1-0.2l0.2-0.2l0.2-0.2
		l0.2-0.2c-1.6-0.3-3-0.3-4.8,0.1C31.3,50.1,29.1,50.6,28,53.9z"/>
	<path d="M124.4,54.6c-2.5-0.8-8.1-1.4-10.3-1.8l0.1,0.2l0.1,0.2c1.9,0.5,4.3,1.3,6.5,2.3c2.1,0.9,4,2.2,4,2.2
		c-4-0.1-7.9-1.7-10.9-3c-0.4,0.3-1.2,0.6-2.4,0.7c1.4,0.4,3.8,1.1,11.2,4.6c7.5,3.5,11.4,2.3,11.4,2.3
		C131.4,57.2,126.9,55.3,124.4,54.6z"/>
	<path d="M116.4,48.1c-0.1,0.1-0.4,0.4-1.1,0.7c2.7,0.3,8.4,0.5,11.4,2c0,0-5.4,0.7-12.6-1.3l-0.3,0.1l-0.3,0.1l-0.3,0.1l-0.3,0.1
		l-0.3,0.1l-0.3,0.1l-0.3,0.1l-0.2,0l-0.2,0c0.5,0.3,1,0.8,1.5,1.3c2.6,0.8,7.1,1.6,14.5,2.1c7.4,0.6,11.3-0.8,11.3-0.8
		c-2.6-1.6-6.7-3.2-9.4-3.7C126.8,48.5,119.6,48.6,116.4,48.1z"/>
	<path d="M104.6,88.6c0-0.7-1.6-2.9-4.3-0.4c-1.2,0.3-1-1.1-2.4,0c-1.6-2.5-2.9,0.2-4.2-0.3c-0.9-0.3-1.4-1.2-2.3-2.2
		c0.4,0,0.8,0,1.1,0c0.4,0,0.5-0.3,0.4-0.5c-0.3-0.6-0.7-1.1-0.7-1.1c-0.9,0.3-3.6,1-4.6,1.5c-0.6,0.3-1.6,0.8-1.8,1.4l0,0.2v0.2
		l0,0.2l0.1,0.2l0.2,0.2l0.2,0.2c0.4-1.2,0.9-1.5,1.6-1.7c0.5-0.1,1.4,0.4,1.4,0.4c0-0.1,0-0.2,0-0.3c0.6,0.7,1.4,1.8,2.6,3.3
		c0,0-0.4,0-0.8,0.6c-1.8-1.2-3.6,3.2-0.8,3.5c0,0,1,1.5,2,0.7c0,0-0.8-0.2-0.7-0.9c0,0,1.1-0.4,0.6-1.2c2.2,1.1,2.1-1,2.5-0.9
		c0,0,2.4,0.1,2.5,3.6c-0.4,0.4-0.8,3.5,1.6,2.7c0,0,0.6,0.6,0.2,1.8c0,0,1.2-0.6,0.8-2.1c0.9,0.2,1.9-3.2-1.1-3.2
		c0,0,0.6-1.6-1.5-2.1c0,0,3.1-0.2,3.5,1.1c0.1,0.3,0.4,2.4,2.6,1.5c0,0,0.8,0.3,0.9,1.5c0.5-0.8,0.8-2-0.1-2.5
		c0.9-2.2-0.9-2.7-2.3-2.1c0.1-0.6,0-1.8-2.7-1.4c0,0,2.4-1.3,2.6-0.7c0.7,0.9,2.4,1.2,2.7-0.2c0,0,0.8-0.5,1.5,0.9
		C105.6,90.6,106.1,88.5,104.6,88.6z"/>
	<path d="M55.2,49.2l0,0.2l0.1,0.2l0,0.2l0.1,0.2l0.1,0.2l0.1,0.2l0.1,0.2l0.1,0.4l0.2,0.4l0.2,0.4l0.2,0.3l0.2,0.3l0.1,0.2l0.2,0.3
		l0.2,0.3l0.1,0.2l0.1,0.2l0.2,0.3c0.7-0.6,1-0.9,1.3-1.6c0.3-0.8,0.1-3.2,0.1-3.2c-1.5,0.7-3.3-0.3-3.3-0.3l0,0.2v0.2L55.2,49.2z"
		/>
	<path d="M129.8,41.2c-7.7,0.5-12.9,2.3-16.5,3.5l0.2,0.1l0.2,0.1l0.2,0.1l0.2,0.1l0.3,0.1l0.2,0.1c8.4-2.4,14.3-1.1,14.3-1.1
		c-2.5,0.8-9.3,1.9-13.3,1.8c0.4,0.4,0.7,0.8,0.9,1.1c3.5,0,8.3,0.8,14.2-0.5c5.9-1.3,11.1-4.9,11.1-4.9
		C139.6,41.1,135.5,40.8,129.8,41.2z"/>
	<path d="M64.7,28.5c-1-1.1-2.2-3.8-2.2-3.8c-0.4,0-0.8-0.2-1.2-0.3c0,0.3,0,1,0,1l-0.2-0.1l-0.2,0l-0.2-0.1l-0.3-0.1l-0.2-0.1
		l-0.2-0.1l-0.2,0l-0.2-0.1c1.4,1,1.9,1.4,2.6,2.1c1.2,1.3,1.9,2.9,1.9,2.9C64.7,29.2,64.7,28.5,64.7,28.5z"/>
	<path d="M35.6,39.4l0.4-0.3c0.1,0,0.8-0.5,2-0.5c-1-0.8-3.4-2.8-5.1-3.8c-1.8-1-4.9-2.5-6.5-2.7c0,0,1.5,3.9,3.2,5.5
		C31.2,39.3,32.5,39.9,35.6,39.4z"/>
	<path d="M120.9,60.1c-2.2-1.1-9-3.7-10.9-4.4c0.1,0.1,0.2,0.2,0.2,0.3l0.2,0.4c2.3,1,4.2,1.6,6.8,3.5c2.2,1.5,3.3,3.6,3.3,3.6
		c-5.4-2-10.5-6.5-10.5-6.5c-0.1,0.2-0.3,0.3-0.5,0.5c1.9,1.4,6.3,5.8,10.1,8.9c3.8,3.1,8.4,2.7,8.4,2.7
		C126.2,63.8,123.1,61.2,120.9,60.1z"/>
	<path d="M25.8,47.6c0,0,2.1,1.8,4.6,1.9c2.5,0,4.7-0.7,5.7-1.4l-0.2-0.2l-0.2-0.2l-0.2-0.2l-0.2-0.2L35.2,47L35,46.7l-0.2-0.3
		l-0.2-0.3l-0.2-0.4c-1.9-0.8-3.9-1.2-5.8-0.5C26.8,46,26.3,46.9,25.8,47.6z"/>
	<path d="M31.4,44c3,0.8,4.1,0.6,5.3,0.2l0.1,0l0.2,0l0.2-0.1l0.2-0.1l0.2-0.1l0.2-0.1c-0.8-0.7-1.7-1.9-2.1-3.5
		c-0.9,0.2-2.9,0.2-3.8-0.1c-0.9-0.4-2.7-0.4-4.1,0.6C27.8,40.8,28.3,43.2,31.4,44z"/>
	<path d="M51.3,68.2l-0.2-0.3l-0.2-0.3l-0.2-0.3l-0.2-0.2l-0.2-0.3l-0.1-0.3l-0.1-0.2l-0.1-0.3c0.6,4.8,0.8,8.1,3.4,11.2
		c0,0,1.6-2.1,0.6-7.2c-0.4-0.1-0.9-0.3-1.4-0.7c0,0,0.6,2.1,0.2,4.1C52.9,73.7,52,73,51.3,68.2z"/>
	<path d="M52.6,84.2c0,0,1.4-1,3-1.6c1-0.4,1.5-1.5,2.6-2.6L58,80.2l-0.3,0.1l-0.3,0.1l-0.3,0.1l-0.2,0.1l-0.2,0l-0.4,0.1L56,80.7
		l-0.4,0.1l-0.4,0.1l-0.4,0.1L54.4,81l-0.3,0.1l-0.2,0l-0.3,0.1l-0.3,0.1l-0.2,0.1c-1.2,0.4-2,0.9-3.1,2.1
		C50,83.5,51.7,83.9,52.6,84.2z"/>
	<path d="M84.3,55.3c0-0.1,0-0.1-0.2,0.1L84,55.4l-0.2,0.2l-0.2,0.2l-0.2,0.1l-0.2,0.2L83,56.2l-0.2,0.1l-0.2,0.1
		c0,0-1.1,2.1,0.2,4.6c1.3,2.5,2.4,5.1,3,6.5c0,0,0.7-0.1,1.5-4c0.5-2.6,1.2-3.3,1.9-4.2c-0.8,0.4-1.4,0.5-1.4,0.5l-0.5,0.1L87,59.3
		c-0.5-0.9-0.6-1.8-0.6-2.5c0-0.3,0-0.5,0.1-0.7C85.2,56.2,84.5,55.6,84.3,55.3z"/>
	<path d="M82.8,17.7c0,0.3,1.1,0.4,2.5,0.4c1.4,0,2.5-0.2,2.5-0.4l-0.2-0.2l-0.2-0.1l-0.2-0.1l-0.2,0l-0.2,0l-0.2,0l-0.2,0l-0.2,0
		h-0.2l-0.2,0h-0.3h-0.3C84,17.3,82.8,17.5,82.8,17.7z"/>
	<path d="M85.4,12.2h-0.2l-0.2,0l-0.2,0l-0.2,0.1l-0.2,0.1l-0.2,0.2l-0.1,0.2l0,0.2c0,0.6,0.9,2,1.2,2.6c0.3-0.6,1.1-2,1.1-2.6
		C86.5,12.3,85.8,12.2,85.4,12.2z"/>
	<path d="M60.7,41.9c0.9-0.6,1.4-1.7,1.6-2.5l0-0.2l0-0.2l0.1-0.2v-0.2l0-0.2l0-0.2V38v-0.2v-0.2l0-0.2l0-0.2v-0.2l0-0.2l-0.1-0.2
		l0-0.2c-1.6,4.5-5.2,4.2-5.2,4.2C57.9,42.5,59.8,42.4,60.7,41.9z"/>
	<path d="M59.6,27.4c1.1,0.6,2,2,2,2c0.1-1.7-0.7-2.7-1.9-3.5l-0.2-0.1l-0.2-0.1l-0.2-0.1l-0.3-0.1l-0.2-0.1l-0.3-0.1l-0.3-0.1
		l-0.4-0.2l-0.2-0.1l-0.2-0.1l-0.2-0.1l-0.2-0.1l-0.3-0.1l-0.2-0.1C57.3,25.7,58.8,27,59.6,27.4z"/>
	<path d="M56.7,27.4l-0.2,0.1c0,0,1.3,0.4,1.9,0.9c0.5,0.5,1,1.2,1.2,2.3c0.3,1.6,1.3,3.4,1.7,3.9c-0.2-1.1,0.5-3.5,0.7-3.8
		c0,0-1-0.7-1.5-1.3c-0.4-0.5-0.9-1.3-2.6-2.3h0l-0.2,0l-0.2,0l-0.2,0.1l-0.2,0L57,27.3L56.7,27.4z"/>
	<path d="M112.5,74.3l-0.1-0.6l-0.1-0.6l-0.1-0.5l-0.2-0.5l-0.2-0.6l-0.2-0.5l-0.2-0.5l-0.2-0.5l-0.3-0.5l-0.3-0.5l-0.3-0.5
		l-0.3-0.5l-0.3-0.5l-0.3-0.5l-0.3-0.5l-0.3-0.4l-0.3-0.4l-0.3-0.4l-0.3-0.4l-0.3-0.4l-0.3-0.4l-0.3-0.4l-0.3-0.3l-0.3-0.3l-0.3-0.3
		l-0.3-0.3l-0.3-0.3l-0.3-0.3l-0.1,0c-0.8,0-1.5-0.1-2.1-0.3c0.2,0.3,0.3,0.6,0.4,0.8c6.6,6.1,6,9.2,6,9.2c-2.2-1.3-4.7-5-6-7.3
		l-0.5,0.1c-0.5,0.1-1.1,0.1-1.6,0c0.9,0.8,2.1,3.1,4.1,6.7c2,3.6,7,5.2,7,5.2l0-0.6v-0.6l0-0.6L112.5,74.3z"/>
	<path d="M75.8,23.9c2.1-0.5,2.7-1.6,3-2c0,0-0.3,1.1-0.1,1.5c0,0,0.9-0.1,1.6-1c0,0-0.5,0.9-0.6,1.6c0,0,0.6,0,1.6-0.6
		c0,0-0.2,0.5-0.3,1.2c0,0,2.4-0.8,3.5-1.7v0.2v0.2v0.2l-0.1,0.3V24c0,0,3.7-0.3,3.9-5.7c0,0-2.4,0.9-4.9,0.8
		c-2.4-0.1-7-0.2-8.4-0.9c0,0,0.3,0.9,1.4,1.5c0,0-0.6,0-1.2,0.6c0,0,0.4,0.7,1.4,1.1c0,0-1.9,1.9-3.9,1.8
		C72.8,23.1,73.7,24.3,75.8,23.9z M82,20.2c1.9,0.3,4.2,0.1,4.2,0.3l-0.1,0.3L86,20.9L86,21.1l-0.1,0.2l-0.1,0.2l-0.2,0.2l-0.1,0.2
		L85.3,22c-0.1-1.6-3.3-1.6-3.3-1.6V20.2z"/>
	<path d="M53.5,18.4l-0.2-0.1c0.3,5.4,3.9,5.7,3.9,5.7c0-0.4,0-1.1,0-1.1c1.1,1.1,3.5,1.8,3.5,1.8c0-0.7-0.3-1.2-0.3-1.2
		c1,0.6,1.6,0.6,1.6,0.6c-0.1-0.8-0.6-1.6-0.6-1.6c0.7,0.9,1.5,1,1.5,1c0.2-0.4-0.1-1.5-0.1-1.5c0.4,0.4,1,1.6,3,2
		c2.1,0.4,3-0.8,3-0.8c-2,0.1-3.9-1.8-3.9-1.8c1.1-0.4,1.5-1.1,1.5-1.1c-0.6-0.5-1.3-0.6-1.3-0.6c1.2-0.5,1.5-1.5,1.5-1.5
		c-1.5,0.7-6,0.8-8.5,0.9H58h-0.3h-0.2h-0.2h-0.3h-0.2h-0.3L56.4,19h-0.3L56,19h-0.2l-0.2-0.1l-0.2-0.1h-0.2L55,18.8h-0.2l-0.3-0.1
		l-0.3-0.1l-0.3-0.1l-0.2-0.1L53.5,18.4z M59.7,20.2v0.2c0,0-3.2,0-3.3,1.6c-0.5-0.3-0.8-0.9-0.9-1.6C55.5,20.4,57.8,20.5,59.7,20.2
		z"/>
	<path d="M69.7,12.5l-0.2,0l-0.2,0l-0.3,0l-0.2,0l-0.3,0.1l-0.3,0.1l-0.3,0l-0.3,0.1l-0.2,0.1L67.3,13l-0.2,0.2L67,13.3
		c0,0.4,1.7,0.8,3.9,0.8c2.1,0,3.9-0.4,3.9-0.8c0-0.5-1.7-0.8-3.9-0.8h-0.2h-0.2h-0.2l-0.2,0h-0.2H69.7z"/>
	<path d="M57.6,12.9l-0.1-0.2l-0.1-0.2l-0.2-0.1L57,12.3l-0.2-0.1l-0.2,0l-0.2,0h-0.2c-0.4,0-1,0.2-1,0.8c0,0.6,0.9,2,1.1,2.6
		C56.7,14.9,57.6,13.5,57.6,12.9z"/>
	<path d="M63.3,50.4c-0.4,1.9,1.6,3,2.5,4.6l0-0.1l0.1-0.2l0.1-0.2l0.1-0.2l0.1-0.2l0.1-0.2l0.1-0.2l0.1-0.2l0.1-0.3l0.1-0.2
		l0.1-0.2l0.2-0.2l0.2-0.2l0.2-0.3l0.2-0.2c0,0,1.1-3.3-2.5-5.3C65.2,46.5,63.7,48.5,63.3,50.4z"/>
	<path d="M70.9,9.9l0-0.3l0.1-0.3l0.1-0.3l0.1-0.3l0.1-0.3l0.1-0.3l0.1-0.3l0.1-0.3l0.1-0.3L72,6.8l0.1-0.3l0.1-0.3l0-0.3l0.1-0.3
		V5.6c0-0.8-0.7-1.5-1.5-1.5c-0.8,0-1.5,0.7-1.5,1.5c0,1,1.3,3.4,1.5,4.5L70.9,9.9z"/>
	<path d="M55.4,17.3l-0.2,0l-0.2,0l-0.2,0l-0.3,0.1l-0.2,0.1l-0.2,0.1l-0.2,0.2c0,0.3,1.1,0.4,2.5,0.4c1.3,0,2.5-0.2,2.5-0.4
		c0-0.3-1.1-0.5-2.5-0.5h-0.3h-0.2l-0.3,0H55.4z"/>
	<path d="M70.9,15.8l0.2,0l0.2-0.1l0.2-0.2l0.1-0.2l0.1-0.2v-0.2c0-0.4-0.3-0.7-0.8-0.7c-0.4,0-0.8,0.4-0.8,0.7
		C70.1,15.5,70.4,15.8,70.9,15.8z"/>
	<path d="M89,18.9l0,0.2l0,0.2l0,0.2l-0.1,0.2l0,0.2l-0.1,0.2l-0.1,0.2l0,0.2l-0.1,0.2L88.5,21l-0.1,0.2l-0.1,0.2l-0.1,0.2l-0.2,0.3
		c0,0,1.4-1.1,1.8-2s0.4-1.5-1-1.1L89,18.9z"/>
	<path d="M86.5,23.9c1.5,0.3,2.2,0.7,2.2,0.7c2.8-2,5.1,0.1,5.1,0.1c1.5-0.9,1.8-3,1.1-4.1l-0.2-0.3l-0.2-0.1l-0.2-0.1L94.1,20
		l-0.2-0.1l-0.3-0.1l-0.2-0.1h-0.3h-0.3h-0.3h-0.2h-0.2H92l-0.3,0.1l-0.3,0.1c-0.5,1.6-2.3,2.2-3.2,2.5
		C87.4,22.8,86.5,23.9,86.5,23.9z M91.9,21.9H92l0.2,0.1l0.2,0.1l0.1,0.2l0.1,0.2c0,0.3-0.3,0.6-0.6,0.6c-0.3,0-0.6-0.3-0.6-0.6
		C91.3,22.2,91.5,21.9,91.9,21.9z"/>
	<path d="M86.8,13.5l-0.1,0.2l-0.1,0.2l-0.1,0.2l0,0.2l-0.1,0.3l-0.1,0.3l-0.1,0.3l-0.1,0.3l-0.1,0.3l0,0.3l-0.1,0.2l0,0.2L86,16.5
		l0,0.2c0.9,0.1,0.8,0.1,1.2,0.1c0.2-0.3,1.8-2.6,1.9-3.1c0.1-0.5-0.2-0.8-0.6-0.9c-0.4,0-1.1,0-1.6,0.5L86.8,13.5z"/>
	<polygon points="84.8,11.8 85.8,11.8 85.8,10.2 87.1,10.2 87.1,9.3 85.8,9.3 85.8,8 84.8,8 84.8,9.3 83.6,9.3 83.6,10.2 84.8,10.2 
			"/>
	<polygon points="70.2,3.8 71.2,3.8 71.2,2.2 72.4,2.2 72.4,1.3 71.2,1.3 71.2,0 70.2,0 70.2,1.3 69,1.3 69,2.2 70.2,2.2 	"/>
	<path d="M76.4,15.5l-0.3-0.2l-0.3-0.1l-0.3-0.1l-0.3-0.1L75,15l-0.3-0.1l-0.3-0.1l-0.3,0l-0.3-0.1l-0.3,0h-0.3l-0.2,0h-0.2l-0.3,0
		c0.2,0.6,1,1.9,1.9,2.4c2,1.1,4.2,1,4.2,1c-0.4-0.8-0.8-1.5-2.2-2.5L76.4,15.5z"/>
	<path d="M102.9,64c0,0,0.5-1.5-3.5-5.2l-0.3,0l-0.3,0l-0.2-0.1l-0.2-0.1l-0.2-0.1L98,58.5l-0.2-0.1l-0.2-0.1l-0.2-0.1l-0.2-0.1
		L97,58l-0.3-0.2l-0.2-0.1l-0.3-0.2c-0.2,0.5-0.5,1.1-0.3,2c0.2,0.9,0.8,2,1.7,2.7C99.1,63.3,100.9,64.3,102.9,64z"/>
	<path d="M72,11.8h0.3l0.2,0l0.2,0c0.2-1.5,0.4-3,0.7-4.5c0.3-1.5,0.8-3,0.8-3c-0.7,0.2-1.1,1-1.5,2.1c-0.3,1.1-0.9,3.8-1,5.5
		L72,11.8z"/>
	<path d="M75,12.5l0.1-0.3l0.1-0.3l0.1-0.3l0.1-0.3l0.1-0.3l0.1-0.3l0.1-0.3l0.1-0.2l0.1-0.3l0.1-0.2l0.1-0.2l0.1-0.2l0.1-0.2
		L76.4,9l0.1-0.2l0.1-0.2l0.1-0.2l0.1-0.2l0-0.2l0.1-0.3l0.1-0.3L77,7.1l0-0.3l0-0.2V6.4c0-0.5-0.6-0.8-1-0.9
		c-0.6-0.2-1-0.2-1.3,0.1c-0.7,0.5-1.3,4.6-1.5,6.4C73.8,12,74.3,12.1,75,12.5z"/>
	<path d="M104.3,35.1l-0.1,0.3l-0.1,0.3l-0.1,0.3l-0.1,0.3l-0.1,0.2l-0.1,0.2l-0.1,0.2l-0.1,0.2l-0.1,0.2l-0.1,0.2l-0.2,0.2
		c3.8-1.8,6.8-4.5,8.3-7.1c1.7-3,0.8-6.8,0.8-6.8c-3.4,0.9-5.1,3.8-5.6,4.6c-0.5,0.9-1.3,4.1-1.7,5.4l-0.1,0.3l-0.1,0.3l-0.1,0.3
		l-0.1,0.3L104.3,35.1z"/>
	<path d="M93.8,42.9c1.1,2.5,3,6.1,1.9,7.5c-1.2,1.4-5.4,2.1-8.9,0.7c0,0-0.7,2.2-2,3.6c0,0,0.6,1.2,2.6,0.6c0,0-0.7,1.8,0.3,3.7
		c0,0,2.3-0.4,3.3-2.5c0,0,0.9,1.7,2.8,2.3c0,0,1.5-0.8,1.2-3.8c0,0,1.1,2.7,4.6,3.2c0,0,2-2.5-0.6-5.9c0,0,1.9,1.6,5.2,0.9
		c0,0,0.5-1.7-2.5-4.1c0,0,3.4-0.2,4.8-3c0,0-1.5-1.8-5-1.4c0,0,3.3-0.7,4.1-4.7c0,0-2.4-1.5-6.2,0.9c0,0,0.7-1.3,2.3-2.5
		c1.6-1.2,3.5-4.7,2.8-9.9l-0.3,0.5l-0.3,0.5l-0.3,0.5l-0.3,0.6l-0.2,0.3l-0.2,0.3l-0.2,0.3l-0.2,0.3l-0.2,0.3L102,32l-0.3,0.3
		l-0.3,0.3l-0.3,0.3l-0.3,0.3l-0.3,0.3l-0.3,0.3l-0.3,0.3l-0.3,0.3l-0.4,0.3L99,35l-0.4,0.3l-0.4,0.3L97.8,36l-0.4,0.4l-0.5,0.3
		L96.4,37l-0.5,0.3l-0.5,0.4C94.1,38.6,92.7,40.4,93.8,42.9z"/>
	<path d="M109.5,56.3c-0.7-1.3-2.9-1.6-4.7-3.1l-0.2,0.4l-0.4,0.1l-0.3,0.1l-0.3,0.1l-0.3,0.1l-0.3,0l-0.3,0h-0.2l-0.3,0h-0.2
		l-0.2,0h-0.2l-0.2,0l-0.2,0l-0.2,0l-0.2,0l-0.2-0.1l-0.2-0.1c0.1,0.3,0.2,0.8,0.3,1c1.3,1.6,3,2.7,5.4,3
		C108.6,58,109.5,56.3,109.5,56.3z"/>
	<path d="M113.7,53.9c-1.1-3.3-3.3-3.8-5.5-4.2c-1.8-0.4-3.2-0.3-4.8-0.1l0.2,0.2l0.2,0.2l0.2,0.2l0.1,0.2l0.1,0.3l0.2,0.3l0.1,0.2
		l0.1,0.2l0.1,0.2c1.1,1.5,3,2.5,5.1,2.9C112.3,55.1,113.7,53.9,113.7,53.9z"/>
	<path d="M113,45.3c-1.9-0.7-3.9-0.3-5.8,0.5l-0.2,0.4l-0.2,0.3l-0.2,0.3l-0.2,0.3l-0.2,0.3l-0.2,0.2l-0.2,0.2l-0.2,0.2l-0.2,0.2
		c1,0.7,3.3,1.4,5.7,1.4c2.4-0.1,4.6-1.9,4.6-1.9C115.4,46.9,114.9,46,113,45.3z"/>
	<path d="M105.8,61.5c0,0,0.9-2-1.4-3.6c-1.6-1.1-2.4-1.3-3.4-1.7l0,0.1l-0.1,0.2l0,0.2l-0.1,0.2l-0.1,0.2l-0.1,0.2l-0.1,0.3
		l-0.1,0.2l-0.1,0.2l-0.1,0.2l-0.1,0.2C100.5,59.1,102.2,62,105.8,61.5z"/>
	<path d="M112.3,37.7c1.7-1.6,3.2-5.5,3.2-5.5c-1.6,0.2-4.7,1.6-6.5,2.7c-1.7,0.9-4.1,3-5.1,3.8c1.2,0.1,1.9,0.5,2,0.5l0.4,0.3
		C109.2,39.9,110.5,39.3,112.3,37.7z"/>
	<path d="M116.6,31.3l-1,2.9c2.7-2.2,6-4.7,8-6.2c1.6-1.2,3.9-2.8,6.3-3.7c0,0-2.2,2.8-3.9,4.2c-2,1.6-4.1,3-5.7,3.9
		c-1.5,0.8-2.3,1.3-5.2,2.7v0l-0.1,0.2l-0.1,0.2l-0.1,0.2l-0.2,0.2l-0.2,0.2l-0.1,0.2l-0.2,0.2l-0.2,0.2c8.3-1.4,17.4-7.7,20.2-11.6
		c2.8-3.9,2-9.7,2-9.7c-2.7,0.6-8.7,5.7-10.2,7.2C124.5,24.3,119.8,28.8,116.6,31.3z"/>
	<path d="M141.7,31.3c-6.5-0.2-11.8,1.4-15.8,2.7c-4.7,1.4-11.9,4.1-14.5,5.3c1,0,2,0.3,2.9,0.9c3.5-1.3,5.2-1.9,8.4-2.8
		c2.5-0.7,4.4-0.8,6-1c0,0-2.2,1.5-5.9,2.6c-3.7,1.2-5.2,1.4-8.2,1.9l0,0.1l-0.1,0.2l-0.1,0.2l-0.1,0.2l-0.1,0.2l-0.1,0.3l-0.2,0.3
		l-0.2,0.3l-0.2,0.3l-0.3,0.3l-0.3,0.3l-0.3,0.3l-0.2,0.2l-0.2,0.1l-0.2,0.1l-0.2,0.1l-0.2,0.1c5.3-2.3,15.6-3.6,21.1-5.9
		C140.4,35.2,141.7,31.3,141.7,31.3z"/>
	<path d="M104.2,43.9l0.2,0l0.2,0.1l0.2,0.1l0.2,0.1c1.2,0.4,2.3,0.6,5.3-0.2c3.2-0.8,3.6-3.2,3.6-3.2c-1.4-0.9-3.2-0.9-4.1-0.6
		c-0.9,0.3-2.9,0.3-3.9,0.1c-0.4,1.7-1.2,2.8-2,3.6L104.2,43.9z"/>
	<path d="M109.9,33.6c0.6-0.3,1.4-0.7,2.1-1l0.7-0.3c6.1-3.2,12.2-10,14.6-14.6c2.5-4.7,1.5-10.1,0.8-13c-2.8,2.4-6.8,7-8.5,9.5
		c-2.2,3.1-4.9,7.5-6.6,11.2v0.3v0.3v0.3v0.3l-0.1,0.9c2-2.6,4.4-5.7,6.7-8.5c1.6-2,2.9-3.1,4.4-4.1c-1.2,3.6-3.5,6.5-5,7.9
		c-1.6,1.4-3.9,3.9-6.1,5.4l-0.2,0.7c-0.2,0.7-0.5,1.4-0.8,2C111.4,31.8,110.7,32.7,109.9,33.6z"/>
	<path d="M83.5,16.8c0.4-0.1,0.3-0.1,1.2-0.1l0-0.2l-0.1-0.2l0-0.2l0-0.2l-0.1-0.3l-0.1-0.3l-0.1-0.3l-0.1-0.3l-0.1-0.3l-0.1-0.3
		L84,14.1L84,13.9l-0.1-0.2l-0.1-0.3l-0.1-0.2c-0.5-0.4-1.2-0.5-1.5-0.5c-0.3,0-0.7,0.4-0.6,0.9C81.7,14.2,83.2,16.5,83.5,16.8z"/>
	<path d="M25.3,47.1c0.3-0.4,0.5-0.7,0.9-1.1c-4.1,0-10.9-1-13.3-1.8c0,0,5.9-1.3,14.3,1.1l0.1-0.1l0.2-0.1l0.2-0.1l0.3-0.1l0.2-0.1
		l0.2-0.1l0.2-0.1c-3.7-1.1-8.9-2.9-16.6-3.4c-5.7-0.4-9.8-0.1-11.9,0.5c0,0,5.2,3.6,11.1,4.9C17,47.9,21.8,47.1,25.3,47.1z"/>
	<path d="M8.9,38.3c5.5,2.3,15.9,3.7,21.1,5.9l-0.2-0.1L29.5,44l-0.2-0.1l-0.2-0.1L29,43.6l-0.2-0.1l-0.3-0.3L28.3,43L28,42.7
		l-0.2-0.3l-0.2-0.3l-0.2-0.3l-0.1-0.2l-0.1-0.2l-0.1-0.2l0-0.2l-0.1-0.2c-3-0.6-4.5-0.8-8.2-1.9c-3.7-1.2-5.9-2.6-5.9-2.6
		c1.6,0.2,3.4,0.3,6,1c3.2,0.9,4.9,1.5,8.4,2.8c0.9-0.6,1.9-0.9,2.8-0.9c-2.5-1.1-9.7-3.8-14.5-5.3c-4-1.2-9.3-2.8-15.8-2.7
		C0,31.3,1.4,35.2,8.9,38.3z"/>
	<path d="M27.8,36.8l-0.1-0.2l-0.2-0.2l-0.1-0.2L27.2,36l-0.2-0.2L27,35.6l-0.1-0.2l-0.1-0.2c-3-1.4-3.8-1.9-5.3-2.7
		c-1.7-0.9-3.7-2.3-5.7-3.9c-1.8-1.4-3.9-4.2-3.9-4.2c2.3,0.8,4.7,2.5,6.2,3.7c2.1,1.5,5.3,4,8.1,6.2l-1-2.9
		c-3.2-2.5-7.9-7.1-9.4-8.6c-1.5-1.5-7.5-6.7-10.2-7.2c0,0-0.8,5.8,2,9.7C10.3,29.1,19.5,35.4,27.8,36.8z"/>
	<path d="M14,53.6c7.4-0.5,11.8-1.3,14.5-2.1c0.5-0.6,0.9-1,1.3-1.3l-0.3,0L29.3,50L29,50l-0.3-0.1l-0.3-0.1l-0.3-0.1l-0.3-0.1
		l-0.3-0.1C20.5,51.6,15,50.8,15,50.8c3-1.5,8.7-1.7,11.4-2c-0.6-0.4-1-0.7-1.1-0.7c-3.2,0.5-10.4,0.4-13.2,0.9
		c-2.8,0.5-6.9,2.1-9.4,3.7C2.7,52.7,6.6,54.1,14,53.6z"/>
	<path d="M35.3,61.8c-0.1-0.1-0.1-0.3-0.2-0.4l0-0.2L35.1,61l0-0.2v-0.2v-0.2c-5.6,6-8.9,7-8.9,7c2.1-4.2,7.2-6.8,9-7.8
		c0.1-0.4,0.3-0.8,0.6-1.2c-0.1,0-0.2,0-0.2,0c-1,0.1-1.8-0.1-2.4-0.3c-2.3,1.7-5.5,4.3-8,7.1c-2.5,2.8-3.4,5.4-3.8,8.7
		c0,0,4.6-0.2,7.6-4.2C31.9,65.6,33.3,63.7,35.3,61.8z"/>
	<path d="M69.1,11.8L69.1,11.8l0.2,0l0.3,0h0.3l0.3,0c-0.2-1.6-0.8-4.4-1.1-5.5c-0.3-1.1-0.8-1.9-1.5-2.1c0,0,0.6,1.5,0.9,3
		C68.6,8.8,68.9,10.3,69.1,11.8z"/>
	<path d="M36.2,71.4c2-3.6,3.3-5.9,4.1-6.7c-0.6,0.1-1.1,0.1-1.6,0l-0.5-0.1c-1.3,2.3-3.8,6-6,7.3c0,0-0.6-3,6-9.2
		c0.1-0.3,0.2-0.5,0.4-0.8c-0.6,0.2-1.3,0.3-2.1,0.3l-0.3,0.3L36,62.8l-0.3,0.3l-0.3,0.3l-0.3,0.3L34.9,64l-0.3,0.4l-0.3,0.4
		l-0.3,0.4l-0.3,0.4l-0.3,0.4L33,66.3l-0.3,0.4l-0.3,0.5L32,67.6l-0.3,0.5l-0.3,0.5l-0.3,0.5l-0.3,0.5L30.6,70l-0.3,0.5l-0.2,0.5
		L30,71.6l-0.2,0.6l-0.2,0.5l-0.2,0.5l-0.1,0.6l-0.1,0.6l-0.1,0.6l0,0.6l0,0.6l0.1,0.6C29.2,76.6,34.1,75.1,36.2,71.4z"/>
	<path d="M29,32.3l0.7,0.3c0.7,0.3,1.5,0.7,2.1,1c-0.8-0.9-1.5-1.8-2-2.7c-0.4-0.7-0.6-1.3-0.8-2l-0.2-0.7c-2.2-1.5-4.5-3.9-6.1-5.4
		c-1.6-1.4-3.8-4.3-5.1-7.9c1.5,1,2.8,2.1,4.4,4.1c2.3,2.9,4.7,6,6.7,8.5l-0.1-1.1V26v-0.3v-0.2v-0.2v-0.1c-1.7-3.6-4.4-8-6.6-11.1
		c-1.7-2.5-5.8-7.1-8.5-9.5c-0.6,2.9-1.6,8.3,0.8,13C16.8,22.3,22.9,29.1,29,32.3z"/>
	<path d="M32.2,57.4c-0.2-0.2-0.3-0.3-0.4-0.5c0,0-5.1,4.5-10.5,6.5c0,0,1.2-2.1,3.3-3.6c2.6-1.8,4.6-2.5,6.8-3.5l0.2-0.4
		c0-0.1,0.1-0.2,0.2-0.3c-1.9,0.7-8.7,3.3-10.9,4.4c-2.2,1.1-5.4,3.7-7.1,9c0,0,4.6,0.4,8.4-2.7C25.9,63.2,30.3,58.8,32.2,57.4z"/>
	<path d="M30.2,55.4c-1.1-0.1-2-0.5-2.4-0.7c-3,1.3-6.9,2.9-10.9,3c0,0,2-1.4,4-2.2c2.2-0.9,4.7-1.8,6.5-2.3l0.1-0.1l0.1-0.2
		l0.1-0.2c-2.3,0.5-7.9,1.1-10.4,1.9c-2.5,0.8-7,2.6-9.7,7.7c0,0,4,1.2,11.4-2.3C26.5,56.5,28.8,55.8,30.2,55.4z"/>
	<polygon points="55.9,11.8 56.9,11.8 56.9,10.2 58.1,10.2 58.1,9.3 56.9,9.3 56.9,8 55.9,8 55.9,9.3 54.7,9.3 54.7,10.2 55.9,10.2 
			"/>
	<path d="M63.3,18.1h0.2h0.3l0.3,0l0.3,0l0.3-0.1l0.3-0.1l0.2,0l0.2-0.1l0.2,0l0.2-0.1l0.2-0.1l0.2,0l0.2-0.1l0.2-0.1l0.2-0.1
		l0.2-0.1l0.2-0.1l0.2-0.1c0.9-0.6,1.7-1.8,1.9-2.4c-0.8-0.1-2.8,0.1-4,1c-1.2,0.9-1.6,1.6-2,2.4h0.2H63.3z"/>
	<path d="M57.9,13.5l-0.1,0.2l-0.1,0.2l-0.1,0.2l-0.1,0.2l-0.1,0.3l-0.1,0.3l-0.1,0.3l0,0.3l-0.1,0.3l-0.1,0.3l0,0.2l0,0.2l0,0.2
		l-0.1,0.2c0.9,0.1,0.8,0.1,1.2,0.1c0.2-0.3,1.8-2.6,1.9-3.1c0.1-0.5-0.2-0.8-0.6-0.9c-0.4,0-1,0-1.6,0.5L57.9,13.5z"/>
	<path d="M64.7,7l0,0.3l0.1,0.3l0.1,0.3L65,8l0,0.2l0,0.2l0.1,0.2l0.1,0.2L65.3,9l0.1,0.2l0.1,0.2l0.1,0.2l0.1,0.2l0.1,0.2l0.1,0.3
		l0.1,0.2l0.1,0.3l0.1,0.3l0.1,0.3l0.1,0.3l0.1,0.3l0.1,0.3l0.1,0.3c0.8-0.4,1.1-0.5,1.8-0.6C68.3,10.1,67.7,6,67,5.5
		c-0.4-0.3-0.8-0.2-1.3-0.1c-0.5,0.2-1,0.5-1.1,1.1l0,0.2L64.7,7z"/>
	<path d="M54.5,16.8c0.4-0.1,0.3-0.1,1.2-0.1l0-0.2l0-0.2l-0.1-0.2l0-0.2l-0.1-0.3l0-0.3l-0.1-0.3l-0.1-0.3l-0.1-0.3l-0.1-0.3
		l-0.1-0.2l-0.1-0.2L55,13.7l-0.1-0.3l-0.1-0.2c-0.5-0.4-1.2-0.5-1.5-0.5c-0.4,0-0.7,0.4-0.6,0.9C52.7,14.2,54.3,16.5,54.5,16.8z"/>
	<path d="M48,24.7c0,0,2.3-2,5.1-0.1c0,0,0.6-0.4,2-0.8L55,23.7l-0.1-0.2l-0.2-0.2l-0.2-0.1L54.3,23L54,22.8l-0.3-0.2l-0.2-0.1
		l-0.2-0.1c-0.9-0.4-2.6-0.9-3.2-2.5c-0.4-0.1-1.1-0.2-1.7-0.1c-0.6,0.1-1.2,0.3-1.6,0.9C46.2,21.7,46.4,23.8,48,24.7z M49.8,21.9
		c0.3,0,0.6,0.3,0.6,0.8l-0.1,0.2L50.2,23L50,23.1l-0.2,0.1c-0.3,0-0.6-0.3-0.6-0.6C49.3,22.2,49.5,21.9,49.8,21.9z"/>
	<path d="M40.3,38.2c1.6,1.3,2.3,2.5,2.3,2.5c-3.8-2.4-6.2-0.9-6.2-0.9c0.7,4,4.1,4.7,4.1,4.7c-3.6-0.4-5,1.4-5,1.4
		c1.3,2.9,4.8,3,4.8,3c-3.1,2.4-2.5,4.1-2.5,4.1c3.3,0.8,5.2-0.9,5.2-0.9c-2.6,3.4-0.6,5.9-0.6,5.9c3.4-0.5,4.6-3.2,4.6-3.2
		c-0.3,3,1.2,3.8,1.2,3.8c1.9-0.6,2.8-2.3,2.8-2.3c1,2.1,3.3,2.5,3.3,2.5c1-1.9,0.3-3.7,0.3-3.7c2,0.6,2.6-0.6,2.6-0.6
		c-1.3-1.4-2-3.6-2-3.6c-3.4,1.4-7.7,0.7-8.8-0.7c-1.2-1.4,0.8-4.9,1.9-7.5c1.1-2.5-0.4-4.3-1.6-5.2l-0.5-0.4L45.3,37l-0.5-0.4
		l-0.5-0.3L44,36l-0.4-0.3l-0.4-0.3L42.8,35l-0.4-0.3L42,34.4l-0.3-0.3l-0.3-0.3l-0.3-0.3l-0.3-0.3l-0.3-0.3l-0.3-0.3L40,32.3
		L39.8,32l-0.2-0.3l-0.2-0.3l-0.2-0.3l-0.2-0.3l-0.2-0.3l-0.2-0.3l-0.3-0.6l-0.3-0.5l-0.3-0.5l-0.2-0.5
		C36.7,33.4,38.7,36.9,40.3,38.2z"/>
	<path d="M38.7,37.6l-0.1-0.2l-0.1-0.2L38.3,37l-0.1-0.2l-0.1-0.2L38,36.4l-0.1-0.2l-0.1-0.3l-0.1-0.3l-0.1-0.3l-0.1-0.3l-0.1-0.3
		l-0.1-0.3l-0.1-0.3L37.1,34L37,33.7c-0.4-1.3-1.2-4.5-1.7-5.4c-0.5-0.8-2.2-3.7-5.6-4.6c0,0-0.9,3.8,0.8,6.8
		C32,33.1,35,35.9,38.7,37.6z"/>
	<path d="M53.5,21.8l-0.2-0.3l-0.1-0.2l-0.1-0.2L53.2,21l0-0.2l-0.1-0.2L53,20.4l0-0.2l0-0.2l-0.1-0.2l0-0.2l0-0.2l0-0.2l0-0.2
		l0-0.2c-1.5-0.4-1.4,0.2-1,1.1C52.1,20.7,53.5,21.8,53.5,21.8z"/>
	<path d="M58.6,53.2l-0.2,0.2l-0.2,0.2l-0.2,0.2l-0.2,0.2l-0.2,0.2l-0.2,0.2c0.6,0.6,0.8,0.8,1.4,1.2c0.7,0.5,1.2,0.3,1.2,0.3
		C60,55.2,58.8,53,58.8,53L58.6,53.2z"/>
	<path d="M78.7,34c-0.1-1.9-0.8-2.6-1.6-3.3L77,30.8L76.9,31l-0.1,0.2l-0.1,0.2l-0.1,0.2l-0.1,0.2l-0.1,0.2l-0.1,0.3l-0.1,0.3
		l-0.1,0.3l-0.1,0.3l0,0.3v0.3v0.3l0,0.3l0.1,0.3c0.5,1.6,1.5,2.3,2.2,3.6C78.3,38.3,78.8,35.9,78.7,34z"/>
	<path d="M75,27.7c-0.5,1.5,0.5,3.8,0.5,3.8c-0.1-0.6,0.3-2.3,1-3.3l0.1-0.2l0.2-0.2l0.1-0.2l0.1-0.3l0.2-0.2l0.1-0.3l0.1-0.3
		l0.1-0.3l0.1-0.3l0.1-0.3l0.1-0.3l0.1-0.3l0.1-0.3l0.1-0.3l0.1-0.3l0.1-0.3C76.4,24.7,75.4,26.5,75,27.7z"/>
	<path d="M76.8,38.9L76.7,39l-0.1,0.2l-0.1,0.2l-0.1,0.2l-0.1,0.2l-0.1,0.3l-0.1,0.3l-0.1,0.3l0,0.2l0,0.2c0,0.9,0.1,1.6,0.6,2.9
		c0.6,1.6,1.5,3.4,2,4.2c0,0,0.8-1.2,1.3-2.2c0,0-1.3-1.8-1.8-3C77.3,41.4,77.1,40,76.8,38.9z"/>
	<path d="M74.1,30.8L74,31l-0.1,0.2l-0.1,0.3l-0.1,0.3L73.5,32l-0.1,0.2l-0.2,0.3l-0.1,0.2L73.1,33l-0.2,0.3l-0.1,0.2l-0.1,0.3
		L72.7,34l-0.1,0.3l-0.1,0.3l-0.1,0.2c-0.3,1.1,0,1.9,0.5,2.6c0.5,0.7,1.4,1.4,2.2,2.9c0,0,0.9-1.2,1-1.9c0.1-0.7,0-2.2-0.3-2.8
		c-0.2-0.6-1-2.7-1.6-4.8L74.1,30.8z"/>
	<path d="M63.3,23.9l0.1,0.3l0.1,0.3l0.1,0.3l0.1,0.3l0.1,0.3l0.1,0.3l0.1,0.3l0.1,0.3l0.1,0.3l0.1,0.3l0.1,0.3l0.1,0.2l0.2,0.3
		l0.1,0.2l0.1,0.2l0.2,0.2c0.7,1,1.1,2.8,1,3.3c0,0,1-2.2,0.5-3.8C66.4,26.5,65.3,24.7,63.3,23.9z"/>
	<path d="M65.6,34.7l0.1-0.3l0-0.3l0-0.3v-0.3l0-0.3l0-0.3l-0.1-0.3l-0.1-0.3l-0.1-0.3l-0.1-0.2l-0.2-0.4L65,31.3l-0.1-0.2l-0.1-0.2
		l-0.1-0.3c-0.8,0.7-1.5,1.4-1.6,3.3c-0.1,1.9,0.4,4.3,0.4,4.3C64.1,36.9,65.1,36.3,65.6,34.7z"/>
	<path d="M70.9,28.5c-0.4,0.2-2,1-2.1,2.3c-0.1,1.2,2.1,3.5,2.2,4.4l0-0.2l0.1-0.2l0.1-0.2l0.2-0.3l0.2-0.3l0.2-0.3l0.2-0.3L72,33
		l0.3-0.5l0.1-0.2l0.2-0.3l0.2-0.3l0.1-0.3l0.1-0.3L73,31v-0.2C72.9,29.5,71.3,28.7,70.9,28.5z"/>
	<path d="M82.3,48.5l-0.2-0.1l-0.2-0.2l-0.2-0.2l-0.3-0.3l-0.3-0.3l-0.3-0.3l-0.3-0.3l-0.2-0.3c-0.5,1-1.4,2.4-1.4,2.4
		c0.1,0.6,0,1.6,0.2,2.8c0.2,1.2,1.8,3.3,1.8,3.3c0.4-1.1,1.3-2.6,1.5-4.1c0.1-1-0.1-2.5-0.1-2.5L82.3,48.5z"/>
	<path d="M68.5,32.7l-0.1-0.2l-0.2-0.3l-0.1-0.3L68,31.6l-0.1-0.3l-0.1-0.2l-0.1-0.2l-0.1-0.2c-0.7,2.1-1.5,4.2-1.7,4.8
		c-0.2,0.6-0.4,2.2-0.3,2.8c0.1,0.6,1,1.9,1,1.9c0.8-1.4,1.7-2.2,2.2-2.9c0.5-0.7,0.8-1.4,0.5-2.6l-0.1-0.2l-0.1-0.3L69.1,34
		L69,33.8l-0.2-0.3l-0.1-0.2L68.7,33L68.5,32.7z"/>
	<path d="M84.3,88.5c0.4-0.2,1.1-0.9,0.9-2.3c-0.3-1.6-2.7-3.3-2.8-3.3l-0.2,0l-0.2,0l-0.2-0.1l-0.2,0l-0.2-0.1
		c-0.7,0.4-1.3,0.9-1.3,0.9c0.7-0.2,1.9,0.2,2.6,0.7c0.5,0.4,1.3,1.7,0.8,2.6c-0.5,0.9-2.4,0.3-2.4,0.3C82.3,89.4,84,88.7,84.3,88.5
		z"/>
	<path d="M57.5,82c0,0,1.6,0.4,2.6-0.1c0,0,0.4-1.5,1.5-2.2c0.3-0.2,1.1-0.4,1.8-0.8l-0.2-0.2l-0.2-0.1l-0.2-0.2l-0.2-0.2l-0.2-0.2
		c0,0-1.3,0.5-2.4,1.2C59.1,80.1,58,81.4,57.5,82z"/>
	<path d="M63.9,78.4c1.6-1.2,1.9-2.3,1.7-3.3l-0.1-0.2l-0.1-0.2l-0.1-0.2l-0.1-0.2l-0.1-0.2L65,73.8L65,73.6l-0.1-0.2l-0.1-0.2
		L64.7,73l-0.1-0.2l-0.1-0.2l-0.1-0.2l-0.1-0.2C64,73,63,74.1,62.6,74.6c-0.4,0.5-0.7,1.1-0.3,2C62.8,77.6,63.9,78.4,63.9,78.4z"/>
	<path d="M56.5,86.2c-0.3,1.4,0.5,2.1,0.9,2.3c0.4,0.2,2.1,0.9,3.1-1.4c0,0-1.9,0.6-2.4-0.3c-0.5-0.9,0.3-2.2,0.8-2.6
		c0.7-0.5,1.9-0.9,2.6-0.7c0,0-0.6-0.6-1.3-0.9l-0.2,0.1l-0.2,0l-0.2,0.1l-0.2,0l-0.2,0h-0.2C59.2,82.9,56.8,84.6,56.5,86.2z"/>
	<path d="M61.5,70.6c0.2,0.9,1.2,2.9,1.2,2.9c0.4-0.7,1.6-2.3,1.9-3.4l0-0.2v-0.2v-0.3l0-0.3l0-0.3l-0.1-0.3l-0.1-0.3L64.3,68
		l-0.1-0.3l-0.1-0.3l-0.1-0.2L63.8,67l-0.1-0.2l-0.2-0.3l-0.1-0.2C61.5,68.2,61.3,69.7,61.5,70.6z"/>
	<path d="M81.6,79.4c-1.1-0.7-2.4-1.2-2.5-1.1l-0.2,0.2l-0.2,0.2l-0.2,0.2l-0.2,0.2c0.8,0.4,1.6,0.6,1.8,0.8
		c1.1,0.7,1.5,2.2,1.5,2.2c1,0.5,2.7,0.1,2.7,0.1C83.7,81.4,82.6,80.1,81.6,79.4z"/>
	<path d="M80.8,59.7l-0.1,0.2l-0.1,0.2l-0.1,0.2l-0.1,0.2l-0.1,0.2l-0.2,0.2L80,61l-0.2,0.2l-0.1,0.2l-0.1,0.2l-0.2,0.3l-0.1,0.2
		l-0.2,0.3l-0.1,0.2L79,62.5c-0.3,1-0.4,1.6,0.1,2.8c0.4,1,1,1.6,1.1,2.3c0,0,1.4-1.8,1.6-2.6c0.3-0.8,0.3-2,0-2.8
		C81.7,61.4,81.1,60.4,80.8,59.7z"/>
	<path d="M61.9,45.9c0.5,1,1.3,2.2,1.3,2.2c0.4-0.8,1.4-2.6,2-4.2c0.5-1.3,0.6-2,0.6-2.9l0-0.2l0-0.2l0-0.3l-0.1-0.3l-0.1-0.3
		l-0.1-0.3l-0.1-0.2L65,39.1l-0.2-0.2c-0.3,1.1-0.5,2.5-1.2,4C63.2,44.1,61.9,45.9,61.9,45.9z"/>
	<path d="M83.3,77.4c-0.7-0.5-3-2-3-2l0,0.2l0,0.2V76l0,0.3l0,0.2l-0.1,0.2l-0.1,0.2L80,77l-0.1,0.2l-0.1,0.2l-0.1,0.2
		c0.5,0.3,1.5,1,3,1.4c1.3,0.4,3,0.8,3,0.8C85.4,79.4,83.9,77.9,83.3,77.4z"/>
	<path d="M99.1,64c0.8,3,2.4,6.6,1.8,9.4l-0.2-0.2l-0.2-0.3l-0.2-0.3l-0.2-0.3l-0.2-0.3l-0.1-0.4l-0.2-0.4l-0.1-0.4l-0.1-0.4
		l-0.1-0.4l-0.1-0.4l-0.1-0.4l-0.2-0.8l-0.1-0.4l-0.1-0.4L98.6,67l-0.1-0.4l-0.1-0.4l-0.1-0.4l-0.1-0.4l-0.1-0.3l-0.1-0.3l0-0.3
		l0-0.3L98.2,64l0-0.2l0-0.2v-0.2c-0.3-0.2-0.6-0.4-0.9-0.6c-0.1-0.1-0.3-0.2-0.4-0.3c0,0.3,0,0.6-0.1,0.8c0.3,4.5,0.7,9.1,2.1,11.4
		c1.4,2.3,3.9,3.4,3.9,3.4c2.4-4.2-0.5-9.8-2.9-13.8C99.6,64.2,99.4,64.1,99.1,64z"/>
	<path d="M84.2,54.2L84.2,54.2L84,54.1l-0.2-0.2l-0.2-0.2l-0.2-0.2l-0.2-0.2l-0.2-0.2L82.9,53c0,0-1.2,2.2-1.4,2.8
		c0,0,0.6,0.1,1.2-0.3C83.4,55,83.6,54.9,84.2,54.2z"/>
	<path d="M73.9,27.4c0.7-0.7,1.7-1.9,2-2.9h-0.1l-0.2,0h-0.2l-0.2,0l-0.2,0l-0.2,0l-0.2,0l-0.2,0.1l-0.2,0l-0.3,0.1l-0.2,0.1
		l-0.2,0.1c-0.9,0.6-1.8,1.9-2.1,3.5C71.6,28.4,73.1,28.1,73.9,27.4z"/>
	<path d="M67.9,24.9l-0.2-0.1l-0.2,0l-0.2-0.1l-0.2,0L67,24.5l-0.2,0l-0.2,0l-0.3,0l-0.2,0l-0.2,0h-0.2c0.4,1.1,1.3,2.2,2.1,2.9
		c0.7,0.8,2.3,1,2.3,1C69.8,26.8,68.9,25.5,67.9,24.9z"/>
	<path d="M89.2,29.5c0,0,1.3-2,0.4-3.3c-1-1.4-2-1.6-3.3-1.9L86,24.4l-0.1,0.2l-0.2,0.2L85.6,25l-0.1,0.2l-0.3,0.3l-0.3,0.3L84.7,26
		l-0.2,0.2C84.4,26.2,88.2,26.2,89.2,29.5z"/>
	<path d="M52.2,26.1c-0.9,1.3,0.4,3.3,0.4,3.3c0.9-3.3,4.7-3.2,4.6-3.4l-0.2-0.2l-0.2-0.2l-0.3-0.3l-0.2-0.2L56,24.9l-0.2-0.2
		l-0.1-0.2l-0.2-0.2C54.2,24.5,53.2,24.8,52.2,26.1z"/>
	<path d="M50.6,57.9L50.4,58l-0.2,0.2l-0.2,0.2c-0.2,1.3-0.3,3.2-0.1,4.6c0.3,1.8,0.7,3.5,2.2,5.2c1.5,1.8,3.5,1.5,3.5,1.5
		c-0.5-0.8-1.2-2.9-1.5-4c-0.3-1-0.8-2.9-1.2-4.2C52.4,59.8,51.1,58.2,50.6,57.9z"/>
	<path d="M92.4,66.4c0.6,10.7,2.3,12,2.3,12c2.5-2.3,1.7-9.7,1.5-12.4L96,66.1l-0.2,0.2l-0.2,0.3l-0.2,0.3l-0.2,0.3l-0.1,0.2
		l-0.2,0.2l-0.2,0.2c0.8,5.1-0.5,6.1-0.5,6.1c-1.2-2.4-0.8-5.8-0.8-5.8C93.4,67.6,92.7,67,92.4,66.4z"/>
	<path d="M94.8,58.6l-0.1,0.1l-0.2,0.2l-0.2,0.2l-0.2,0.1L94,59.4l-0.3,0.1l-0.3-0.1c-0.2-0.1-0.5-0.2-0.7-0.3
		c-0.3,0.8-0.4,1.2-0.5,1.9c-0.1,0.9-0.3,2.4,0.1,3.6c0.4,1.4,1.3,2.3,1.8,2.9c0,0,1.3-1.5,1.7-2.7c0.4-1.2,0.6-2.7,0-4.2
		C95.6,59.8,95.2,59.1,94.8,58.6z"/>
	<path d="M87.4,45.8c0.4-1.3,0.3-3.3-0.6-4c0,0-0.8,2.5-2.5,2.6c-1.9,0.1-4.4-2.1-6.9-6.3v0l0,0.2l0,0.2l0.1,0.3l0,0.2l0.1,0.2
		l0.1,0.2l0.1,0.2l0,0.2l0.1,0.2l0.1,0.3l0.1,0.3l0.1,0.3l0.1,0.3l0.1,0.3l0.1,0.3l0.1,0.3l0.1,0.3l0.1,0.3l0.2,0.3l0.2,0.3l0.2,0.3
		l0.2,0.3l0.2,0.3l0.2,0.3l0.2,0.3l0.2,0.3l0.2,0.3c1.6,2.1,3,2.8,3.9,2.8C85.6,48.2,87,47.1,87.4,45.8z"/>
	<path d="M57.4,48.2c0.9,0,2.2-0.7,3.9-2.8l0.2-0.3l0.2-0.3l0.2-0.3l0.2-0.3l0.2-0.3l0.2-0.3l0.2-0.3l0.2-0.3l0.2-0.3l0.1-0.3
		l0.1-0.3l0.1-0.3l0.1-0.3l0.1-0.3l0.1-0.3l0.1-0.3l0.1-0.3l0.1-0.3l0.1-0.2l0.1-0.2l0.1-0.2l0-0.2l0-0.2l0.1-0.2l0.1-0.3l0.1-0.2
		l0-0.2c-2.5,4.2-5,6.4-6.9,6.3c-1.7-0.1-2.5-2.6-2.5-2.6c-0.9,0.7-1,2.7-0.6,4C54.8,47.1,56.1,48.2,57.4,48.2z"/>
	<path d="M56,79.9c0,0,1.7-0.4,3.1-0.8c1.4-0.5,2.4-1.1,3-1.4L62,77.5l-0.1-0.2l-0.1-0.2L61.7,77l-0.1-0.2l-0.1-0.2l-0.1-0.2l0-0.2
		l0-0.2l0-0.2v-0.2l0-0.2c0,0-2.3,1.4-3,2C57.8,77.9,56.4,79.4,56,79.9z"/>
	<path d="M53.6,84.5l0.2,0.1l0.2,0.1l0.2,0.1l0.2,0.1l0.2,0.1l0.2,0.1l0.2,0.1l0.2,0.1l0.2,0.1l0.2,0.1c0,0,0.5-0.2,0.7-0.6
		c0.2-0.4,1.2-1.8,2-2c0,0-0.7-0.1-1.2-0.2c0,0-0.9,0.2-1.5,0.5c-0.6,0.2-1.4,0.6-2.3,1.2l0.2,0.1L53.6,84.5z"/>
	<path d="M61.5,67.7c0.2-0.6,0.7-1.2,1.1-2.3c0.5-1.2,0.4-1.9,0.1-2.8l-0.1-0.3L62.5,62l-0.1-0.2l-0.1-0.2l-0.1-0.2L62,61.3
		l-0.1-0.2L61.8,61l-0.2-0.2l-0.1-0.2l-0.1-0.2l-0.1-0.2l-0.1-0.2L61,59.9l-0.1-0.2c-0.4,0.7-0.9,1.8-1.2,2.6c-0.3,0.8-0.2,2,0,2.8
		C60.1,65.8,61.5,67.7,61.5,67.7z"/>
	<path d="M61,46.9l-0.2,0.3l-0.3,0.3l-0.3,0.3L60,48.1l-0.2,0.2l-0.2,0.2l-0.2,0.1l-0.2,0.1c0,0-0.2,1.5-0.1,2.5
		c0.2,1.4,1.1,2.9,1.5,4.1c0,0,1.6-2.1,1.8-3.3c0.2-1.2,0.2-2.2,0.2-2.8c0,0-0.9-1.4-1.3-2.4L61,46.9z"/>
	<path d="M63,53.1l-0.1,0.2l-0.1,0.2l-0.2,0.2L62.5,54l-0.2,0.3l-0.2,0.3l-0.2,0.3l-0.2,0.3l-0.2,0.3l-0.2,0.3l-0.2,0.3l-0.2,0.2
		l-0.2,0.2l-0.2,0.2c0,0,0.2,1,0.9,2.3c0.7,1.4,1.7,2.4,2.2,2.8c0,0,1.2-2.1,1.5-2.9c0.4-1,0.4-2.1,0.2-2.5C65,55.4,63.6,54.1,63,53
		L63,53.1z"/>
	<path d="M91.6,58.4l-0.1-0.1l-0.2-0.2l-0.2-0.2L91,57.7c-0.4,0.5-1.7,2.1-2.3,3.7c-0.5,1.3-1,3.2-1.2,4.2c-0.3,1.1-1,3.3-1.5,4
		c0,0,2,0.3,3.5-1.5c1.5-1.7,2-3.4,2.2-5.2C91.9,61.6,91.8,59.7,91.6,58.4z"/>
	<path d="M86.2,85.5l0.2-0.1l0.2-0.1l0.2-0.1L87,85l0.2-0.1l0.2-0.1l0.2-0.1l0.2-0.1l0.2-0.1l0.2-0.1l0.2-0.1l0.2-0.1
		c-0.9-0.6-1.7-1-2.4-1.2c-0.6-0.3-1.5-0.5-1.5-0.5c-0.4,0.2-1.1,0.2-1.1,0.2c0.8,0.2,1.8,1.6,2,2C85.7,85.3,86.2,85.5,86.2,85.5z"
		/>
	<path d="M87.6,70.2c-1,5.1,0.6,7.2,0.6,7.2c2.6-3.1,2.8-6.4,3.4-11.2l-0.1,0.3l-0.1,0.2l-0.1,0.3l-0.1,0.3L91,67.4l-0.2,0.3
		l-0.2,0.3l-0.2,0.3c-0.7,4.8-1.6,5.5-1.6,5.5c-0.4-2.1,0.2-4.1,0.2-4.1C88.6,69.9,88.1,70.1,87.6,70.2z"/>
	<path d="M85,53.1l0.1-0.3l0.2-0.3l0.2-0.3l0.2-0.3l0.1-0.2l0.2-0.4l0.2-0.4l0.1-0.4l0.1-0.2l0.1-0.2l0.1-0.2l0.1-0.2l0-0.2l0-0.2
		l0-0.2l0-0.2v-0.2v-0.2c0,0-1.8,1-3.2,0.3c0,0-0.2,2.4,0.1,3.2c0.2,0.7,0.6,1,1.3,1.6l0.1-0.1l0.1-0.2l0.1-0.2L85,53.1z"/>
	<path d="M91.7,83.5c-1.1-1.2-2-1.8-3.1-2.1l-0.3-0.1l-0.3-0.1l-0.3-0.1L87.5,81L87.3,81l-0.2,0l-0.4-0.1l-0.4-0.1l-0.4-0.1
		l-0.4-0.1l-0.4-0.1L85,80.5l-0.3-0.1l-0.3-0.1L84,80.3l-0.3-0.1l-0.3-0.1c1.1,1.1,1.6,2.2,2.6,2.6c1.6,0.6,3,1.6,3,1.6
		C90,83.9,91.7,83.5,91.7,83.5z"/>
</g>
</svg>
