<?xml version="1.0" encoding="utf-8"?>
<!-- Generator: Adobe Illustrator 19.0.0, SVG Export Plug-In . SVG Version: 6.00 Build 0)  -->
<svg version="1.1" id="Слой_1" xmlns="http://www.w3.org/2000/svg" xmlns:xlink="http://www.w3.org/1999/xlink" x="0px" y="0px"
	 viewBox="0 0 16 16" fill="#fff" style="enable-background:new 0 0 16 16;" xml:space="preserve">
<g>
	<rect x="-1.9" y="7" transform="matrix(0.7071 -0.7071 0.7071 0.7071 -3.3137 8)" width="19.8" height="2"/>
	<path d="M12,8c-2.2,0-4,1.8-4,4s1.8,4,4,4s4-1.8,4-4S14.2,8,12,8z M12,14c-1.1,0-2-0.9-2-2s0.9-2,2-2s2,0.9,2,2S13.1,14,12,14z"/>
	<path d="M4,8c2.2,0,4-1.8,4-4S6.2,0,4,0S0,1.8,0,4S1.8,8,4,8z M4,2c1.1,0,2,0.9,2,2S5.1,6,4,6S2,5.1,2,4S2.9,2,4,2z"/>
</g>
</svg>
