<?xml version="1.0" encoding="utf-8"?>
<!-- Generator: Adobe Illustrator 19.0.0, SVG Export Plug-In . SVG Version: 6.00 Build 0)  -->
<svg version="1.1" id="Слой_1" xmlns="http://www.w3.org/2000/svg" xmlns:xlink="http://www.w3.org/1999/xlink" x="0px" y="0px"
	 viewBox="0 0 229.3 41" style="enable-background:new 0 0 229.3 41;" xml:space="preserve">
<style type="text/css">
	.st0{fill:#E83E35;}
	.st1{fill:#FFFFFF;}
	.st2{opacity:0.1;}
	.st3{fill:#F45753;}
</style>
<path id="XMLID_243_" class="st0" d="M221.3,41h-206L2.1,24.1c-1.8-2.3-2.5-5.3-1.9-8.1L3.3,0h226L221.3,41z"/>
<g id="XMLID_245_">
	<path id="XMLID_246_" class="st1" d="M25,11.7h-5.4l-4.3,21.6h-4.9l4.3-21.6H9.3l0.8-4h15.7L25,11.7z"/>
	<path id="XMLID_249_" class="st1" d="M38.4,22.1h-8.1l-1.5,7.2h9.5l-0.8,4H23.1l5.1-25.6h14.5l-0.8,4h-9.5l-1.3,6.4h8.1L38.4,22.1z
		"/>
	<path id="XMLID_255_" class="st1" d="M47,24.1l-1.8,9.2h-5l5.1-25.6h8.6c2.3,0,4,0.8,5.2,2.3c1.2,1.5,1.6,3.5,1.1,5.9
		c-0.5,2.6-1.6,4.6-3.3,6.1s-3.8,2.1-6.2,2.1H47z M47.8,20.1h3.6c0.9,0,1.7-0.4,2.4-1.2s1.2-1.8,1.4-3c0.3-1.3,0.2-2.3-0.1-3.1
		s-1-1.1-2-1.1h-3.6L47.8,20.1z"/>
	<path id="XMLID_260_" class="st1" d="M71.3,7.7l0.4,18.8l0.1,0l8-18.8h6.5l-5.1,25.6h-4.9l1.5-7.4l2.3-9.4l-0.1,0L72,33.3h-3.3
		l-1-16.6l-0.1,0l-1.4,9.2l-1.5,7.4h-4.9l5.1-25.6H71.3z"/>
	<path id="XMLID_262_" class="st1" d="M104,22.8c-0.7,3.4-2,6-3.8,8s-4.1,2.9-6.8,2.9c-2.4,0-4.4-1.1-5.8-3.2s-1.8-4.7-1.2-7.8
		l0.9-4.6c0.7-3.4,1.9-6.1,3.7-8s4-2.9,6.6-2.9c2.5,0,4.4,1.1,5.9,3.2s1.9,4.7,1.3,7.8L104,22.8z M100,18.2c0.4-2.1,0.3-3.7-0.3-5
		s-1.5-1.9-2.8-1.9c-1.1,0-2,0.6-2.8,1.9c-0.8,1.2-1.4,2.9-1.8,5l-0.9,4.6c-0.4,2.1-0.4,3.8,0.2,5.1c0.5,1.3,1.4,1.9,2.7,1.9
		c1.1,0,2.1-0.6,3-1.9c0.9-1.3,1.5-2.9,1.9-5L100,18.2z"/>
	<path id="XMLID_265_" class="st1" d="M121.7,33.3h-4.9l4.3-21.6h-7.3l-4.3,21.6h-5l5.1-25.6h17.2L121.7,33.3z"/>
	<path id="XMLID_267_" class="st1" d="M140.8,22.1h-8.1l-1.5,7.2h9.5l-0.8,4h-14.5l5.1-25.6h14.5l-0.8,4h-9.5l-1.3,6.4h8.1
		L140.8,22.1z"/>
	<path id="XMLID_269_" class="st1" d="M164.8,7.7l-5.1,25.6h-5l2-9.9c-0.6,0.2-1.3,0.3-2,0.4s-1.3,0.1-1.7,0.1
		c-2.5,0-4.3-0.7-5.6-2.1s-1.6-3.5-1-6.3l1.5-7.8h4.9l-1.5,7.8c-0.4,1.8-0.3,3,0.1,3.6s1.2,0.9,2.4,0.9c0.4,0,1,0,1.7-0.1
		s1.4-0.2,2-0.3l2.4-11.7H164.8z"/>
	<path id="XMLID_271_" class="st1" d="M175.5,27.8h-6.2l-2.4,5.5h-5l11.9-25.6h5.2l1.7,25.6h-5L175.5,27.8z M171.1,23.8h4.3
		l-0.3-8.6l-0.1,0L171.1,23.8z"/>
	<path id="XMLID_274_" class="st1" d="M199.1,11.7h-5.4l-4.3,21.6h-4.9l4.3-21.6h-5.3l0.8-4h15.7L199.1,11.7z"/>
	<path id="XMLID_276_" class="st1" d="M205.6,17.1h3c2.3,0,4.1,0.7,5.3,2.2s1.6,3.4,1.2,5.8c-0.5,2.6-1.7,4.6-3.4,6
		s-3.8,2.1-6.3,2.1h-7.9l5.1-25.6h4.9L205.6,17.1z M204.8,21.1l-1.6,8.2h3c0.9,0,1.7-0.4,2.5-1.2s1.3-1.8,1.5-3
		c0.2-1.2,0.2-2.2-0.2-2.9s-1.1-1.1-2.1-1.1H204.8z"/>
</g>
<path id="XMLID_244_" class="st2" d="M15.3,41L2.1,24.1c-1.8-2.3-2.5-5.3-1.9-8.1l17.1,7.3L15.3,41z"/>
<path id="XMLID_279_" class="st3" d="M15.3,41L2.1,24.1c-1.8-2.3-2.5-5.3-1.9-8.1l15.1,9.3V41z"/>
</svg>
