<?xml version="1.0" encoding="utf-8"?>
<!-- Generator: Adobe Illustrator 19.0.0, SVG Export Plug-In . SVG Version: 6.00 Build 0)  -->
<svg version="1.1" id="Слой_1" xmlns="http://www.w3.org/2000/svg" xmlns:xlink="http://www.w3.org/1999/xlink" fill="white" x="0px" y="0px"
	 viewBox="0 0 24.5 14" style="enable-background:new 0 0 24.5 14;" xml:space="preserve">
<path d="M21.9,9.7c2,1.8,2.4,2.7,2.4,2.8c0.8,1.4-0.9,1.5-0.9,1.5l-3.3,0c0,0-0.7,0.1-1.6-0.5c-1.2-0.8-2.4-3-3.3-2.7
	C14.3,11,14.3,13,14.3,13s0,0.3-0.2,0.5c-0.2,0.2-0.7,0.1-0.7,0.1H12c0,0-3.2,0.3-6.1-2.6C2.8,7.8,0.1,1.4,0.1,1.4s-0.2-0.4,0-0.6
	c0.2-0.2,0.7-0.2,0.7-0.2l3.5,0c0,0,0.3,0.1,0.6,0.2C5.1,1,5.2,1.3,5.2,1.3S5.7,2.7,6.5,4C8,6.5,8.6,7.1,9.1,6.8
	c0.7-0.4,0.5-3.6,0.5-3.6s0-1.2-0.4-1.7C9,1.2,8.4,1,8.2,1C8,1,8.3,0.5,8.7,0.3C9.4,0,10.5,0,11.8,0c1,0,1.3,0.1,1.7,0.2
	c1.2,0.3,0.8,1.4,0.8,4.1c0,0.9-0.2,2.1,0.5,2.5c0.3,0.2,0.9,0,2.6-2.8c0.8-1.3,1.4-2.9,1.4-2.9s0.1-0.3,0.3-0.4
	c0.2-0.1,0.5-0.1,0.5-0.1l3.7,0c0,0,1.1-0.1,1.3,0.4c0.2,0.5-0.4,1.8-1.9,3.8C20.1,8.1,19.8,7.8,21.9,9.7z"/>
</svg>
