<?xml version="1.0" encoding="utf-8"?>
<!-- Generator: Adobe Illustrator 19.0.0, SVG Export Plug-In . SVG Version: 6.00 Build 0)  -->
<svg version="1.1" id="Слой_1" xmlns="http://www.w3.org/2000/svg" xmlns:xlink="http://www.w3.org/1999/xlink" x="0px" y="0px"
	 viewBox="0 0 16 16" style="enable-background:new 0 0 16 16;" xml:space="preserve">
<path d="M8,0C3.6,0,0,3.6,0,8s3.6,8,8,8v-2c-3.3,0-6-2.7-6-6s2.7-6,6-6s6,2.7,6,6c0,0.8-0.7,1.5-1.5,1.5S11,8.8,11,8
	c0-1.7-1.3-3-3-3S5,6.3,5,8s1.3,3,3,3c0.7,0,1.4-0.3,1.9-0.7c0.6,0.7,1.6,1.2,2.6,1.2c1.9,0,3.5-1.6,3.5-3.5C16,3.6,12.4,0,8,0z
	 M8,9C7.4,9,7,8.6,7,8s0.4-1,1-1s1,0.4,1,1S8.6,9,8,9z"/>
</svg>
