<?xml version="1.0" encoding="utf-8"?>
<!-- Generator: Adobe Illustrator 19.0.0, SVG Export Plug-In . SVG Version: 6.00 Build 0)  -->
<svg version="1.1" id="Слой_1" xmlns="http://www.w3.org/2000/svg" xmlns:xlink="http://www.w3.org/1999/xlink" x="0px" y="0px"  fill="#e93f36"
	 viewBox="0 0 175.7 77.8" style="enable-background:new 0 0 175.7 77.8;" xml:space="preserve">
<g>
	<path d="M14,1.1c-1.3-0.4-2.1-0.6-2.1-0.6S12.4,0.7,14,1.1z"/>
	<path d="M86.2,22.1c0,0,26.1-3.7,39.6-10.3L97.2,0c0,0-12.7,11.8-46.3,7.2C27.4,4.1,17.7,2,14,1.1C24.9,4.4,75.7,20.9,92,52.2h34.3
		C126.3,52.2,108.9,32.3,86.2,22.1z"/>
	<rect x="27.9" y="57.5" width="6.1" height="20"/>
	<path d="M24.5,61.3c-0.6-1.9-1.9-3.1-3.7-3.4c-0.8-0.2-1.6-0.3-2.3-0.3c-0.8-0.1-2.4-0.1-4.8-0.1h-1.2H0v20h12.5h1.2
		c2.1,0,3.7-0.1,4.6-0.2c0.9,0,1.8-0.2,2.6-0.3c1.7-0.4,2.9-1.5,3.5-3.2c0.3-0.8,0.4-1.6,0.5-2.5c0.1-0.9,0.1-2.3,0.1-4.1
		c0-1.6,0-2.8-0.1-3.7C24.8,62.7,24.6,62,24.5,61.3z M19.1,70.4c-0.2,0.6-0.3,1-0.7,1.3c-0.3,0.3-0.8,0.5-1.4,0.6
		c-0.7,0.1-1.8,0.2-3.3,0.2h-1.2H5.7v-9.9h6.8h1.2c1.7,0,2.9,0.1,3.5,0.2c0.6,0.1,1.1,0.3,1.4,0.7c0.3,0.3,0.5,0.8,0.6,1.4
		c0.2,0.6,0.2,1.5,0.2,2.8C19.3,68.8,19.2,69.7,19.1,70.4z"/>
	<path d="M165.9,57.5h-4.6h-4.4l-10,20h6.6l1.6-3.4h6.2h6.3l1.6,3.4h6.5L165.9,57.5z M161.3,69.7h-4.2l3.7-7.6h0.5h0.6l3.7,7.6
		H161.3z"/>
	<path d="M114.9,57.5c-1.5-0.2-4.3-0.3-8.4-0.1s-6.9,0.1-8.4,0.3c-2.2,0.3-3.6,1.4-4.1,3.4c-0.3,1.3-0.5,3.5-0.5,6.5
		c0,3.2,0.2,5.5,0.5,6.8c0.5,2,1.9,3.1,4.1,3.3c1.5,0.3,4.3,0.3,8.4,0.3c0,0,0,0,0.1,0c4,0,6.8-0.1,8.3-0.3c2.2-0.3,3.6-1.4,4.1-3.3
		c0.3-1.3,0.5-3.5,0.5-6.6c0-3.1-0.2-5.3-0.5-6.6C118.4,58.9,117.1,57.8,114.9,57.5z M113.5,70.6c-0.1,0.5-0.3,0.9-0.7,1.2
		c-0.3,0.3-0.9,0.5-1.7,0.6c-0.8,0.1-2.3,0.2-4.6,0.2c-0.1,0-0.1,0-0.1,0c-2.5,0-4.1-0.1-4.9-0.2c-1.2-0.2-1.9-0.8-2.1-1.8
		c-0.1-0.5-0.2-1.4-0.2-2.6c0-2,0.1-3.4,0.3-4.1c0.2-0.7,0.7-1.1,1.4-1.3c0.7-0.2,2.5-0.3,5.5-0.3c2.7,0,4.4,0,5.1,0.2
		c0.7,0.1,1.2,0.3,1.5,0.8c0.3,0.3,0.3,0.8,0.5,1.5c0.1,0.7,0.1,1.7,0.1,3.1C113.7,69.3,113.6,70.1,113.5,70.6z"/>
	<path d="M144.1,58.2c-0.6-0.3-1.2-0.6-1.9-0.7c-0.6,0-2.5-0.1-5.9-0.1h-2.1h-11.8v20h5.8v-5.1h6h2.1c1.2,0,2,0,2.3,0.1
		c0.4,0.1,0.7,0.2,0.9,0.4c0.2,0.3,0.3,0.6,0.4,1.1c0.1,0.5,0.1,1.3,0.1,2.4v1.1h5.7v-1.9c0-1.8,0-2.9-0.1-3.4
		c-0.1-0.6-0.3-1-0.6-1.4c-0.5-0.6-1.4-1-2.6-1.1c1-0.2,1.8-0.4,2.3-0.8c0.5-0.4,0.8-1,1-1.7c0.2-0.7,0.3-1.7,0.3-3.1
		c0-1.8-0.2-3.1-0.4-3.8C145.4,59.3,144.8,58.8,144.1,58.2z M140.1,66.4c-0.1,0.3-0.3,0.5-0.5,0.7c-0.3,0.2-0.4,0.3-0.8,0.3
		c-0.3,0-1.1,0.1-2.5,0.1h-2.1h-6v-4.9h6h2c1.4,0,2.2,0,2.5,0c0.3,0.1,0.5,0.1,0.7,0.3c0.3,0.1,0.5,0.3,0.6,0.7
		c0.2,0.3,0.3,0.8,0.3,1.4C140.3,65.5,140.2,66.1,140.1,66.4z"/>
	<path d="M50,57.5h-4.4l-10,20h6.5l1.6-3.4H50h6.3l1.6,3.4h6.5l-9.9-20H50z M50,69.7h-4.2l3.7-7.6H50h0.6l3.7,7.6H50z"/>
	<path d="M90.3,61.3c-0.6-1.9-1.8-3.1-3.6-3.4c-0.8-0.2-1.6-0.3-2.4-0.3c-0.8-0.1-2.4-0.1-4.8-0.1h-1.2H66v20h12.5h1.2
		c2.1,0,3.7-0.1,4.6-0.2c0.9,0,1.8-0.2,2.6-0.3c1.7-0.4,2.8-1.5,3.4-3.2c0.3-0.8,0.4-1.6,0.5-2.5c0.1-0.9,0.1-2.3,0.1-4.1
		c0-1.6,0-2.8-0.1-3.7C90.7,62.7,90.6,62,90.3,61.3z M85.1,70.4c-0.1,0.6-0.3,1-0.7,1.3c-0.3,0.3-0.8,0.5-1.4,0.6
		c-0.7,0.1-1.8,0.2-3.2,0.2h-1.3h-6.8v-9.9h6.8h1.2c1.8,0,3,0.1,3.6,0.2c0.6,0.1,1,0.3,1.4,0.7c0.3,0.3,0.4,0.8,0.6,1.4
		c0.1,0.6,0.2,1.5,0.2,2.8C85.3,68.8,85.2,69.7,85.1,70.4z"/>
</g>
</svg>
