<?xml version="1.0" encoding="utf-8"?>
<!-- Generator: Adobe Illustrator 19.0.0, SVG Export Plug-In . SVG Version: 6.00 Build 0)  -->
<svg version="1.1" id="Слой_1" xmlns="http://www.w3.org/2000/svg" xmlns:xlink="http://www.w3.org/1999/xlink" x="0px" y="0px"
	 viewBox="0 0 55 30" style="enable-background:new 0 0 55 30;" xml:space="preserve">
<style type="text/css">
	.st0{fill-rule:evenodd;clip-rule:evenodd;fill:url(#SVGID_1_);}
	.st1{fill-rule:evenodd;clip-rule:evenodd;fill:url(#SVGID_2_);}
	.st2{fill-rule:evenodd;clip-rule:evenodd;fill:url(#SVGID_3_);}
	.st3{fill-rule:evenodd;clip-rule:evenodd;fill:url(#SVGID_4_);}
	.st4{fill-rule:evenodd;clip-rule:evenodd;fill:#878786;}
	.st5{fill-rule:evenodd;clip-rule:evenodd;fill:#C5C6C6;}
</style>
<linearGradient id="SVGID_1_" gradientUnits="userSpaceOnUse" x1="49.1845" y1="8.7762" x2="53.636" y2="8.7762">
	<stop  offset="0" style="stop-color:#FFFFFF"/>
	<stop  offset="1" style="stop-color:#EDEDED"/>
</linearGradient>
<path class="st0" d="M49.2,10c0.7-0.8,1.3-1.7,2-2.5c1,0.7,1.8,1.5,2.5,2.5H49.2z"/>
<linearGradient id="SVGID_2_" gradientUnits="userSpaceOnUse" x1="1.3621" y1="7.5262" x2="16.3613" y2="7.5262">
	<stop  offset="0" style="stop-color:#FFFFFF"/>
	<stop  offset="1" style="stop-color:#EDEDED"/>
</linearGradient>
<path class="st1" d="M16.4,5c-1.2,1.7-2.3,3.3-3.5,5H1.4c1.7-3,4.9-5,8.5-5H16.4z"/>
<linearGradient id="SVGID_3_" gradientUnits="userSpaceOnUse" x1="15.9594" y1="5.0131" x2="36.6935" y2="5.0131">
	<stop  offset="0" style="stop-color:#FFFFFF"/>
	<stop  offset="1" style="stop-color:#EDEDED"/>
</linearGradient>
<path class="st2" d="M16,10c1.9-2.7,3.8-5.4,5.8-8.1C22.7,0.6,24.1,0,26.3,0l10.3,0c-2.4,3.3-4.8,6.7-7.2,10H16z"/>
<linearGradient id="SVGID_4_" gradientUnits="userSpaceOnUse" x1="32.572" y1="5.0131" x2="53.3057" y2="5.0131">
	<stop  offset="0" style="stop-color:#FFFFFF"/>
	<stop  offset="1" style="stop-color:#EDEDED"/>
</linearGradient>
<path class="st3" d="M32.6,10c1.9-2.7,3.8-5.4,5.8-8.1C39.3,0.6,40.7,0,43,0l10.3,0c-2.4,3.3-4.8,6.7-7.2,10H32.6z"/>
<path class="st4" d="M16.6,28.1C15.7,29.4,14.3,30,12,30L1.7,30c2.4-3.3,4.8-6.6,7.2-10h13.5C20.5,22.7,18.6,25.4,16.6,28.1"/>
<path class="st4" d="M33.3,28.1c-0.9,1.3-2.3,1.9-4.6,1.9l-10.3,0c2.4-3.3,4.8-6.6,7.2-10H39C37.1,22.7,35.2,25.4,33.3,28.1"/>
<path class="st5" d="M25.5,20c2.4-3.3,4.7-6.7,7.1-10h13.5c-2.4,3.3-4.7,6.7-7.1,10H25.5z"/>
<path class="st5" d="M8.8,20c2.4-3.3,4.7-6.7,7.1-10h13.5c-2.4,3.3-4.7,6.7-7.1,10H8.8z"/>
<path class="st5" d="M12.9,10c-2.4,3.3-4.7,6.7-7.1,10H1.4C0.5,18.6,0,16.8,0,15c0-1.8,0.5-3.5,1.4-5H12.9z"/>
<path class="st4" d="M5.8,20c-0.7,0.8-1.3,1.7-2,2.5C2.9,21.8,2,21,1.4,20H5.8z"/>
<path class="st5" d="M42.1,20c2.4-3.3,4.7-6.7,7.1-10h4.5c0.9,1.5,1.4,3.2,1.4,5c0,1.8-0.5,3.6-1.4,5H42.1z"/>
<path class="st4" d="M38.6,25c1.1-1.7,2.3-3.3,3.4-5h11.5c-1.7,3-4.9,5-8.4,5H38.6z"/>
</svg>
