<?xml version="1.0" encoding="utf-8"?>
<!-- Generator: Adobe Illustrator 19.0.0, SVG Export Plug-In . SVG Version: 6.00 Build 0)  -->
<svg version="1.1" id="Capa_1" xmlns="http://www.w3.org/2000/svg" xmlns:xlink="http://www.w3.org/1999/xlink" x="0px" y="0px" fill="white"
	 viewBox="1 10 54 36" style="enable-background:new 1 10 54 36;" xml:space="preserve">
<g>
	<g>
		<g>
			<path d="M21.4,25.7c-0.6,0-1.2,0.1-2,0.3l-0.2,1.3l0.1,0l0.2-0.1C19.9,27,20.5,27,21,27c0.8,0,1.1,0.1,1.1,0.5
				c0,0.1,0,0.2-0.1,0.4c-0.3,0-0.5,0-0.7,0c-1.9,0-3,0.8-3,2.2c0,0.9,0.6,1.6,1.6,1.6c0.8,0,1.4-0.2,1.8-0.7l0,0.6h1.4l0-0.2l0-0.2
				l0-0.3l0.1-0.4l0.4-2c0.1-0.6,0.1-0.8,0.1-1.1C23.7,26.2,22.9,25.7,21.4,25.7z M20.6,30.4c-0.4,0-0.6-0.2-0.6-0.6
				c0-0.6,0.5-0.9,1.5-0.9c0.1,0,0.2,0,0.4,0C21.8,29.8,21.3,30.4,20.6,30.4z"/>
			<path d="M26.9,31.6c0.6,0,1.2-0.1,1.7-0.2l0.3-1.4c-0.6,0.2-1.2,0.4-1.8,0.4c-1,0-1.5-0.3-1.5-1c0-0.1,0-0.1,0-0.2h3.4
				c0.1-0.6,0.2-1,0.2-1.4c0-1.3-0.9-2.1-2.3-2.1c-1.7,0-3,1.4-3,3.4C24,30.7,25,31.6,26.9,31.6z M27,27c0.5,0,0.8,0.3,0.8,0.7
				c0,0.1,0,0.2,0,0.3l-1.9,0C26,27.3,26.4,27,27,27z"/>
			<path d="M29.4,18.7h-2.8c-0.4,0.5-0.7,1-1,1.6h4.9C30.2,19.8,29.8,19.2,29.4,18.7z"/>
			<path d="M25.4,35.7h5.1c0.3-0.5,0.6-1,0.8-1.6h-6.8C24.8,34.7,25.1,35.2,25.4,35.7z"/>
			<polygon points="16.1,24.5 14.1,28.8 14,24.5 11.3,24.5 10,31.5 11.6,31.5 12.6,26.1 12.9,31.5 14.4,31.5 16.8,26.1 15.8,31.5 
				17.5,31.5 18.8,24.5 			"/>
			<path d="M31.4,21.8h-6.6c-0.4,0.8-0.7,1.4-0.8,1.6h8C31.8,22.8,31.6,22.3,31.4,21.8z"/>
			<path d="M28,38.7C28,38.7,28,38.7,28,38.7L28,38.7c0.6-0.5,1.1-1,1.5-1.6h-3C27,37.7,27.5,38.3,28,38.7z"/>
			<path d="M29.8,27.6c0,0.7,0.4,1.2,1.3,1.6c0.7,0.3,0.8,0.4,0.8,0.6c0,0.4-0.3,0.5-1,0.5c-0.5,0-1-0.1-1.6-0.2l-0.2,1.3l0.1,0
				l0.3,0.1c0.1,0,0.3,0,0.5,0.1c0.4,0,0.7,0,0.9,0c1.8,0,2.7-0.6,2.7-1.9c0-0.8-0.3-1.2-1.2-1.6c-0.7-0.3-0.8-0.4-0.8-0.6
				c0-0.3,0.3-0.5,0.8-0.5c0.3,0,0.8,0,1.2,0.1l0.2-1.3c-0.5-0.1-1.1-0.1-1.5-0.1C30.5,25.7,29.8,26.5,29.8,27.6z"/>
			<path d="M1,10v36h54V10H1z M52.2,28c0,8-6.5,14.5-14.5,14.5c-3.7,0-7.2-1.4-9.7-3.7c-2.6,2.3-6,3.7-9.7,3.7
				c-8,0-14.5-6.5-14.5-14.5c0-8,6.4-14.4,14.4-14.5c0,0,0.1,0,0.1,0c3.7,0,7.1,1.4,9.7,3.7c2.6-2.3,6-3.7,9.7-3.7
				C45.7,13.5,52.2,20,52.2,28C52.2,28,52.2,28,52.2,28z"/>
			<path d="M41.6,25.8c-0.1-0.1-0.2-0.1-0.2-0.1c-0.1,0-0.1,0-0.1,0c-0.1,0-0.1,0-0.2,0c-0.6,0-1,0.3-1.5,0.9l0.2-0.9h-1.6l-1,5.7
				h1.7c0.6-3.5,0.9-4.1,1.7-4.1c0.1,0,0.1,0,0.2,0l0.2,0L41.6,25.8z"/>
			<path d="M44.3,25.6c-2,0-3.4,1.4-3.4,3.4c0,1.4,0.8,2.6,2.7,2.6c1.8,0,3.1-0.8,3.3-2.7c0-0.3,0-0.4,0-0.7
				C47,26.8,46.1,25.6,44.3,25.6z M45.1,28.9c-0.1,0.9-0.9,1.4-1.3,1.4c-0.6,0-1-0.5-1-1.3c0-0.9,0.5-1.9,1.4-1.9
				c0.7,0,0.9,0.6,0.9,1.2C45.2,28.4,45.2,28.6,45.1,28.9z"/>
			<path d="M36.3,27.2h0.9l0.2-1.4h-0.9l0.2-1.3h-1.7l-0.8,4.3l-0.1,0.4l-0.1,0.6c0,0.2,0,0.3,0,0.5c0,0.8,0.5,1.2,1.4,1.2
				c0.4,0,0.8-0.1,1.2-0.2l0.2-1.3c-0.1,0-0.3,0.1-0.5,0.1c-0.4,0-0.6-0.1-0.6-0.4c0-0.1,0-0.1,0-0.2L36.3,27.2z"/>
		</g>
	</g>
</g>
</svg>
