<?xml version="1.0" encoding="utf-8"?>
<!-- Generator: Adobe Illustrator 19.0.0, SVG Export Plug-In . SVG Version: 6.00 Build 0)  -->
<svg version="1.1" id="Capa_1" xmlns="http://www.w3.org/2000/svg" fill="white" xmlns:xlink="http://www.w3.org/1999/xlink" x="0px" y="0px"
	 viewBox="1 10 54 36" style="enable-background:new 1 10 54 36;" xml:space="preserve">
<g>
	<g>
		<g>
			<path d="M23,27.2h0.8l0.2-1.5h-0.8l0.2-0.9h-1.5c0,0-0.9,5.1-0.9,5.7c0,0.9,0.5,1.3,1.2,1.3c0.6,0,1-0.2,1.2-0.2l0.2-1.3
				c-0.1,0-0.3,0-0.4,0c-0.5,0-0.6-0.3-0.6-0.5L23,27.2z"/>
			<path d="M26.5,31.8c1.1,0,1.6-0.3,1.6-0.3l0.3-1.5c0,0-0.9,0.4-1.6,0.4c-1.7,0-1.4-1.2-1.4-1.2h3.1c0,0,0.2-1,0.2-1.4
				c0-1-0.5-2.3-2.2-2.3c-1.6,0-2.7,1.7-2.7,3.6C23.8,31.3,25.2,31.8,26.5,31.8z M26.5,26.9c0.9,0,0.7,1,0.7,1.1h-1.7
				C25.5,27.9,25.7,26.9,26.5,26.9z"/>
			<path d="M28,38.8C28,38.7,28,38.7,28,38.8C28,38.7,28,38.7,28,38.8L28,38.8c0.6-0.5,1.1-1,1.5-1.6h-3C27,37.7,27.5,38.3,28,38.8z
				"/>
			<path d="M19.7,27c0.2,0,1.1,0.1,1.1,0.1l0.2-1.4c0,0-0.5-0.1-1.4-0.1c-1.1,0-2.3,0.5-2.3,2c0,1.8,1.9,1.6,1.9,2.3
				c0,0.5-0.5,0.5-1,0.5c-0.7,0-1.4-0.2-1.4-0.2l-0.2,1.4c0,0,0.4,0.2,1.7,0.2c0.3,0,2.3,0.1,2.3-2c0-1.9-1.8-1.5-1.8-2.3
				C18.9,27.1,19.2,27,19.7,27z"/>
			<path d="M14.8,25.6c-1.1,0-1.9,0.3-1.9,0.3l-0.2,1.3c0,0,0.7-0.3,1.7-0.3c0.6,0,1,0.1,1,0.5c0,0.3-0.1,0.4-0.1,0.4s-0.5,0-0.7,0
				c-1.3,0-2.7,0.6-2.7,2.3c0,1.4,0.9,1.7,1.5,1.7c1.1,0,1.6-0.7,1.6-0.7L15,31.7h1.4l0.6-4.2C16.9,25.6,15.4,25.6,14.8,25.6z
				 M14,30.5c-0.5,0-0.6-0.4-0.6-0.6c0-0.4,0.2-0.9,1.4-0.9c0.3,0,0.3,0,0.3,0C15.2,29.3,15,30.5,14,30.5z"/>
			<path d="M29.4,18.7h-2.8c-0.4,0.5-0.7,1-1,1.6h4.9C30.2,19.8,29.8,19.2,29.4,18.7z"/>
			<path d="M31.4,21.8h-6.6c-0.4,0.8-0.7,1.4-0.8,1.6h8C31.8,22.8,31.6,22.3,31.4,21.8z"/>
			<polygon points="10.1,24.3 8.5,28.9 8.5,24.3 6.2,24.3 5,31.7 6.5,31.7 7.4,26.2 7.5,31.7 8.6,31.7 10.6,26.2 9.7,31.7 
				11.3,31.7 12.5,24.3 			"/>
			<path d="M25.4,35.7h5.1c0.3-0.5,0.6-1,0.8-1.6h-6.8C24.8,34.7,25.1,35.2,25.4,35.7z"/>
			<path d="M33.7,28.6c0-1.8,0.9-2.8,2-2.8c0.8,0,1.4,0.4,1.4,0.4l0.3-1.6c0,0-0.9-0.4-1.7-0.4c-1.8,0-3.5,1.5-3.5,4.4
				c0,1.9,0.9,3.2,2.8,3.2c0.5,0,1.3-0.2,1.3-0.2l0.3-1.7c0,0-0.8,0.4-1.3,0.4C34.2,30.3,33.7,29.5,33.7,28.6z"/>
			<path d="M32.1,25.6c-0.7,0-1.2,0.9-1.2,0.9l0.1-0.9h-1.4l-1,6h1.6c0.4-2.6,0.5-4.6,1.6-4.2c0.2-1,0.4-1.4,0.6-1.8
				C32.4,25.7,32.3,25.6,32.1,25.6z"/>
			<path d="M39.8,25.6c-1.1,0-1.9,0.3-1.9,0.3l-0.2,1.3c0,0,0.7-0.3,1.7-0.3c0.6,0,1,0.1,1,0.5c0,0.3-0.1,0.4-0.1,0.4s-0.5,0-0.7,0
				c-1.3,0-2.7,0.6-2.7,2.3c0,1.4,0.9,1.7,1.5,1.7c1.1,0,1.6-0.7,1.6-0.7L40,31.7h1.4l0.6-4.2C41.9,25.6,40.4,25.6,39.8,25.6z
				 M39.1,30.5c-0.5,0-0.6-0.4-0.6-0.6c0-0.4,0.2-0.9,1.4-0.9c0.3,0,0.3,0,0.3,0C40.2,29.3,40,30.5,39.1,30.5z"/>
			<path d="M45.4,25.7c0,0-0.1,0-0.3,0c-0.7,0-1.2,0.9-1.2,0.9l0.1-0.9h-1.4l-1,6h1.6c0.5-2.6,0.5-4.6,1.6-4.2
				C45,26.5,45.2,26.1,45.4,25.7z"/>
			<path d="M1,10v36h54V10H1z M52.2,28c0,8-6.5,14.5-14.5,14.5c-3.7,0-7.2-1.4-9.7-3.7c-2.6,2.3-6,3.7-9.7,3.7
				c-8,0-14.5-6.5-14.5-14.5c0-8,6.4-14.4,14.4-14.5c0,0,0.1,0,0.1,0c3.7,0,7.1,1.4,9.7,3.7c2.6-2.3,6-3.7,9.7-3.7
				C45.7,13.5,52.2,20,52.2,28C52.2,28,52.2,28,52.2,28z"/>
			<path d="M44.6,29.3c0,1.3,0.6,2.5,1.9,2.5c0.9,0,1.4-0.6,1.4-0.6l-0.1,0.6h1.5l1.2-7.3l-1.5,0l-0.3,2.1c0,0-0.6-0.8-1.5-0.8
				C45.8,25.6,44.6,27.3,44.6,29.3z M48.3,28.4c0,0.8-0.4,1.9-1.2,1.9c-0.6,0-0.8-0.5-0.8-1.2c0-1.2,0.5-2,1.2-2
				C48,27.1,48.3,27.5,48.3,28.4z"/>
		</g>
	</g>
</g>
</svg>
