<?xml version="1.0" encoding="utf-8"?>
<!-- Generator: Adobe Illustrator 19.0.0, SVG Export Plug-In . SVG Version: 6.00 Build 0)  -->
<svg version="1.1" id="Слой_1" xmlns="http://www.w3.org/2000/svg" xmlns:xlink="http://www.w3.org/1999/xlink" x="0px" y="0px" fill="#fff"
	 viewBox="0 0 9.6 16" style="enable-background:new 0 0 9.6 16;" xml:space="preserve">
<path d="M4.8,8.1c2.2,0,4-1.8,4-4c0-2.2-1.8-4-4-4c-2.2,0-4,1.8-4,4C0.8,6.3,2.6,8.1,4.8,8.1z M4.8,2.1c1.1,0,2,0.9,2,2
	c0,1.1-0.9,2-2,2s-2-0.9-2-2C2.8,2.9,3.7,2.1,4.8,2.1z M9.5,8.6C9.3,8.1,8.6,7.8,7.8,8.4c-1.1,0.9-3,0.9-3,0.9s-1.8,0-3-0.9
	C1,7.8,0.4,8.1,0.1,8.6c-0.4,0.8,0.1,1.2,1.1,1.8C2.1,11,3.3,11.2,4,11.3l-0.6,0.6c-0.9,0.9-1.8,1.8-2.4,2.4c-0.4,0.4-0.4,1,0,1.3
	l0.1,0.1c0.4,0.4,1,0.4,1.3,0l2.4-2.4c0.9,0.9,1.8,1.8,2.4,2.4c0.4,0.4,1,0.4,1.3,0l0.1-0.1c0.4-0.4,0.4-1,0-1.3l-2.4-2.4l-0.6-0.6
	c0.8-0.1,2-0.3,2.8-0.8C9.4,9.8,9.9,9.4,9.5,8.6z"/>
</svg>
