<?xml version="1.0" encoding="utf-8"?>
<!-- Generator: Adobe Illustrator 19.0.0, SVG Export Plug-In . SVG Version: 6.00 Build 0)  -->
<svg version="1.1" id="Слой_1" xmlns="http://www.w3.org/2000/svg" xmlns:xlink="http://www.w3.org/1999/xlink" x="0px" y="0px"
	 viewBox="0 0 16.4 16.4" style="enable-background:new 0 0 16.4 16.4;" xml:space="preserve">
<path d="M10.9,16.4c-1.3,0-2.6-0.5-3.6-1.5L1.5,9.1C0.5,8.1,0,6.9,0,5.5c0-1.4,0.5-2.7,1.5-3.6L3.4,0l4.9,4.9L6.5,6.6l3.2,3.2
	l1.7-1.7l4.9,4.9l-1.9,1.9C13.5,15.9,12.2,16.4,10.9,16.4z M3.4,2.8L2.9,3.3C2.3,3.9,2,4.7,2,5.5s0.3,1.6,0.9,2.2l5.8,5.8
	c1.2,1.2,3.2,1.2,4.4,0l0.5-0.5L11.5,11l-0.5,0.5c-0.7,0.7-1.9,0.7-2.6,0L5,7.9C4.3,7.2,4.3,6.1,5,5.4l0.5-0.5L3.4,2.8z"/>
</svg>
