<?xml version="1.0" encoding="utf-8"?>
<!-- Generator: Adobe Illustrator 19.0.0, SVG Export Plug-In . SVG Version: 6.00 Build 0)  -->
<svg version="1.1" id="Слой_1" xmlns="http://www.w3.org/2000/svg" xmlns:xlink="http://www.w3.org/1999/xlink" x="0px" y="0px"
	 viewBox="0 0 14 16.3" style="enable-background:new 0 0 14 16.3;" xml:space="preserve">
<g>
	<path d="M7,4C5.3,4,4,5.3,4,7s1.3,3,3,3s3-1.3,3-3S8.7,4,7,4z M7,8C6.4,8,6,7.6,6,7s0.4-1,1-1s1,0.4,1,1S7.6,8,7,8z"/>
	<path d="M7,0C3.1,0,0,3.1,0,7c0,3.7,5.7,8.3,6.4,8.8L7,16.3l0.6-0.5C8.3,15.3,14,10.7,14,7C14,3.1,10.9,0,7,0z M7,13.7
		C4.9,11.9,2,8.9,2,7c0-2.8,2.2-5,5-5s5,2.2,5,5C12,8.9,9.1,11.9,7,13.7z"/>
</g>
</svg>
