<?xml version="1.0" encoding="utf-8"?>
<!-- Generator: Adobe Illustrator 19.0.0, SVG Export Plug-In . SVG Version: 6.00 Build 0)  -->
<svg version="1.1" id="Слой_1" xmlns="http://www.w3.org/2000/svg" xmlns:xlink="http://www.w3.org/1999/xlink" x="0px" y="0px" fill="#535353"
	 viewBox="0 0 547.6 547.7" style="enable-background:new 0 0 547.6 547.7;" xml:space="preserve">
<g id="m46jrH_1_">
	<g>
		<path d="M0,272.3C-0.7,122.9,125.5-3.2,279.9,0.1c142.4,3,271.5,120.7,267.6,280.1C544,426.4,428.1,550.4,267.4,547.7
			C117.4,545.1-0.4,423.3,0,272.3z M273.9,9.1C125.4,9.5,11.7,127.4,9,268.9C6,421.5,129.1,537.8,270.7,539
			c149.1,1.3,267.1-117.9,267.9-262.3C539.6,127.1,420.9,9.6,273.9,9.1z"/>
		<path d="M275.8,463.2C167.1,464,84,375.5,84.3,271.7c0.3-104,85.5-191.5,194.3-190.4c105.6,1.1,184.6,84.5,190,178.9
			C475,374.3,386.4,463.8,275.8,463.2z M438.4,283.3c-0.9-5.5-3.1-10.8,0.4-15.9c0.9-1.2,1.4-2.9,1.1-4.7c-5-25.7-11.7-51-21.8-75.2
			c-0.8-2-2.3-3.1-4.1-4.1c-16-8.6-32-17.2-48-25.9c-2.2-1.2-3.1-1-4.5,1.3c-5.5,9-11.7,17.6-18.2,25.4c-5.2-5.4-1.1-9.2,1.9-13.2
			c3.6-5,7.1-10,10.7-15c1.6-2.3,1.9-4-0.5-6.3c-10.2-10-20.1-20.4-30-30.6c-1.7-1.7-3.5-2.7-6-3.1c-11.5-2-23.2-0.6-34.8-1.5
			c-12.9-1.1-26-0.2-38.9,1c-4.6,0.4-9.9-1-13.8,2.5c-12.2,11.3-24.2,22.9-36.2,34.4c-1.1,1-2.1,1.9-0.6,3.7
			c9.4,10.6,18.6,21.3,27.9,31.9c1.2,1.4,2.5,2.1,4.7,2c12.3-0.4,24.6-0.4,37-0.7c5.1-0.1,10.4-0.9,11.9,6.1
			c0.2,0.7,1.1,1.2,1.6,1.9c7.2,9,6.5,11-4.7,14c-4.5,1.2-9,2.9-9.3,8.3c-0.4,5.5-3,5.4-6.9,3.8c-4-1.6-6.3,0.2-7.3,4.1
			c-0.2,0.9,0.1,2.1-1.2,2.4c-3.3-1.7-5-7.3-10.5-3.7c0.4-2,0.7-3.5,0.9-4.9c0.2-1.1-0.3-2-1.2-2.5c-1.1-0.5-2.1,0.1-2.6,0.8
			c-4.1,5.7-11.3,8.2-14.8,14.6c-0.4,0.7-0.5,2.5-2.4,1.4c-5.5-3.2-8-11.4-4.8-16.9c2.4-4.2,6.7-4.5,10.7-5.2
			c5.1-0.9,10.1-1.8,14.7-4.1c3-1.5,4.1-4.1,3.3-7c-0.9-3.2-3.6-1.8-5.9-1.7c-6.7,0.4-13,2.5-19.2,4.6c-1,0.3-1.9,1.6-3.2,0.2
			c1-2.7,1.9-5.6,3.3-8.2c1.4-2.7,0.7-4.6-1.1-6.7c-8.2-10-16.5-20-25.2-29.6c-1.8-1.9-2.9-2.3-5.2-1c-12.7,6.8-25.4,13.5-38.2,20.1
			c-3.3,1.7-5.1,4-6.4,7.5c-7.8,22.1-14.4,44.7-22.6,66.7c-2.4,6.4-6.3,13.5,0.1,20.6c2.1,2.3,0.4,6.1-1.7,9.3
			c-1.3-2.1-2.4-3.8-3.4-5.5c-6.2-10.4-6.2-10.3-18.2-8.7c-3.1,0.4-4.1,1.6-4.1,4.8c-0.1,9.2,0.9,18.3,2.3,27.3
			c4.4,27.3,14.2,52.5,29.8,75.3c5.5,8,5.5,8,13.3,2.3c1.2-0.9,2.3-2,3.6-2.6c2.6-1.1,2.6-2.9,2.3-5.3c-1.9-13.9-3.7-27.9-5.6-41.8
			c-1.1-8.2-2.2-16.4-3.4-24.6c-0.6-3.6,2.1-3.6,4.1-4.2c2.8-0.8,2.3,1.8,2.5,3.1c0.8,5.9,1.5,11.8,2.2,17.7
			c1.7,14.3,3.3,28.6,5.2,42.8c0.5,3.4,1,6.8,4.5,9.4c21.3,16.3,43.4,31.4,65.6,46.4c1.3,0.9,2.2,1.5,4,1
			c16.4-4.7,32.9-8.6,49.7-11.5c3.3-0.6,4.8-2.1,4.9-5.9c0.5-11-0.2-22-0.4-32.9c0-2.6-0.7-5.3,3.7-5.2c4.4,0.1,2.6,3.1,2.6,4.9
			c0.1,10.7,0.3,21.3-0.1,32c-0.2,4.4,1.5,5.5,5.4,6.3c16.4,3.1,32.8,6,48.8,10.7c1.8,0.5,3.5,1,5.5-0.4
			c7.7-5.5,15.6-10.6,23.6-15.8c14.1-9.1,26.6-20.2,38.9-31.6c2.3-2.1,3.5-4.2,4-7c0.5-3.3,0.6-6.6,1.2-9.9
			c1.8-9.1,2.1-18.4,3.1-27.6c0.1-0.9,0.3-2.7,1.3-2.1c2.2,1.2,5.7,1.6,5.1,5.6c-1.2,7.9-2.1,15.8-3.5,23.6
			c-1.7,9.4-3.4,18.7,7.8,23.9c0.1,0.1,0.3,0.2,0.4,0.3c2.4,2.3,4.1,2.6,6.4-0.7c12.8-18.7,21.7-39,27.4-60.8
			c3.9-14.7,5.2-29.7,5.7-44.7c0.3-9.2,0.1-9.2-8.5-8.7c-0.5,0-1,0.1-1.5,0c-4.4-0.6-6.6,1.6-8.1,5.6
			C443,274.4,440.5,278.8,438.4,283.3z M278.4,458.3c8,0.4,17.9-0.7,27.7-2.3c10.4-1.7,20.7-3.9,30.6-7.7c1.8-0.7,3.7-1,3.2-3.5
			c-1.1-5.3-2.4-10.6-3.4-15.9c-0.5-2.7-2.5-3.1-4.6-3.7c-12.1-3.3-24.4-5.8-36.7-8c-5.3-0.9-10.4-3.4-15.9-2.2
			c-18.4,4-36.7,8.1-55,12.2c-1.6,0.4-3.2,0.6-3.4,2.9c-0.5,4.8-1.2,9.5-2,14.2c-0.6,3.5,0.5,5.2,4.2,6.2
			C240.6,455.6,258.3,458.4,278.4,458.3z M227.9,111.9c-2.7-4.2-5.6-8.4-8.2-12.8c-1.2-2-2.4-2.2-4.4-1.5c-5.1,1.9-10.1,4-15.1,6.2
			c-28.7,12.9-52.7,31.6-71.6,56.8c-2.4,3.1-7,6.5-6,9.7c0.9,2.8,6.3,4,9.7,6.1c2.6,1.6,5,2.6,8.2,0.8c10.3-5.8,20.9-11.2,31.3-17
			c5.3-3,11.4-4.9,15.9-9c12.9-11.9,25.6-24.2,38.4-36.3C226.9,114.1,228,113.4,227.9,111.9z M431.9,171c-0.7-1.1-1.3-2.3-2.1-3.4
			c-20-28.7-46-50.1-77.8-64.4c-3.8-1.7-7.8-4.7-11.4-4.3c-4,0.4-6,5.7-8.9,8.9c-0.7,0.7-1.3,1.5-2.1,2.2c-2.4,2-2,3.5,0.2,5.6
			c8.2,8,16,16.5,24.4,24.2c3.9,3.6,6.7,8.3,11.4,10.9c16,8.6,32,17.2,48.1,25.7c9,4.7,9.4,4.6,16.5-2.9
			C431,172.7,432,172.2,431.9,171z"/>
		<path d="M185.7,485.2c-5.8-0.4-11.6-0.8-17.4-1.3c-1.9-0.2-3.6,0.1-5.3,0.8c-0.5,0.2-0.9,1-0.9,1.6c-0.1,0.9,0.8,0.9,1.4,1
			c6.6,0.2,9.6,5,12.7,9.8c1.2,2,2.3,4.1,3.9,5.7c1.9,1.9,4.4,1.4,6.2-0.3c2.2-2.1,0.1-2.6-1.5-3.7c-1.5-1-2.2-3.3-0.7-5.2
			c1.4-1.9,3.2-2.2,5.2-1.1c4.2,2.3,5.5,8.1,2.8,12c-5.2,7.6-14.5,7.8-19.8,0.2c-2.8-4.1-5.2-8.5-9-11.8c-1-0.9-1.9-2.2-3.4-1.7
			c-1.8,0.6-1,2.2-1,3.4c0.1,2.3,0.1,4.5-3,4.6c-3,0.1-4.6-1.4-4.8-4.4c-0.6-6.3,4-13.1,10.4-15.3c7.8-2.7,15.5-2.8,23.5-0.8
			c4.7,1.2,9.7-0.8,11.4-4.7c1.8-4.2,1.1-8-2.3-11.3c-3.7-3.6-7.9-5.9-13.3-5.6c-4.2,0.3-5.7,2.2-4.3,6.1c0.8,2.1,0.2,3.2-1.3,4.2
			c-1.7,1.2-3.4,1-4.9-0.5c-3.4-3.2-2.9-9.1,1.1-12.2c5.2-4,11-4,17-2.3c11.8,3.2,17.6,15.2,12.8,25.6
			C197.8,484.8,192.1,485.4,185.7,485.2z"/>
		<path d="M308.8,526.2c-4.6-0.1-10.4-3.1-13.5-9.6c-4.8-10.2-7-21-4.3-32.2c2.3-9.6,9.8-13,18.5-13.7c7.2-0.6,13.3,2.4,17,9
			c5.7,10.2,7.1,21.2,5.1,32.5C330,520.9,321.9,526.2,308.8,526.2z M297.9,491.8c0.2,7.3,1.4,14.5,4.2,21.2
			c2.3,5.5,6.7,7.9,12.7,7.2c5.3-0.6,8.3-4,9.3-8.9c2.1-10.2-0.3-20-4.6-29.2c-2.6-5.6-8.9-7.4-14.4-4.9
			C298.8,480.1,297.5,485.6,297.9,491.8z"/>
		<path d="M223,505.8c0.1-7.9,1.4-15.5,5.1-22.5c4.6-8.8,12-12.6,20.8-10.9c9.8,1.9,15.9,7.7,16.8,17.6c0.8,9.8-1,19.5-6.2,28.1
			c-5.4,8.9-13.1,11.6-22.9,8.8c-9-2.6-13.5-9.1-13.6-19.5C223,506.8,223,506.3,223,505.8z M230.6,506.3c0,0.3-0.3,1.3-0.3,2.2
			c-0.1,7,3.1,11.5,9.5,13.3c4.2,1.2,9.9-1.1,12.2-5.5c4.7-8.8,6.6-18.3,5.9-28.3c-0.3-4.7-4.7-9-9.2-9.9c-5.3-1-9.9,1.1-12.4,6
			C232.8,490.9,231.1,498.1,230.6,506.3z"/>
		<path d="M72.8,172.7c3.6,1.8,5.7,3.2,8,4c2.8,1.1,3.2,2.3,1.9,5.1c-1.6,3.3-3.2,1.7-5.1,0.7c-5.9-3.1-11.7-6.2-17.6-9
			c-2.4-1.1-2.7-2-1.5-4.4c1.2-2.3,2.3-2.8,4.5-1.4c1.6,1,3.5,1.7,5.7,2.8c0.2-6.4-8.1-11.8-1.1-18.3c2.6,3.4,3.3,7.7,4.8,11.5
			c1.1,2.5,2.5,2.8,4.6,2.4c4.6-1,9.2-2.1,14.5-3.4c-4.8-6.8-9.3-13.3-13.9-19.7c-1.5-2.1-2.4-3.8-0.6-6.5c1.8-2.7,3.5-2,5.8-1.4
			c6.7,1.8,13.4,3.3,20.1,5c1.2,0.3,3.7-0.4,3,2c-0.5,1.6-1.3,4.6-3.7,3.9c-3.8-1.2-5.2,0.7-7,3.3c-1.8,2.6-2.8,4.8-0.3,7.3
			c0.3,0.3,0.5,1,0.4,1.3c-2.2,3.9-4,8.1-6.8,11.4c-1.3,1.5-4.6,1.3-7,1.7C79,171.6,76.6,172,72.8,172.7z M89.5,149.5
			c0.6-2.4,3.9-3.8,2.7-5.3c-1.8-2.3-5.1-2.2-8.7-2.7C85.6,144.4,87.3,146.6,89.5,149.5z"/>
		<path d="M478.2,174.8c6,1.3,10.6-0.3,15.3-0.6c4.9-0.4,5.1,3.5,6.3,6.3c1.4,3.3-2.2,3.1-3.7,3.9c-5.4,2.9-11,5.4-16.5,8.2
			c-2.5,1.3-3.9,1.2-5.3-1.6c-1.3-2.7-0.5-3.7,1.9-4.7c3.8-1.5,7.4-3.4,11-6.2c-4.2,0.5-8.4,1.1-12.6,1.6c-1.8,0.2-3.6,1.2-5.1-1.3
			c-1.5-2.7-0.1-3.8,1.4-5.4c3-3.2,5.9-6.5,8.6-9.5c-3.3,1.5-7.2,3-10.9,5c-2.4,1.3-3.4,0.6-4.7-1.6c-1.4-2.5-0.5-3.5,1.7-4.5
			c6-2.7,12-5.6,18-8.3c1.3-0.6,3-3.3,4.3-0.2c1.1,2.7,5,5.1,1.1,8.6C485.6,167.7,482.2,171,478.2,174.8z"/>
		<path d="M154.9,87.2c-0.2,2.2-1.2,4.5-3,6.6c-1.5,1.7-3.8,2.8-2.3,6.2c0.6,1.4-3.4,4.2-4.5,3.2c-2.6-2.5-4-0.5-5.8,0.4
			c-5.4,2.7-10.6,1.6-14.1-2.9c-3.2-4.2-2.7-9.7,1.2-14c1.4-1.6,3.9-2.6,1.7-5.7c-0.5-0.7,3.1-4.2,4.7-3c2.6,2.1,3.8,0.3,5.5-0.6
			C145.8,73.5,154.7,78.5,154.9,87.2z M139.9,96.6c-2.2-3.1-4-6.1-6.6-8.3c-0.2-0.2-1.3,0.3-1.7,0.7c-1.5,1.5-3,3.1-2,5.6
			c1,2.4,2.5,4.5,5.3,4.6C136.7,99.1,138.5,98.1,139.9,96.6z M142.5,82c-1.9,0.3-3.8,0.4-4.4,2.5c-0.2,0.7,6.1,8.7,6.5,8.4
			c1.9-1.3,3.9-2.7,3.5-5.4C147.7,84.1,145.7,82.3,142.5,82z"/>
		<path d="M400.9,491.2c0.1,1.6-1.1,2.4-2.6,3.1c-7.6,3.2-14.8,7.2-21.5,12c-1.1,0.8-2.7,1.5-3.5,0c-0.8-1.7-1.1-3.7,0.9-5.3
			c2.2-1.7,6.5-0.9,6.5-5c0-3-2.2-5.4-3.3-8.2c-3.5-8.6-8.1-16.5-12.4-24.7c-2.1-3.9-4.5-3.8-7.6-1.3c-0.9,0.7-1.7,1.6-2.8,2
			c-1.6,0.6-2.4-0.8-3.1-1.8c-1.3-1.9,0.4-2.9,1.5-3.5c3.5-1.8,7-3.6,9.9-6.4c2.1-2,2.9,0.5,3.6,1.6c3.1,4.6,5.8,9.5,8.3,14.6
			c3.5,7.2,7.5,14.3,11,21.5c2,4,4.3,3.8,7.4,1.5c1.3-1,2.6-2.2,4-2.9C399.7,487.6,401,488.5,400.9,491.2z"/>
		<path d="M50.8,262.3c-4.1-3.1-8-6.3-12.3-9c-2.5-1.6-2.5-3.6-2.1-6c0.6-3.1,3-2,4.8-2c6.6,0.2,13.3,0.8,19.9,1
			c3.2,0.1,2.7,2,2.8,4c0.1,2.4-0.9,3.1-3.3,3c-3.7-0.2-7.4-0.1-12.5-0.1c4.9,3.5,8.6,6.5,12.6,9c3.2,1.9,2.4,4.7,1.8,7
			c-0.6,2.4-2.9,1.2-4.7,1.1c-6.5-0.5-12.9-0.9-19.4-1.2c-2.1-0.1-3.6-0.4-3.3-3.1c0.2-2.1,0.4-3.9,3.3-3.8
			C42.5,262.4,46.4,262.3,50.8,262.3z"/>
		<path d="M54,230.3c-3.4-3.3-6.7-6.9-10.4-9.9c-2.5-2.1-2-4.6-1.2-6.8c0.9-2.6,3.4-1.2,5.2-0.9c6,1.1,12,2.5,18,3.6
			c3.1,0.6,3.8,2.2,3.3,5.1c-0.5,3.2-2.3,2.4-4.4,1.9c-3.6-0.9-7.4-1.5-11.8-2.3c3.4,4.7,7.8,7.4,11.2,10.9c1.8,1.8,2.1,3.6,1.7,5.8
			c-0.4,2.4-1.4,3.2-4.1,2.6c-6.8-1.6-13.6-2.8-20.4-4.2c-1.8-0.4-3.7-0.8-2.8-3.5c0.7-2.2,1.3-4,4.2-3.3c3.5,0.8,7.1,1.3,10.7,2
			C53.6,230.9,53.8,230.6,54,230.3z"/>
		<path d="M493,348.4c-2.7-5.2-6.7-8.6-10-12.5c-2.4-2.7-0.6-4.8,0.3-6.7c0.9-2,2.8-0.6,4.3-0.1c6.1,2.1,12.1,4.3,18.3,6
			c3,0.8,3,1.9,2.3,4.6c-0.8,3.3-2.4,2.1-4.3,1.6c-3.9-1-7.5-3.1-12.4-3.4c3.4,3.9,6.3,7.3,9.1,10.6c1,1.1,2,2.3,2.7,3.6
			c1.1,2.1-0.3,3.8-1.2,5.4c-0.9,1.5-2.3,0.4-3.5,0c-6.4-2.1-12.8-4.2-19.3-6c-2.6-0.7-3.1-1.5-2.2-4.1c0.9-2.6,1.8-3.4,4.6-2.3
			C485,346.4,488.5,348.2,493,348.4z"/>
		<path d="M376.9,81.9c1.8-1,3.2-1.8,4.7-2.5c2.7-1.2,5.5-1.7,2.8-6.1c-1.8-2.8-0.6-6.7,2.4-9.4c2.9-2.6,6-2.9,9.1-1.3
			c4,2,7.7,4.5,11.6,6.6c1.7,0.9,2,1.7,0.9,3.4c-3.7,6-7.3,12.2-10.9,18.3c-1.2,2.1-2.6,2.6-4.8,1.1c-1.9-1.3-2.1-2.3-0.9-4.4
			c1-1.8,4.2-3.5,2.2-5.8c-2.3-2.5-4.5,0.5-6.6,1.5C382.4,85.9,382.5,86,376.9,81.9z M394.6,68.2c-2.9-0.3-4.5,1.6-4.2,3.2
			c0.5,3.2,3.6,5.1,6.3,5.6c2.6,0.5,4.4-2.9,4-4.6C400,69.5,396.7,68.9,394.6,68.2z"/>
		<path d="M108.6,138.6c-0.5-1.2-1.1-2.1-1.3-3.2c-0.8-4.2-0.9-7.7-7.5-5.6c-5.5,1.7-10.6-6.6-7.7-12c2.5-4.5,6.2-8.2,9.7-11.9
			c1.2-1.3,2.3-1,3.4,0.1c5.5,4.8,10.9,9.6,16.4,14.4c1.2,1,1.8,2,0.3,3.2c-1.3,1-2,3.5-4.4,2c-0.6-0.3-0.9-1-1.5-1.3
			c-1.6-0.8-2.3-4-4.6-2.6c-2.7,1.7-0.9,4.4,0,6.2C113.8,132.6,112.4,135.7,108.6,138.6z M108,117.6c-1.9-1.6-3.2-4.8-5.3-4.1
			c-2.6,0.9-4.7,3.5-4.8,6.8c0,2.3,1.5,3.3,3.6,2.9C104.6,122.6,105.8,119.6,108,117.6z"/>
		<path d="M229.2,56.3c0,4.1-2.4,6.5-5.9,7.7c-3.7,1.3-7.7,1.8-11.4,3.3c-2.9,1.1-3.4-0.1-4-2.4c-1.7-6.5-3.2-13.1-5.4-19.5
			c-1.1-3.1,0.6-3.5,2.4-4.1c4.6-1.4,9.2-2.6,13.8-3.9c1.8-0.5,3.3-0.4,4,1.7c0.7,2.2-0.7,2.8-2.5,3.2c-2.9,0.7-5.6,1.9-8.5,2.5
			c-2.3,0.5-2,1.9-1.7,3.3c0.4,1.8,1.5,1.4,3,1.2c2.6-0.5,5-1.5,7.8-1.3C226.4,48.4,229.1,50.9,229.2,56.3z M215.2,61.2
			c2.7-1.3,6.9-0.6,7.5-4.5c0.3-1.9-2-4-3.9-3.3c-2.2,0.9-6.2-0.5-6.3,3.5C212.4,58.2,212.1,61.3,215.2,61.2z"/>
		<path d="M61.1,363.3c-7.8,0-13-5.8-13-14.2c0-7.7,6.9-13.7,15.9-13.7c6.9,0,13,7,13,14.9C76.8,357.6,69.9,363.3,61.1,363.3z
			 M71.1,348.9c0-3.7-2.9-6.9-6.6-6.6c-5.3,0.5-11.3,3.2-10.8,8.5c0.3,3.8,3,6.6,6.7,6.4C65.9,357,71.1,352.8,71.1,348.9z"/>
		<path d="M470.3,129.7c1,0,1.6,1,2.1,1.7c3,4.3,5.8,8.8,8.9,13.1c1.4,1.9,1.1,3.1-0.8,4.4c-2.3,1.6-3,0.2-4-1.5
			c-1.4-2.4-3.2-4.6-4.7-7c-1.1-1.8-2-2.8-4.2-1.4c-2.2,1.4-1.2,2.6-0.3,4c1.3,2.1,2.5,4.3,4.1,6.2c1.5,1.8,1.2,2.6-0.6,3.8
			c-1.8,1.2-2.8,1.2-3.9-0.8c-1.2-2.2-2.8-4.1-4-6.2c-1.3-2.4-2.7-1.7-4.5-0.7c-2.2,1.2-1.4,2.5-0.3,4c1.9,2.7,3.6,5.5,5.6,8.2
			c1.1,1.6,1.1,2.6-0.7,3.6c-1.5,0.8-2.8,1.6-4.1-0.4c-3.1-4.9-6.3-9.7-9.6-14.4c-1.1-1.6-0.7-2.3,0.5-3.1
			c6.3-4.2,12.6-8.4,18.9-12.6C469.3,130.1,469.8,129.9,470.3,129.7z"/>
		<path d="M246.8,32c8.6-0.3,13.2,4.7,13.5,14.6c0.2,8.2-4.6,13.2-13,13.6c-9.1,0.4-13.3-4.8-14.2-14.2
			C232.3,37.8,238,32.3,246.8,32z M239.9,45.1c0,6.1,2.9,10.2,7.2,10.1c3.9-0.1,7.1-3.8,6.9-8.2c-0.2-6.2-3-9.9-7.4-9.9
			C242.1,37.1,239.9,39.8,239.9,45.1z"/>
		<path d="M508.1,314.4c0.7-2.6-0.6-3.1-2.8-3.5c-3.3-0.5-6.5-1.2-9.6-2.2c-5.2-1.7-7.2-5-6.6-10.2c0.1-1.3,0-3.1,1.8-2.7
			c1.4,0.3,4.1-0.8,3.9,2.4c-0.2,3.2,2.1,4.3,4.6,4.9c4.3,1,8.7,2,13,2.8c1.7,0.3,2.9,0.7,2.5,2.7c-0.9,4.8-2.1,9.7-2.7,14.6
			c-0.4,3-2,3-4.1,2.6c-6.8-1.2-13.6-2.6-20.4-3.7c-2.2-0.4-3.1-1.3-2.3-3.2c0.6-1.4-0.1-4.3,3.5-3.3c4.8,1.2,9.8,1.5,14.5,2.7
			C507.3,319.3,508.6,318.1,508.1,314.4z"/>
		<path d="M486,229.1c-0.5-2.3,0.9-2.9,2.7-3.2c7-1.2,14-2.4,20.9-3.6c1.9-0.3,3,0.2,3.3,2.5c0.6,5.2,1.4,10.5,2.6,15.6
			c0.6,2.6-0.7,2.5-2.4,3c-2,0.6-2.8-0.1-3.1-1.9c-0.5-3.3-0.9-6.5-1.6-9.8c-0.3-1.3-0.3-3.2-2.8-2.2c-1.9,0.7-3.4,1.1-2.6,3.7
			c0.7,2.2,1,4.5,1.5,6.7c0.4,1.8,0.3,2.8-2,3.5c-2.9,0.9-2.5-0.8-2.9-2.3c-0.5-2.4-1.3-4.8-1.5-7.2c-0.2-2.5-1.3-3.2-3.5-2.7
			c-2,0.5-3,1.3-2.2,3.8c0.9,2.8,0.7,5.9,1.5,8.7c0.7,2.7-0.3,3.2-2.7,3.8c-3.3,0.8-2.1-1.6-2.4-2.9
			C487.9,239.5,487,234.3,486,229.1z"/>
		<path d="M443.9,98.5c-0.5,0.6-0.9,1.1-1.3,1.6c-4.6,5.2-9.2,10.4-13.8,15.7c-1.6,1.8-2.8,3-5.1,0.6c-2.1-2.1-1.1-3.2,0.4-4.8
			c3.4-3.7,6.6-7.4,9.7-11.3c3.4-4.3-2-4.9-3.4-7.1c-1.5-2.2-2.9-0.8-4.2,0.9c-3.2,3.8-6.7,7.4-9.9,11.2c-1.8,2.2-2.8,1.4-4.8,0.1
			c-2.4-1.5-1.8-2.7-0.5-4.2c4.9-5.7,9.8-11.3,14.7-16.9c0.8-0.9,1.5-1.2,2.5-0.3c4.9,4.5,9.9,8.9,14.8,13.3
			C443.3,97.7,443.5,98.1,443.9,98.5z"/>
		<path d="M49.6,301.2c-7.3,0-11.4-2.4-13.5-7.9c-2.1-5.6-1-11.3,3-14.6c1.5-1.3,3.7-3.5,5.3-1.5c1.1,1.4,1.7,4.4-1.2,6.5
			c-4.1,3-3.2,7.6,1.5,9.7c3.5,1.5,6.9,1.1,10.1-0.5c4.3-2.1,4.7-7.6,0.5-9.9c-3.1-1.7-3.7-4.6-2.5-6.5c1.8-2.7,4.5-0.5,6.4,0.9
			c4.3,3.1,6.1,10.3,4.2,15.9C61.5,298.8,57.5,301.2,49.6,301.2z"/>
		<path d="M335.3,54.1c-3.1,0.4-2.5,4.4-3.1,6.7c-0.9,3.7-2.2,3.7-5.1,2.5c-1.6-0.6-1.9-0.9-1.4-2.7c2.2-7.1,4.3-14.2,6.2-21.3
			c0.5-2.1,1.4-2.4,3.1-1.7c1.4,0.6,3.5,0.6,2.9,3.1c-0.3,1.1-0.6,2.2-1,3.3c-1.2,3.2-0.6,4.5,3.2,5.8c4.7,1.6,6.3,0.1,6.8-4
			c0.3-2.8,1.2-4.2,4.4-3.5c3.8,0.9,2.3,3.2,1.7,5.3c-1.7,6.2-3.4,12.4-5.2,18.5c-0.5,1.6-0.8,3.5-3.6,2.2c-2.1-0.9-3.8-1.3-2.6-4
			c0.3-0.7,0.4-1.6,0.6-2.4C343.8,56.1,342.3,54.1,335.3,54.1z"/>
		<path d="M285.1,46.9c0-2.2-0.1-4.3,0-6.5c0.1-2.4,0.5-4.6-3.3-4.5c-3,0.1-4.7,0.6-4.6,4.1c0.1,2.6-0.1,5.3-0.3,8
			c-0.3,5.5-3,8.5-8.2,9.5c-1.7,0.3-3.2,0.4-3.6-1.4c-0.2-1.5-1.2-3.6,1.9-4.1c3.1-0.5,3.9-3.2,3.9-6.1c0-4,0.2-8,0.2-12
			c0-2,0.7-3.1,2.8-3.1c5,0.1,10,0.3,15,0.2c2.2,0,2.9,0.9,2.8,3c-0.3,7.1,0,14.3-0.8,21.4c-0.3,2.5-1.6,2.4-3.4,2.4
			c-1.9,0.1-2.7-0.6-2.7-2.6C285.1,52.6,285,49.8,285.1,46.9C285,46.9,285,46.9,285.1,46.9z"/>
		<path d="M64.3,209.2c-6.3-0.5-12.2-2.3-15.2-8.4c-2.5-5-1.3-9.9,2-14.4c1.5-2.1,3.5-3.6,6-4c1.6-0.2,4.2-1.3,4.6,1.1
			c0.3,2,0.1,4.8-3.1,5.2c-3,0.3-4.2,2.3-4.7,5c-0.5,2.9,1.2,4.9,3.3,6.1c2,1.1,4.2,1.9,6.5,2.3c2.6,0.5,4.9-0.4,6.4-2.8
			c1.5-2.4,1.6-5-0.4-6.9c-2.8-2.6-0.9-5.1,0.5-6.4c2-1.8,3.3,1.2,4.4,2.4c3.8,4.2,2.7,9,0.6,13.5C73.1,206.5,69.9,209.7,64.3,209.2
			z"/>
		<path d="M67.9,318.8c0,5.7-2.5,9.4-7.7,11.3c-6.2,2.3-12.4,3-17.5-2.2c-4.2-4.3-4.7-11.3-1.9-16.1c0.2-0.3,0.2-0.7,0.4-0.9
			c1.5-1.6,3.6-4,5.5-2.7c1.7,1.3,1.9,4-0.3,6.4c-3.5,3.7-1.5,8.6,3.4,9.8c6,1.4,12.3-2.4,12.3-7.3c0-2.4-1-4.1-3.3-5
			c-0.8-0.3-2-0.2-2.3-0.7c-0.8-1.7-2.4-3.7-1.2-5.5c1-1.5,3-0.7,4.6-0.1C65.2,307.8,67.9,312.3,67.9,318.8z"/>
		<path d="M489.6,220c-2.8-0.4-5-1.8-6.5-4.5c-2.2-4.3-3.1-9-4.7-13.5c-0.7-2,0.5-2.7,2-3.2c7.1-2.1,14.1-4.3,21.2-6.3
			c2.6-0.7,2.7,1.3,3.5,3c1.1,2.3,0.1,3-1.7,3.5c-0.5,0.1-1,0.3-1.5,0.3c-5.2,0.5-5.6,3.4-3.8,7.5c0.4,1,0.7,2.2,0.9,3.3
			C499.9,217,494.5,219.3,489.6,220z M493,208.7c-1.1-1.5,0.3-5.1-3.1-5.4c-1.4-0.1-4.5-0.3-4,2.8c0.4,2.6,0.2,6,4.2,6.2
			C492.2,212.4,493.1,211.1,493,208.7z"/>
		<path d="M462.8,121.1c0.2,6.8-7.3,11.6-12.4,9.1c-1.7-0.8-3.1-2-4.2-3.5c-2.8-3.7-5.3-5.6-8.8-0.7c-2.1,3-3.5,0.3-5-1
			c-2.2-1.9-0.4-2.6,0.8-3.6c5.2-4.4,10.3-8.9,15.3-13.5c1.8-1.7,3.1-1.9,4.8,0.2C457,112.5,461.6,116.2,462.8,121.1z M451.4,114.3
			c-1.5,1.5-4.7,2-4.5,4.2c0.2,2.8,2.6,4.9,5.4,5.6c1.9,0.5,3.7-1.2,3.6-3.1C455.8,118.1,453.6,116.2,451.4,114.3z"/>
		<path d="M60.1,377.7c-0.2-5.2,2.5-7.3,5.8-8.8c3.1-1.4,6-1.4,8.7,1.3c1.3,1.3,2.5,2.7,3.1,4.4c1.4,4.3,3.6,5.4,7.5,2.6
			c2.1-1.5,3.6-1.4,5.1,1.3c1.6,2.9-0.3,3.5-2,4.4c-5.7,3-11.4,6-17.1,9c-1.3,0.7-3.2,2.4-4.3,0.1C64.3,387.1,60.8,382.5,60.1,377.7
			z M75.2,381c-1.9-1.8-1.7-5.5-5.3-5.7c-2.3-0.1-4.2,1.5-3.7,3.6c0.5,2.3,1,5.7,4.1,5.8C71.8,384.7,74.5,383.9,75.2,381z"/>
		<path d="M516.9,260.5c0,2,0.1,4,0,6c-0.3,4.6-3.1,7.5-7.4,7.7c-5.6,0.3-8.8-2-9.5-7c-0.1-1-0.2-2-0.2-3c0-4.6-1.8-7.2-6.8-5.7
			c-2,0.6-3.3,0.5-3-2.1c0.2-1.8-0.9-4.1,2.6-4.1c6.3-0.1,12.6-0.4,18.9-1c4.2-0.4,6.3,0.7,5.5,5.3
			C516.7,257.8,516.9,259.2,516.9,260.5z M512.1,261.2c0.5-2.3-0.8-3.2-3.8-3.2c-3,0-3.6,1.3-3.4,3.9c0.2,2.6-0.3,5.6,3.8,5.5
			C512.4,267.2,511.9,264.3,512.1,261.2z"/>
		<path d="M312.2,60.3c-3.8-0.4-7.5-0.9-11.3-1.3c-2.2-0.3-3.2-1.4-2.8-3.7c1-6.8,2.1-13.6,3-20.5c0.5-3.3,2.9-2.6,4.9-2.4
			c2.7,0.3,1.8,2.1,1.5,3.7c-1.3,6.2-1.2,6.2,5.5,7.2c7.1,1,10.1,5.8,8,12.3C319.5,59.9,316.2,60.6,312.2,60.3z M309,48
			c-2.4-0.6-3.8,0.9-4,3.7c-0.3,4.1,3.4,2.7,5.3,3.4c2.3,0.8,4.5-0.7,4.5-3.2C314.9,48.6,312.1,48.3,309,48z"/>
		<path d="M466.7,370.7c5.8,7.4,10.9,13.9,16.1,20.3c1.6,2,2.1,3.5,0.4,6c-1.6,2.4-3.4,2.2-5.5,1.9c-6.8-1.2-13.5-2.5-20.3-3.7
			c-1.4-0.3-3.6-0.3-3.2-2c0.4-1.6,1.1-3.9,3.6-4.3c7.1-1.1,9.3-4.8,6.4-10.6C462.6,375.1,466.1,373.9,466.7,370.7z M475.8,391.8
			c-1.4-1.9-2.7-3.7-4.1-5.4c-0.5-0.6-1.2-1.5-1.9-0.6c-1,1.3-2,2.6-2.6,4.1c-0.3,0.9,0.9,1.2,1.7,1.2
			C471.1,391.3,473.2,393,475.8,391.8z"/>
		<path d="M375.8,57.6c-1.3,5.6-0.7,12.1-1,18.5c-0.1,1.5,0.2,4.1-2,3.7c-1.8-0.3-4.6-0.4-4.7-4c-0.1-4.8-6.8-7.8-10.4-4.8
			c-2.7,2.3-5.1,0.6-6.6-0.8c-1.7-1.6,1.2-2.5,2.1-3.6c4.3-4.7,8.6-9.2,13.1-13.7c1.6-1.5,2.5-4.5,6-2.7
			C375.7,52.1,376,52.1,375.8,57.6z M369.7,57.9c-2.4,2.6-5.5,4.2-6.1,7.2c-0.3,1.2,3.8,2.6,4.4,1.9
			C370.1,64.9,370.3,61.8,369.7,57.9z"/>
		<path d="M165.8,71.6c0.6-4.3-0.6-7.5-1.3-10.6c-1-4.2,2.5-4.4,4.6-4.9c2.4-0.6,1.7,2.1,1.8,3.5c0.8,6.7,1.3,13.5,2.1,20.2
			c0.5,4.2-1.8,6.5-5.2,8.1c-1.2,0.5-2.7,1.6-3.8-0.5c-0.8-1.6-1.4-2.9,0.7-4c3.5-1.9,2.2-3.7-0.4-5.3c-3.9-2.5-7.8-5-11.6-7.6
			c-1.4-0.9-4.4-2-3.2-3.4c1.5-1.7,4.2-4.3,7.4-2C159.7,67,162.4,69.1,165.8,71.6z"/>
		<path d="M176.9,58c-2,0.3-1.6-1.6-2.3-2.6c-0.9-1.3-0.3-2.2,1-2.7c5.7-2.4,11.5-4.9,17.3-7.2c1.8-0.7,2.6,0.7,3.2,2.2
			c0.8,1.9-0.2,2.3-1.6,2.7c-5.3,1.4-4.8,4.5-2.7,8.4c1.6,3,2.7,6.4,4.1,9.5c1.1,2.6,1.9,4.6-1.9,6c-4,1.5-3.1-2-3.8-3.3
			c-2-3.8-3.6-7.8-5-11.8c-1.2-3.3-2.7-4.7-5.9-2.2C178.6,57.5,177.7,57.6,176.9,58z"/>
		<path d="M489.5,383.8c-1.6-1-4.2-0.9-2.8-4.4c3.5-8.7,3.3-8.8-5.6-12.3c-2.3-0.9-4.5-2.1-6.8-3.1c-2.1-1-4.2-1.5-2.5-4.9
			c1.6-3.1,3.1-2.3,5.3-1.2c6.1,3,12.3,5.7,18.4,8.6c1.1,0.5,2.6,0.7,1.6,2.8c-2.1,4.3-4,8.7-6.1,13
			C490.9,383,490.7,383.9,489.5,383.8z"/>
		<path d="M39.9,221.2c-0.4,2.7-1.1,5.4-3.2,7.4c-1.1,1-2.6,2.2-3.8,0.8c-0.9-1-0.2-3.2,0.9-3.8c2.6-1.5,3-3.4,1.9-5.8
			c-0.8-1.8-1.5-4.2,0.5-4.7c2.2-0.6,2.8,2.2,3.5,4C39.9,219.7,39.8,220.4,39.9,221.2z"/>
		<path d="M502.8,285.8c-0.1,1,0,2-0.2,3c-0.3,1.6-0.5,3.4-2.9,3.2c-2.4-0.2-1.8-1.9-1.8-3.3c0-1.5-0.1-3,0.1-4.5
			c0.1-1.6-0.8-4,2.3-3.8c2.7,0.1,2.6,2,2.5,3.9C502.8,284.8,502.9,285.3,502.8,285.8z"/>
		<path d="M207,226.3c2.5,4.9,5.6,8.4,8.5,12c3.3,4.1,3.8,4.1,6.9-0.4c3.1-4.5,6.4-8.9,12.1-11.6c0,4.9,1.6,6.6,5.7,2.7
			c1.4-1.3,2.4,0.5,3.3,1.3c2.6,2.5,5.2,5.1,7.7,7.6c1.2-0.4,0.9-1.4,1-2.1c0.5-2.8,0.2-6,1.6-8.2c1.9-2.9,4.6,1,7.1,0.6
			c3.2-0.5,5.9-1.5,6.3-5.2c0.7-5.9,4.7-7.8,9.7-8.8c9-1.7,11.2-6.8,6.5-14.6c-1.1-1.8-2.6-3.4-3.8-5.2c-1-1.3-2.1-2.6-2.7-4.1
			c-1-2.8-2.4-6.3,1.1-7.9c3.3-1.5,4.5,2.1,5.6,4.4c2.4,5.1,3.9,10.5,5.3,16c1,4.1,1.9,8.5,7.8,8.6c2.6,0,3.1,3.6,4.9,5.2
			c3.1,2.8-1.1,3.6-1.9,5.4c-0.8,1.7-3.3,2.8-2.1,5.1c1.1,2.1,3.3,1.7,5.3,1.5c3.5-0.3,7-0.7,10.5-0.4c3.4,0.4,6.7,1.6,10.5,2.6
			c-0.3-4.4,0.3-8.2,6.1-8.2c2.3,0,4.6-0.1,5.7,2c1.1,2,2.4,4.1,1,6.9c-20.9,41.8-41.8,83.6-62.5,125.4c-1.6,3.3-2.9,4.5-6.1,1.8
			c-4.3-3.6-7.8-0.5-11.1,1.8c-4.1,3-8.2,4.7-13.3,2.7c-3.4-1.4-6.2-3.2-7.4-6.8c-0.8-2.6-2.4-4.6-5-5c-7.3-1.1-9-6.4-10-12.4
			c-0.3-2.1-0.6-4.3-1.1-6.4c-1.4-5.5-4.1-7.9-10.7-8.5c-5.7-0.5-9.8-1.6-12.6-7.9c-2.8-6.4-10.2-6.5-16.6-6.8
			c-6.5-0.3-10.8,2.1-11.4,9.2c-0.1,1.3-0.8,2.5-1.4,3.7c-0.6,1.2-0.8,3.4-2.9,2.3c-1.4-0.7-2.5-2.2-1.5-4.2c1.3-2.8,2.6-5.7,4-8.6
			C180.1,283.6,193.4,255.3,207,226.3z"/>
		<path d="M284.8,353.2c0.1,1.8,0.1,2.7,0.2,3.5c0.2,1.7,1.7,3.8-0.4,5c-2.2,1.2-5,1.1-7.3,0.4c-2.8-0.9-0.6-2.8-0.1-3.9
			c5.1-10.6,10.3-21.1,15.5-31.7c14.8-30.4,29.7-60.7,44.4-91.1c1-2.1,1.9-4.1,4.6-1.7c0.8,0.7,1.8,0.8,2.8,0.4
			c3.2-1.2,7.9-11.3,6.7-14.7c-1.9-5.7-5-10.5-11.1-12.4c-2.4-0.7-2.6-2.3-1.7-4.3c1.1-2.4,3.2-3.7,5.5-4.7c1.1-0.5,2.3-0.9,3.3-0.1
			c1,0.8,0,1.8-0.1,2.7c-0.9,5.4,1.3,9.6,6.2,12.3c1.6,0.9,3,2,4.5,3c1.3,0.9,2.6,1,3.1-0.8c1-4.2,3.4-3.4,5.8-1.5
			c2.9,2.3,4.5,2.2,6.1-1.6c1.8-4.2,4.1-4.4,8.4-1.7c1.6,1,3,3,5.2,1.3c2.1-1.6,1.9-3.6,0.9-5.8c-1.8-4.2,1.5-7,3.1-10
			c2.8-5,5.9-10,12.3-11.6c2.6-0.7,4.8-0.4,7.1,0.7c3.4,1.7,5,3.7,2.6,7.4c-1.1,1.6-1.7,3.6-2.3,5.5c-1.6,5.1-1,5.9,4.3,6.6
			c3.8,0.5,4.5,3.7,5.2,6.4c1.2,5,1.3,10.3-0.8,15.2c-4.3,9.9,0.3,18,6.2,24.9c4,4.7,6.8,9,6.9,15.3c0.1,4.7,1.5,9.5,2.3,14.2
			c0.2,1.4,1.2,3.3-0.4,4.1c-1.4,0.7-2.7-0.9-3.7-1.9c-5.4-5-9.3-10.6-9.1-18.5c0.2-8-3.4-15.1-6.7-22.2c-0.6-1.4-1.3-2.8-3.2-2.7
			c-1.9,0.1-2.5,1.7-2.9,3c-1.2,4.4-2.7,8.8-1.6,13.6c0.7,3.1,0.8,7-2.8,8.2c-7.7,2.6-10.1,9.1-12.3,15.6
			c-1.8,5.5-2.4,11.3-1.8,17.2c0.3,2.4,0.5,5.4,3.3,6.2c2.3,0.7,4.4-0.9,6.1-2.6c1.7-1.6,3.3-3.9,5.9-1.9c3.2,2.4,8.6,3,8.5,8.1
			c-0.2,6.2,2.3,10.8,6.4,15c0.9,0.9,2.6,2.2,1,3.8c-1.5,1.4-2.9-0.1-3.9-0.9c-1.8-1.4-3.4-3.1-4.4-5.4c-0.8-1.8-1.8-3.5-3.1-5.1
			c-1.1-1.3-2.3-3.2-4.5-1.8c-2.5,1.5-0.7,3.2,0.1,4.7c6.1,12.4,2.6,30.8-7.6,39.9c-0.9,0.8-1.7,1.7-2.8,2c-1.1,0.3-2.4,1.9-3.5,0.4
			c-0.8-1.1,0.5-2,1.1-3c3-4.8,6.7-9.3,5.5-15.5c-0.4-2.3-0.6-4.8-3.3-5.7c-2.9-0.9-3.6,1.6-4.8,3.3c-1.5,2.2-2.7,1.8-5.4,1.2
			c-5.4-1.3-7.9-4.6-11.3-8.4c-3.6-4-9.7-3.8-15-2.8c-2.5,0.5-4,2.5-3.1,5.3c0.8,2.3,0.5,4.6,0.6,6.9c0.2,3.9-1.4,6.2-5.1,8.1
			c-10.5,5.3-21,10-32.5,12.6c-2.2,0.5-4,0.8-6.1-0.6c-2.4-1.6-5.2-1.5-7.2,0.9c-2.7,3.1-4.2,1.2-5.6-1.1c-2-3.4-3.6-7.1-6.6-9.8
			c-1.5-1.4-3.1-3.5-5.6-2.2C284.8,349.7,284.5,351.9,284.8,353.2z"/>
		<path d="M164.6,214.5c-4,2.7-6.2,6.7-8.3,10.5c-1.4,2.5-0.2,4.3,2.6,5.2c7,2.4,13,0.3,18.6-3.9c1.5-1.1,2.6-4.2,4.7-2.5
			c1.9,1.5-0.8,3.4-1.4,5.2c-0.3,0.7-0.6,1.5-0.9,2.3c9.1,0,9.1,0,12.7-7.5c2.1,2.1,0.7,4.8,1.2,7c0.4,1.5,0.6,3.1,2.3,3.6
			c1.8,0.5,2.7-1,3.5-2.3c1.3-2.1,2.1-4.5,2.6-6.9c0.6-2.7,1-5.6,2.2-8.1c2.1-4.5,4.8-8.2,10.7-9c6.8-1,13.4-3.6,20.1-5.3
			c1.6-0.4,4.2-1.3,4.8,0.9c0.5,1.8-1.8,2.9-3.5,3.7c-4.6,2.1-9.5,2.9-14.3,3.8c-5.2,0.9-8.9,3.5-12.1,7.7
			c-8.2,10.7-12.6,23.3-18.3,35.2c-10.6,21.9-20.8,44-31.6,66.8c-4.4-6.2-8.6-11.7-12.3-17.5c-4-6.3-13.3-8.5-19.1-4
			c-1.8,1.4-2.1,3.2-1,5.3c1.6,3.1,2.9,6.2,4.5,9.5c-7-0.7-7-0.7-7.4,11.8c-1.7,0.6-1.9-1.1-2.4-1.9c-5.2-9.2-11.1-18.2-10.4-29.5
			c0.2-2.7,0.8-4.8,3.4-6c5.9-2.7,8.5-6.9,7.2-13.5c-1.1-5.2-1.1-10.5-1.6-15.7c-0.1-0.8-0.2-1.8,0.1-2.5c6.1-12,8.9-25.9,24.6-31.1
			c9.5-3.1,14.4-12.9,20.5-20.4c1.5-1.8,2.6-3.8,4.9-4.8c3.6-1.5,6.1,0.3,5.6,4.2c-0.6,4.3,0.8,8.7-0.6,12.9
			c-0.9,2.8-1.6,6.4-5.4,6.2c-3.4-0.1-5-2.9-5.3-6.2C165.5,216.6,165,215.7,164.6,214.5z"/>
		<path d="M303.5,225.1c0.2-2.3,1.6-3.1,2.5-4.2c0.8-1,1.2-2,1.1-3.2c-0.3-2.3-7.8-10.4-10.3-10.6c-3.9-0.3-5.4-2.5-5.8-6.1
			c-0.3-2.4-0.6-5.1-1.8-7.2c-1.8-3.4-1.2-4.3,2.5-4.2c6.2,0.1,12.3-0.1,18.5-0.2c2.4,0,4.2,0.7,6.4,2.3c3.2,2.3,7.9,3,12.1,3.4
			c7.6,0.8,8.1,1.2,4.9,7.9c-1.7,3.5,1,5.2,3.4,6c4.5,1.7,6.5,5.1,8.5,9c1.7,3.2,2.4,5.5-0.5,8.7c-2.2,2.4-2.7,2.6-4.1-0.4
			c-4.7-9.9-13.8-10.7-20.1-2c-0.6,0.8-1.1,1.3-2,0.9C313.7,223.4,308.7,224.1,303.5,225.1z"/>
		<path d="M331.8,193c-4.3,1.2-7.8-3.2-12.4-2.3c-0.8,0.2-1.2-1.3-1.3-2.4c-0.1-2.1,0.8-3.8,1.8-5.6c2-3.5,13.5-6.5,16.4-3.8
			c2.3,2.1,4.3,4.9,1.3,8.2c-0.8,0.8-1.9,1.5-1.7,2.8C336.4,193,334.7,193.6,331.8,193z"/>
		<path d="M253,170.7c0.2-2.6-0.1-4.3,0.4-5.6c0.7-2,2-3.5,4.5-2.1c2.8,1.5,5.6,2.7,8.5,4.1c3.4,1.7,6,12.4,3.6,15.1
			c-1.6,1.8-3.3,1-4.7-0.5c-1.8-1.8-3.7-3.3-6.2-3.7C254.3,177.1,252,174.5,253,170.7z"/>
		<path d="M429.4,287.6c2.1,5.5,2,10.4-1.6,15.1c-3.2,4.2-7.2,8.2-7.4,14.3c-2.5-2.6-3.5-9.9-1.8-12.8
			C422.1,298.7,426.4,293.6,429.4,287.6z"/>
		<path d="M383.8,173c3.2,0.5,6.7,0.3,7.5,4.4c0.3,1.5-5.1,6.3-6.6,6.2c-2-0.1-4.8-5.6-4.5-8.6C380.4,172.4,382.4,173.2,383.8,173z"
			/>
		<path d="M225,174.6c-0.1-3-0.4-5.8,3-5.7c2.9,0.1,4.7,2.8,4.6,5c-0.1,2.5-2.6,5-5.3,5.1C223.7,179.1,225.8,175.6,225,174.6z"/>
		<path d="M217.4,168.5c-2.1-0.7-4-1.5-4.3-4.1c-0.2-2.2,1.1-3.7,2.9-3.9c3.3-0.3,2.9,3,3.6,4.9C220.3,166.8,219,168,217.4,168.5z"
			/>
	</g>
</g>
</svg>
