<?xml version="1.0" encoding="utf-8"?>
<!-- Generator: Adobe Illustrator 19.0.0, SVG Export Plug-In . SVG Version: 6.00 Build 0)  -->
<svg version="1.1" id="Слой_1" xmlns="http://www.w3.org/2000/svg" xmlns:xlink="http://www.w3.org/1999/xlink" x="0px" y="0px"
	 viewBox="0 0 168.7 41" style="enable-background:new 0 0 168.7 41;" xml:space="preserve">
<style type="text/css">
	.st0{fill:#365EA9;}
	.st1{fill:none;stroke:#FFFFFF;stroke-linecap:square;stroke-linejoin:round;}
	.st2{fill:none;stroke:#FFFFFF;stroke-linecap:square;stroke-linejoin:round;stroke-dasharray:2,3;}
	.st3{fill:none;stroke:#FFFFFF;stroke-linecap:square;stroke-linejoin:round;stroke-dasharray:1.8833,2.8249;}
	.st4{fill:none;stroke:#FFFFFF;stroke-linecap:square;stroke-linejoin:round;stroke-dasharray:2.0147,3.0221;}
	.st5{fill:none;stroke:#FFFFFF;stroke-linecap:square;stroke-linejoin:round;stroke-dasharray:1.9397,2.9096;}
	.st6{fill:none;stroke:#FFFFFF;stroke-linecap:square;stroke-linejoin:round;stroke-dasharray:1.7256,2.5884;}
	.st7{fill:none;stroke:#FFFFFF;stroke-linecap:square;stroke-linejoin:round;stroke-dasharray:2.0127,3.019;}
	.st8{fill:none;stroke:#FFFFFF;stroke-linecap:square;stroke-linejoin:round;stroke-dasharray:1.9198,2.8796;}
	.st9{fill:none;stroke:#FFFFFF;stroke-linecap:square;stroke-linejoin:round;stroke-dasharray:1.9335,2.9003;}
	.st10{fill:none;stroke:#FFFFFF;stroke-linecap:square;stroke-linejoin:round;stroke-dasharray:1.8371,2.7556;}
	.st11{fill:none;stroke:#FFFFFF;stroke-linecap:square;stroke-linejoin:round;stroke-dasharray:2.2297,3.3446;}
	.st12{fill:none;stroke:#FFFFFF;stroke-linecap:square;stroke-linejoin:round;stroke-dasharray:2.0644,3.0967;}
	.st13{fill:#FFFFFF;}
</style>
<g id="XMLID_241_">
	<path id="XMLID_258_" class="st0" d="M0,41L8.3,0h13.8c5.6,0,9,2,11,3.8C35,5.6,38,9.6,36.7,16.3l0,0.1c-0.3,1.6-0.9,3.1-1.6,4.5
		c0.5,2,0.5,4.2,0.1,6.5c-0.9,4.6-3,8-6.1,10.4C26,40,22.3,41,18,41H0z"/>
	<polygon id="XMLID_257_" class="st0" points="19.3,41 27.6,0 66.2,0 57.9,41 	"/>
	<polygon id="XMLID_253_" class="st0" points="45.3,41 53.6,0 94.8,0 86.5,41 	"/>
	<polygon id="XMLID_252_" class="st0" points="73.7,41 82,0 115.5,0 107.2,41 	"/>
	<path id="XMLID_254_" class="st0" d="M94.6,41l8.3-41h13.8c5.6,0,9,2,11,3.8c1.9,1.8,4.9,5.7,3.6,12.5l0,0.1
		c-0.3,1.6-0.9,3.1-1.6,4.5c0.5,2,0.5,4.2,0.1,6.5c-0.9,4.6-3,8-6.1,10.4c-3,2.3-6.7,3.3-11,3.3H94.6z"/>
	<polygon id="XMLID_248_" class="st0" points="113.9,41 122.2,0 160.6,0 145.4,21.8 151.2,41 	"/>
	<polygon id="XMLID_251_" class="st0" points="128.8,41 148.2,0 166,0 168.7,41 	"/>
</g>
<g id="XMLID_217_">
	<g id="XMLID_242_">
		<g id="XMLID_320_">
			<polyline id="XMLID_355_" class="st1" points="150.3,5.3 150.9,4.5 151.9,4.5 			"/>
			<line id="XMLID_354_" class="st2" x1="154.9" y1="4.5" x2="159.9" y2="4.5"/>
			<polyline id="XMLID_353_" class="st1" points="161.2,4.5 162.2,4.5 162.3,5.5 			"/>
			<line id="XMLID_352_" class="st3" x1="162.5" y1="8.3" x2="164.3" y2="35.1"/>
			<polyline id="XMLID_351_" class="st1" points="164.4,36.5 164.4,37.5 163.4,37.5 			"/>
			<line id="XMLID_350_" class="st2" x1="160.9" y1="37.5" x2="153.9" y2="37.5"/>
			<polyline id="XMLID_349_" class="st1" points="152.3,37.5 151.3,37.5 151.3,36.5 			"/>
			<polyline id="XMLID_348_" class="st1" points="151.2,33.6 151.1,32.6 150.7,33.5 			"/>
			<polyline id="XMLID_347_" class="st1" points="149.4,36.6 149,37.5 148,37.5 			"/>
			<polyline id="XMLID_346_" class="st4" points="144.9,37.5 134.9,37.5 120.9,37.5 			"/>
			<path id="XMLID_345_" class="st1" d="M119.8,37.5h-1l0.2-1.2l-0.1-0.1c-0.3,0.1-0.6,0.3-0.9,0.4"/>
			<path id="XMLID_344_" class="st5" d="M115.2,37.3c-0.8,0.1-1.7,0.2-2.6,0.2H99.9h-9.1H78.9h-29h-6"/>
			<path id="XMLID_343_" class="st1" d="M42.5,37.5h-1l0.1-0.7c-0.3,0.1-0.6,0.2-1,0.3"/>
			<path id="XMLID_342_" class="st6" d="M38.4,37.5c-0.4,0-1,0-1.4,0h-10"/>
			<path id="XMLID_341_" class="st1" d="M25.2,37.5h-1l0.2-1.6l0.4,0c-0.3,0.2-0.6,0.3-0.9,0.4"/>
			<path id="XMLID_340_" class="st7" d="M20.7,37.2c-0.9,0.2-1.7,0.3-2.8,0.3h-11"/>
			<polyline id="XMLID_339_" class="st1" points="5.9,37.5 4.9,37.5 5.1,36.5 			"/>
			<line id="XMLID_338_" class="st8" x1="5.7" y1="33.7" x2="11.1" y2="6.9"/>
			<polyline id="XMLID_337_" class="st1" points="11.4,5.5 11.6,4.5 12.6,4.5 			"/>
			<path id="XMLID_336_" class="st9" d="M15.9,4.5h6.2c2.4,0,4.7,0.3,6.5,1.1"/>
			<path id="XMLID_335_" class="st1" d="M29.6,6.4c0.3,0.2,0.5,0.4,0.7,0.6l0,0l0.2-1"/>
			<polyline id="XMLID_334_" class="st1" points="30.7,5.5 30.9,4.5 31.9,4.5 			"/>
			<line id="XMLID_333_" class="st2" x1="34.9" y1="4.5" x2="41.9" y2="4.5"/>
			<polyline id="XMLID_332_" class="st1" points="43,4.5 44,4.5 43.8,5.5 			"/>
			<line id="XMLID_331_" class="st10" x1="43.2" y1="8.2" x2="42.6" y2="11.3"/>
			<path id="XMLID_330_" class="st1" d="M42.3,12.7l-0.2,1c0.3,0,0.7,0.1,1,0.2"/>
			<path id="XMLID_329_" class="st1" d="M45.2,14.7c0.3,0.2,0.6,0.3,0.9,0.5l0.2-1"/>
			<line id="XMLID_328_" class="st11" x1="46.9" y1="10.9" x2="47.7" y2="7.1"/>
			<polyline id="XMLID_327_" class="st1" points="48,5.5 48.2,4.5 49.2,4.5 			"/>
			<path id="XMLID_326_" class="st12" d="M51.9,4.5h5h28h13.5h7.5h10.8c2.4,0,4.2,0.3,5.9,1.1"/>
			<path id="XMLID_325_" class="st1" d="M124.2,6.4c0.3,0.2,0.5,0.4,0.8,0.6l0,0l0.2-1"/>
			<polyline id="XMLID_324_" class="st1" points="125.3,5.5 125.5,4.5 126.5,4.5 			"/>
			<line id="XMLID_323_" class="st2" x1="129.9" y1="4.5" x2="144.9" y2="4.5"/>
			<polyline id="XMLID_322_" class="st1" points="146.4,4.5 147.4,4.5 147.4,5.5 			"/>
			<polyline id="XMLID_321_" class="st1" points="147.4,8 147.4,9 148.1,8.2 			"/>
		</g>
	</g>
</g>
<g id="XMLID_219_">
	<path id="XMLID_220_" class="st13" d="M9.8,33.3l5.1-25.6h7.3c2.4,0,4.2,0.6,5.5,1.8s1.7,2.9,1.2,5.2c-0.3,1.3-0.7,2.4-1.4,3.3
		s-1.6,1.6-2.7,2c1.2,0.3,2,1,2.4,2.1s0.4,2.3,0.2,3.7c-0.5,2.6-1.6,4.5-3.1,5.7s-3.6,1.8-6.2,1.8H9.8z M17,22l-1.5,7.3h3.2
		c0.9,0,1.7-0.3,2.3-0.9s1-1.5,1.3-2.6c0.3-1.3,0.3-2.3,0-2.9S21.5,22,20.6,22H17z M17.7,18.5h2.5c0.9,0,1.7-0.3,2.3-0.9
		c0.6-0.6,1.1-1.4,1.3-2.4c0.2-1.3,0.2-2.2-0.2-2.7c-0.4-0.5-1.1-0.8-2.2-0.8h-2.3L17.7,18.5z"/>
	<path id="XMLID_224_" class="st13" d="M37.2,17.1h3c2.3,0,4.1,0.7,5.3,2.2s1.6,3.4,1.2,5.8c-0.5,2.6-1.7,4.6-3.4,6
		s-3.8,2.1-6.3,2.1h-7.9l5.1-25.6h4.9L37.2,17.1z M36.4,21.1l-1.6,8.2h3c0.9,0,1.7-0.4,2.5-1.2s1.3-1.8,1.5-3
		c0.2-1.2,0.2-2.2-0.2-2.9s-1.1-1.1-2.1-1.1H36.4z M51.3,33.3h-4.9l5.1-25.6h4.9L51.3,33.3z"/>
	<path id="XMLID_228_" class="st13" d="M65.2,7.7l-4.3,21.6h5l4.3-21.6h4.9l-4.3,21.6h4.9l4.3-21.6h5l-5.1,25.6H55.1l5.1-25.6H65.2z
		"/>
	<path id="XMLID_230_" class="st13" d="M100.8,7.7h5l-5.1,25.6h-5l3.1-15.4l-0.1,0L88.4,33.3h-5l5.1-25.6h5l-3.1,15.5l0.1,0
		L100.8,7.7z"/>
	<path id="XMLID_232_" class="st13" d="M104.4,33.3l5.1-25.6h7.3c2.4,0,4.2,0.6,5.5,1.8s1.7,2.9,1.2,5.2c-0.3,1.3-0.7,2.4-1.4,3.3
		s-1.6,1.6-2.7,2c1.2,0.3,2,1,2.4,2.1s0.4,2.3,0.2,3.7c-0.5,2.6-1.6,4.5-3.1,5.7s-3.6,1.8-6.2,1.8H104.4z M111.6,22l-1.5,7.3h3.2
		c0.9,0,1.7-0.3,2.3-0.9s1-1.5,1.3-2.6c0.3-1.3,0.3-2.3,0-2.9s-0.9-0.9-1.8-0.9H111.6z M112.3,18.5h2.5c0.9,0,1.7-0.3,2.3-0.9
		c0.6-0.6,1.1-1.4,1.3-2.4c0.2-1.3,0.2-2.2-0.2-2.7c-0.4-0.5-1.1-0.8-2.2-0.8h-2.3L112.3,18.5z"/>
	<path id="XMLID_236_" class="st13" d="M132.2,22.7h-1.5l-2.1,10.6h-5l5.1-25.6h5l-2.1,10.4h1.5l5.7-10.4h6.5l-8.7,12.7l3.8,12.9
		h-5.7L132.2,22.7z"/>
	<path id="XMLID_238_" class="st13" d="M154.9,27.8h-6.2l-2.4,5.5h-5l11.9-25.6h5.2l1.7,25.6h-5L154.9,27.8z M150.5,23.8h4.3
		l-0.3-8.6l-0.1,0L150.5,23.8z"/>
</g>
</svg>
