<?xml version="1.0" encoding="utf-8"?>
<!-- Generator: Adobe Illustrator 19.0.0, SVG Export Plug-In . SVG Version: 6.00 Build 0)  -->
<svg version="1.1" id="Слой_1" xmlns="http://www.w3.org/2000/svg" fill="#e93f36" xmlns:xlink="http://www.w3.org/1999/xlink" x="0px" y="0px"
	 viewBox="0 0 16 16" style="enable-background:new 0 0 16 16;" xml:space="preserve">
<g>
	<circle cx="8" cy="8" r="2"/>
	<path d="M15.5,8.9c-0.7-0.4-0.7-1.5,0-1.9c1-0.5,0.6-2-0.5-2c-0.8,0-1.4-0.9-0.9-1.6h0c0.6-0.9-0.5-2-1.5-1.5
		c-0.7,0.4-1.6-0.1-1.6-0.9c0-1.1-1.5-1.5-2-0.5c-0.4,0.7-1.5,0.7-1.9,0c-0.5-1-2-0.6-2,0.5c0,0.8-0.9,1.4-1.6,0.9
		C2.5,1.4,1.4,2.5,2,3.5h0c0.4,0.7-0.1,1.6-0.9,1.6c-1.1,0-1.5,1.5-0.5,2c0.7,0.4,0.7,1.5,0,1.9c-1,0.5-0.6,2,0.5,2
		c0.8,0,1.4,0.9,0.9,1.6h0c-0.6,0.9,0.5,2,1.5,1.5c0.7-0.4,1.6,0.1,1.6,0.9c0,1.1,1.5,1.5,2,0.5c0.4-0.7,1.5-0.7,1.9,0
		c0.5,1,2,0.6,2-0.5c0-0.8,0.9-1.4,1.6-0.9c0.9,0.6,2-0.5,1.5-1.5h0c-0.4-0.7,0.1-1.6,0.9-1.6C16,10.9,16.4,9.5,15.5,8.9z
		 M12.2,10.5c-0.2,0.4-0.4,0.9-0.4,1.4c-0.8,0-1.5,0.4-2,0.9c-0.1,0.2-0.3,0.3-0.4,0.5C9,13,8.5,12.9,8,12.9S7,13,6.6,13.2
		c-0.1-0.2-0.2-0.3-0.4-0.5c-0.5-0.5-1.3-0.9-2-0.9c0-0.5-0.2-0.9-0.4-1.4c-0.2-0.4-0.6-0.8-1-1.1C3,9,3.1,8.5,3.1,8
		c0-0.5-0.1-1-0.3-1.4c0.4-0.3,0.8-0.6,1-1.1C4,5.1,4.1,4.6,4.2,4.2c0.8,0,1.5-0.4,2-0.9c0.1-0.2,0.3-0.3,0.4-0.5C7,3,7.5,3.1,8,3.1
		S9,3,9.4,2.8c0.1,0.2,0.2,0.3,0.4,0.5c0.5,0.5,1.3,0.9,2,0.9c0,0.5,0.2,0.9,0.4,1.4c0.2,0.4,0.6,0.8,1,1.1C13,7,12.9,7.5,12.9,8
		c0,0.5,0.1,1,0.3,1.4C12.8,9.7,12.5,10,12.2,10.5z"/>
</g>
</svg>
