<?xml version="1.0" encoding="utf-8"?>
<!-- Generator: Adobe Illustrator 19.0.0, SVG Export Plug-In . SVG Version: 6.00 Build 0)  -->
<svg version="1.1" id="Capa_1" xmlns="http://www.w3.org/2000/svg" xmlns:xlink="http://www.w3.org/1999/xlink" x="0px" y="0px" fill="white"
	 viewBox="1 10 54 36" style="enable-background:new 1 10 54 36;" xml:space="preserve">
<path d="M55,46H1V10h54V46z M4.1,21c4.7,1.1,7.8,3.9,9.1,7.2l-1.3-6.3c-0.2-0.9-0.9-1.1-1.7-1.2h-6L4.1,21z M15.5,35.1l6.1-14.2
	h-4.1l-3.8,9.7l-0.4-1.5c-0.8-1.8-2.9-4.3-5.4-5.9l3.5,11.9L15.5,35.1z M27.1,20.9h-3.9l-2.4,14.3h3.9L27.1,20.9z M38.2,30.5
	c0-1.6-1-2.9-3.3-3.9c-1.4-0.7-2.2-1.1-2.2-1.8c0-0.6,0.7-1.2,2.2-1.2c1.3,0,2.2,0.3,2.9,0.5l0.4,0.2l0.5-3.1
	c-0.8-0.3-2-0.6-3.5-0.6c-3.8,0-6.6,1.9-6.6,4.7c0,2,1.9,3.2,3.4,3.9c1.5,0.7,2,1.1,2,1.8c0,1-1.2,1.4-2.3,1.4
	c-1.6,0-2.4-0.2-3.7-0.7l-0.5-0.2l-0.5,3.2c0.9,0.4,2.6,0.7,4.3,0.8C35.5,35.4,38.2,33.5,38.2,30.5z M48.3,35.2l3.6,0l-3.1-14.3h-3
	c-0.9,0-1.6,0.3-2,1.2L38,35.2H42c0,0,0.7-1.8,0.8-2.1c0.4,0,4.4,0,5,0C48,33.5,48.3,35.2,48.3,35.2L48.3,35.2z M46,24.7
	c-0.2,0.5-0.5,1.4-0.5,1.4c0,0-1.2,3.2-1.5,4h3.2C47,29.4,46.3,26,46.3,26L46,24.7z"/>
</svg>
